M48
; DRILL file {KiCad 9.0.1} date 2025-05-07T20:41:23+0200
; FORMAT={-:-/ absolute / metric / decimal}
; #@! TF.CreationDate,2025-05-07T20:41:23+02:00
; #@! TF.GenerationSoftware,Kicad,Pcbnew,9.0.1
; #@! TF.FileFunction,Plated,1,2,PTH
FMAT,2
METRIC
; #@! TA.AperFunction,Plated,PTH,ViaDrill
T1C0.300
; #@! TA.AperFunction,Plated,PTH,ComponentDrill
T2C0.300
; #@! TA.AperFunction,Plated,PTH,ComponentDrill
T3C1.000
%
G90
G05
T1
X78.75Y-118.25
X82.25Y-86.25
X84.0Y-85.0
X85.0Y-114.0
X85.25Y-103.25
X85.5Y-94.5
X85.75Y-99.5
X88.0Y-110.5
X88.25Y-96.75
X88.5Y-89.5
X88.5Y-99.5
X90.5Y-116.5
X90.75Y-105.75
X91.0Y-110.5
X92.75Y-83.25
X93.0Y-91.5
X93.25Y-113.0
X95.0Y-114.0
X95.5Y-98.5
X95.5Y-110.25
X96.25Y-85.5
X96.75Y-102.0
X97.75Y-112.0
X98.5Y-87.4
X98.75Y-101.25
X99.0Y-106.0
X99.5Y-83.25
X99.5Y-113.05
X99.75Y-88.5
X100.451Y-88.5
X100.5Y-119.75
X102.5Y-86.0
X103.0Y-91.25
X103.0Y-97.75
X103.0Y-108.75
X104.0Y-102.0
X104.5Y-111.25
X104.971Y-103.471
X105.0Y-88.5
X105.5Y-107.5
X105.75Y-94.5
X106.25Y-104.75
X106.567Y-98.067
X106.75Y-97.0
X108.0Y-92.75
X108.0Y-110.482
X108.375Y-90.125
X108.5Y-100.11
X109.0Y-91.5
X109.0Y-89.5
X109.682Y-103.972
X109.75Y-105.0
X111.0Y-89.0
X111.0Y-98.0
X111.525Y-88.391
X111.75Y-101.0
X111.8Y-98.0
X111.934Y-90.434
X112.5Y-91.0
X112.5Y-95.5
X113.0Y-103.75
X113.5Y-93.4
X113.5Y-95.5
X114.0Y-100.5
X114.15Y-94.0
X115.25Y-95.5
X115.5Y-111.5
X115.551Y-90.25
X115.551Y-91.0
X115.862Y-98.862
X116.0Y-111.0
X117.5Y-96.0
X117.5Y-100.1
X119.625Y-107.375
X119.75Y-119.25
X123.75Y-84.75
X124.0Y-115.0
T2
X71.5Y-85.25
X71.5Y-86.25
X71.5Y-87.25
X71.5Y-88.25
X71.5Y-89.25
X71.5Y-90.25
X71.5Y-109.75
X71.5Y-110.75
X71.5Y-111.75
X71.5Y-112.75
X71.5Y-113.75
X71.5Y-114.75
X72.5Y-85.25
X72.5Y-86.25
X72.5Y-87.25
X72.5Y-88.25
X72.5Y-89.25
X72.5Y-90.25
X72.5Y-109.75
X72.5Y-110.75
X72.5Y-111.75
X72.5Y-112.75
X72.5Y-113.75
X72.5Y-114.75
X73.5Y-85.25
X73.5Y-86.25
X73.5Y-87.25
X73.5Y-88.25
X73.5Y-89.25
X73.5Y-90.25
X73.5Y-109.75
X73.5Y-110.75
X73.5Y-111.75
X73.5Y-112.75
X73.5Y-113.75
X73.5Y-114.75
X74.5Y-85.25
X74.5Y-86.25
X74.5Y-87.25
X74.5Y-88.25
X74.5Y-89.25
X74.5Y-90.25
X74.5Y-109.75
X74.5Y-110.75
X74.5Y-111.75
X74.5Y-112.75
X74.5Y-113.75
X74.5Y-114.75
X75.5Y-85.25
X75.5Y-86.25
X75.5Y-87.25
X75.5Y-88.25
X75.5Y-89.25
X75.5Y-90.25
X75.5Y-109.75
X75.5Y-110.75
X75.5Y-111.75
X75.5Y-112.75
X75.5Y-113.75
X75.5Y-114.75
X76.5Y-85.25
X76.5Y-86.25
X76.5Y-87.25
X76.5Y-88.25
X76.5Y-89.25
X76.5Y-90.25
X76.5Y-109.75
X76.5Y-110.75
X76.5Y-111.75
X76.5Y-112.75
X76.5Y-113.75
X76.5Y-114.75
X84.0Y-117.5
X84.0Y-118.5
X84.0Y-119.5
X84.0Y-120.5
X84.5Y-118.0
X84.5Y-119.0
X84.5Y-120.0
X85.0Y-117.5
X85.0Y-118.5
X85.0Y-119.5
X85.0Y-120.5
X85.5Y-118.0
X85.5Y-119.0
X85.5Y-120.0
X86.0Y-117.5
X86.0Y-118.5
X86.0Y-119.5
X86.0Y-120.5
X95.0Y-79.5
X95.0Y-80.5
X95.0Y-81.5
X95.0Y-82.5
X95.5Y-80.0
X95.5Y-81.0
X95.5Y-82.0
X96.0Y-79.5
X96.0Y-80.5
X96.0Y-81.5
X96.0Y-82.5
X96.5Y-80.0
X96.5Y-81.0
X96.5Y-82.0
X97.0Y-79.5
X97.0Y-80.5
X97.0Y-81.5
X97.0Y-82.5
X114.0Y-117.5
X114.0Y-118.5
X114.0Y-119.5
X114.0Y-120.5
X114.5Y-118.0
X114.5Y-119.0
X114.5Y-120.0
X115.0Y-117.5
X115.0Y-118.5
X115.0Y-119.5
X115.0Y-120.5
X115.5Y-118.0
X115.5Y-119.0
X115.5Y-120.0
X116.0Y-117.5
X116.0Y-118.5
X116.0Y-119.5
X116.0Y-120.5
X123.5Y-87.5
X123.5Y-88.5
X123.5Y-89.5
X123.5Y-90.5
X123.5Y-91.5
X123.5Y-92.5
X123.5Y-107.5
X123.5Y-108.5
X123.5Y-109.5
X123.5Y-110.5
X123.5Y-111.5
X123.5Y-112.5
X124.5Y-87.5
X124.5Y-88.5
X124.5Y-89.5
X124.5Y-90.5
X124.5Y-91.5
X124.5Y-92.5
X124.5Y-107.5
X124.5Y-108.5
X124.5Y-109.5
X124.5Y-110.5
X124.5Y-111.5
X124.5Y-112.5
X125.5Y-87.5
X125.5Y-88.5
X125.5Y-89.5
X125.5Y-90.5
X125.5Y-91.5
X125.5Y-92.5
X125.5Y-107.5
X125.5Y-108.5
X125.5Y-109.5
X125.5Y-110.5
X125.5Y-111.5
X125.5Y-112.5
X126.5Y-87.5
X126.5Y-88.5
X126.5Y-89.5
X126.5Y-90.5
X126.5Y-91.5
X126.5Y-92.5
X126.5Y-107.5
X126.5Y-108.5
X126.5Y-109.5
X126.5Y-110.5
X126.5Y-111.5
X126.5Y-112.5
X127.5Y-87.5
X127.5Y-88.5
X127.5Y-89.5
X127.5Y-90.5
X127.5Y-91.5
X127.5Y-92.5
X127.5Y-107.5
X127.5Y-108.5
X127.5Y-109.5
X127.5Y-110.5
X127.5Y-111.5
X127.5Y-112.5
X128.5Y-87.5
X128.5Y-88.5
X128.5Y-89.5
X128.5Y-90.5
X128.5Y-91.5
X128.5Y-92.5
X128.5Y-107.5
X128.5Y-108.5
X128.5Y-109.5
X128.5Y-110.5
X128.5Y-111.5
X128.5Y-112.5
T3
X113.19Y-81.0
X114.46Y-85.0
X115.73Y-81.0
X117.0Y-85.0
X118.27Y-81.0
X119.54Y-85.0
X120.81Y-81.0
M30
