G04 #@! TF.GenerationSoftware,KiCad,Pcbnew,9.0.1*
G04 #@! TF.CreationDate,2025-05-07T20:37:22+02:00*
G04 #@! TF.ProjectId,resistive-BMS-4s,72657369-7374-4697-9665-2d424d532d34,rev?*
G04 #@! TF.SameCoordinates,Original*
G04 #@! TF.FileFunction,Copper,L1,Top*
G04 #@! TF.FilePolarity,Positive*
%FSLAX46Y46*%
G04 Gerber Fmt 4.6, Leading zero omitted, Abs format (unit mm)*
G04 Created by KiCad (PCBNEW 9.0.1) date 2025-05-07 20:37:22*
%MOMM*%
%LPD*%
G01*
G04 APERTURE LIST*
G04 Aperture macros list*
%AMRoundRect*
0 Rectangle with rounded corners*
0 $1 Rounding radius*
0 $2 $3 $4 $5 $6 $7 $8 $9 X,Y pos of 4 corners*
0 Add a 4 corners polygon primitive as box body*
4,1,4,$2,$3,$4,$5,$6,$7,$8,$9,$2,$3,0*
0 Add four circle primitives for the rounded corners*
1,1,$1+$1,$2,$3*
1,1,$1+$1,$4,$5*
1,1,$1+$1,$6,$7*
1,1,$1+$1,$8,$9*
0 Add four rect primitives between the rounded corners*
20,1,$1+$1,$2,$3,$4,$5,0*
20,1,$1+$1,$4,$5,$6,$7,0*
20,1,$1+$1,$6,$7,$8,$9,0*
20,1,$1+$1,$8,$9,$2,$3,0*%
%AMFreePoly0*
4,1,9,2.100000,-2.000000,2.350000,-2.000000,2.350000,-3.500000,-2.350000,-3.500000,-2.350000,-2.000000,-2.100000,-2.000000,-2.100000,1.100000,2.100000,1.100000,2.100000,-2.000000,2.100000,-2.000000,$1*%
G04 Aperture macros list end*
G04 #@! TA.AperFunction,SMDPad,CuDef*
%ADD10RoundRect,0.200000X0.200000X0.275000X-0.200000X0.275000X-0.200000X-0.275000X0.200000X-0.275000X0*%
G04 #@! TD*
G04 #@! TA.AperFunction,ComponentPad*
%ADD11C,0.600000*%
G04 #@! TD*
G04 #@! TA.AperFunction,SMDPad,CuDef*
%ADD12RoundRect,0.375000X-1.125000X-1.625000X1.125000X-1.625000X1.125000X1.625000X-1.125000X1.625000X0*%
G04 #@! TD*
G04 #@! TA.AperFunction,SMDPad,CuDef*
%ADD13RoundRect,0.200000X-0.200000X-0.275000X0.200000X-0.275000X0.200000X0.275000X-0.200000X0.275000X0*%
G04 #@! TD*
G04 #@! TA.AperFunction,ComponentPad*
%ADD14R,1.700000X1.700000*%
G04 #@! TD*
G04 #@! TA.AperFunction,ComponentPad*
%ADD15C,1.700000*%
G04 #@! TD*
G04 #@! TA.AperFunction,SMDPad,CuDef*
%ADD16RoundRect,0.175000X0.175000X0.400000X-0.175000X0.400000X-0.175000X-0.400000X0.175000X-0.400000X0*%
G04 #@! TD*
G04 #@! TA.AperFunction,SMDPad,CuDef*
%ADD17FreePoly0,180.000000*%
G04 #@! TD*
G04 #@! TA.AperFunction,SMDPad,CuDef*
%ADD18RoundRect,0.175000X-0.175000X-0.400000X0.175000X-0.400000X0.175000X0.400000X-0.175000X0.400000X0*%
G04 #@! TD*
G04 #@! TA.AperFunction,SMDPad,CuDef*
%ADD19FreePoly0,0.000000*%
G04 #@! TD*
G04 #@! TA.AperFunction,SMDPad,CuDef*
%ADD20R,1.100000X0.250000*%
G04 #@! TD*
G04 #@! TA.AperFunction,SMDPad,CuDef*
%ADD21RoundRect,0.200000X0.275000X-0.200000X0.275000X0.200000X-0.275000X0.200000X-0.275000X-0.200000X0*%
G04 #@! TD*
G04 #@! TA.AperFunction,SMDPad,CuDef*
%ADD22RoundRect,0.150000X0.587500X0.150000X-0.587500X0.150000X-0.587500X-0.150000X0.587500X-0.150000X0*%
G04 #@! TD*
G04 #@! TA.AperFunction,SMDPad,CuDef*
%ADD23RoundRect,0.250000X0.362500X1.425000X-0.362500X1.425000X-0.362500X-1.425000X0.362500X-1.425000X0*%
G04 #@! TD*
G04 #@! TA.AperFunction,SMDPad,CuDef*
%ADD24RoundRect,0.150000X-0.587500X-0.150000X0.587500X-0.150000X0.587500X0.150000X-0.587500X0.150000X0*%
G04 #@! TD*
G04 #@! TA.AperFunction,SMDPad,CuDef*
%ADD25RoundRect,0.225000X0.250000X-0.225000X0.250000X0.225000X-0.250000X0.225000X-0.250000X-0.225000X0*%
G04 #@! TD*
G04 #@! TA.AperFunction,SMDPad,CuDef*
%ADD26RoundRect,0.250000X-1.425000X0.362500X-1.425000X-0.362500X1.425000X-0.362500X1.425000X0.362500X0*%
G04 #@! TD*
G04 #@! TA.AperFunction,SMDPad,CuDef*
%ADD27RoundRect,0.250000X-0.362500X-1.425000X0.362500X-1.425000X0.362500X1.425000X-0.362500X1.425000X0*%
G04 #@! TD*
G04 #@! TA.AperFunction,SMDPad,CuDef*
%ADD28RoundRect,0.225000X0.225000X0.250000X-0.225000X0.250000X-0.225000X-0.250000X0.225000X-0.250000X0*%
G04 #@! TD*
G04 #@! TA.AperFunction,SMDPad,CuDef*
%ADD29RoundRect,0.250000X-0.650000X0.325000X-0.650000X-0.325000X0.650000X-0.325000X0.650000X0.325000X0*%
G04 #@! TD*
G04 #@! TA.AperFunction,SMDPad,CuDef*
%ADD30RoundRect,0.200000X-0.275000X0.200000X-0.275000X-0.200000X0.275000X-0.200000X0.275000X0.200000X0*%
G04 #@! TD*
G04 #@! TA.AperFunction,SMDPad,CuDef*
%ADD31RoundRect,0.225000X-0.225000X-0.250000X0.225000X-0.250000X0.225000X0.250000X-0.225000X0.250000X0*%
G04 #@! TD*
G04 #@! TA.AperFunction,SMDPad,CuDef*
%ADD32RoundRect,0.750000X-2.250000X-2.250000X2.250000X-2.250000X2.250000X2.250000X-2.250000X2.250000X0*%
G04 #@! TD*
G04 #@! TA.AperFunction,SMDPad,CuDef*
%ADD33RoundRect,0.150000X0.150000X-0.512500X0.150000X0.512500X-0.150000X0.512500X-0.150000X-0.512500X0*%
G04 #@! TD*
G04 #@! TA.AperFunction,SMDPad,CuDef*
%ADD34RoundRect,0.250000X0.650000X-0.325000X0.650000X0.325000X-0.650000X0.325000X-0.650000X-0.325000X0*%
G04 #@! TD*
G04 #@! TA.AperFunction,SMDPad,CuDef*
%ADD35RoundRect,0.250000X-0.325000X-0.650000X0.325000X-0.650000X0.325000X0.650000X-0.325000X0.650000X0*%
G04 #@! TD*
G04 #@! TA.AperFunction,SMDPad,CuDef*
%ADD36RoundRect,0.050000X-0.375000X-0.050000X0.375000X-0.050000X0.375000X0.050000X-0.375000X0.050000X0*%
G04 #@! TD*
G04 #@! TA.AperFunction,SMDPad,CuDef*
%ADD37RoundRect,0.050000X-0.050000X-0.375000X0.050000X-0.375000X0.050000X0.375000X-0.050000X0.375000X0*%
G04 #@! TD*
G04 #@! TA.AperFunction,HeatsinkPad*
%ADD38R,1.650000X1.650000*%
G04 #@! TD*
G04 #@! TA.AperFunction,SMDPad,CuDef*
%ADD39RoundRect,0.150000X0.150000X-0.587500X0.150000X0.587500X-0.150000X0.587500X-0.150000X-0.587500X0*%
G04 #@! TD*
G04 #@! TA.AperFunction,SMDPad,CuDef*
%ADD40RoundRect,0.375000X-0.625000X-0.375000X0.625000X-0.375000X0.625000X0.375000X-0.625000X0.375000X0*%
G04 #@! TD*
G04 #@! TA.AperFunction,SMDPad,CuDef*
%ADD41RoundRect,0.500000X-0.500000X-1.400000X0.500000X-1.400000X0.500000X1.400000X-0.500000X1.400000X0*%
G04 #@! TD*
G04 #@! TA.AperFunction,ViaPad*
%ADD42C,0.600000*%
G04 #@! TD*
G04 #@! TA.AperFunction,Conductor*
%ADD43C,0.250000*%
G04 #@! TD*
G04 #@! TA.AperFunction,Conductor*
%ADD44C,1.000000*%
G04 #@! TD*
G04 #@! TA.AperFunction,Conductor*
%ADD45C,0.500000*%
G04 #@! TD*
G04 #@! TA.AperFunction,Conductor*
%ADD46C,0.200000*%
G04 #@! TD*
G04 APERTURE END LIST*
D10*
X110325000Y-97000000D03*
X108675000Y-97000000D03*
D11*
X84000000Y-117500000D03*
X84000000Y-118500000D03*
X84000000Y-119500000D03*
X84000000Y-120500000D03*
X84500000Y-118000000D03*
X84500000Y-119000000D03*
X84500000Y-120000000D03*
X85000000Y-117500000D03*
X85000000Y-118500000D03*
D12*
X85000000Y-119000000D03*
D11*
X85000000Y-119500000D03*
X85000000Y-120500000D03*
X85500000Y-118000000D03*
X85500000Y-119000000D03*
X85500000Y-120000000D03*
X86000000Y-117500000D03*
X86000000Y-118500000D03*
X86000000Y-119500000D03*
X86000000Y-120500000D03*
D13*
X107175000Y-106000000D03*
X108825000Y-106000000D03*
D14*
X113190000Y-81000000D03*
D15*
X115730000Y-81000000D03*
X118270000Y-81000000D03*
X120810000Y-81000000D03*
D16*
X72095000Y-98725000D03*
X73365000Y-98725000D03*
X74635000Y-98725000D03*
X75905000Y-98725000D03*
D17*
X74000000Y-96000000D03*
D18*
X75905000Y-101275000D03*
X74635000Y-101275000D03*
X73365000Y-101275000D03*
X72095000Y-101275000D03*
D19*
X74000000Y-104000000D03*
D20*
X110850000Y-104000000D03*
X110850000Y-104500000D03*
X110850000Y-105000000D03*
X110850000Y-105500000D03*
X110850000Y-106000000D03*
X115150000Y-106000000D03*
X115150000Y-105500000D03*
X115150000Y-105000000D03*
X115150000Y-104500000D03*
X115150000Y-104000000D03*
D21*
X90000000Y-109325000D03*
X90000000Y-107675000D03*
D10*
X114575000Y-96750000D03*
X112925000Y-96750000D03*
X118825000Y-106000000D03*
X117175000Y-106000000D03*
D13*
X107175000Y-104500000D03*
X108825000Y-104500000D03*
D22*
X110937500Y-114950000D03*
X110937500Y-113050000D03*
X109062500Y-114000000D03*
D23*
X110962500Y-119000000D03*
X105037500Y-119000000D03*
D24*
X108062500Y-85050000D03*
X108062500Y-86950000D03*
X109937500Y-86000000D03*
D25*
X89250000Y-98275000D03*
X89250000Y-96725000D03*
D21*
X90000000Y-103825000D03*
X90000000Y-102175000D03*
D25*
X89250000Y-95275000D03*
X89250000Y-93725000D03*
D26*
X122090000Y-97037500D03*
X122090000Y-102962500D03*
D27*
X89037500Y-119000000D03*
X94962500Y-119000000D03*
D28*
X113775000Y-102000000D03*
X112225000Y-102000000D03*
D29*
X114000000Y-111525000D03*
X114000000Y-114475000D03*
D16*
X78095000Y-98725000D03*
X79365000Y-98725000D03*
X80635000Y-98725000D03*
X81905000Y-98725000D03*
D17*
X80000000Y-96000000D03*
D27*
X102037500Y-81000000D03*
X107962500Y-81000000D03*
D22*
X104937500Y-114950000D03*
X104937500Y-113050000D03*
X103062500Y-114000000D03*
D30*
X107000000Y-113175000D03*
X107000000Y-114825000D03*
D11*
X114000000Y-117500000D03*
X114000000Y-118500000D03*
X114000000Y-119500000D03*
X114000000Y-120500000D03*
X114500000Y-118000000D03*
X114500000Y-119000000D03*
X114500000Y-120000000D03*
X115000000Y-117500000D03*
X115000000Y-118500000D03*
D12*
X115000000Y-119000000D03*
D11*
X115000000Y-119500000D03*
X115000000Y-120500000D03*
X115500000Y-118000000D03*
X115500000Y-119000000D03*
X115500000Y-120000000D03*
X116000000Y-117500000D03*
X116000000Y-118500000D03*
X116000000Y-119500000D03*
X116000000Y-120500000D03*
D24*
X82062500Y-85050000D03*
X82062500Y-86950000D03*
X83937500Y-86000000D03*
D31*
X115975000Y-97000000D03*
X117525000Y-97000000D03*
D21*
X100000000Y-103825000D03*
X100000000Y-102175000D03*
D24*
X92062500Y-102050000D03*
X92062500Y-103950000D03*
X93937500Y-103000000D03*
D25*
X108000000Y-95275000D03*
X108000000Y-93725000D03*
D11*
X71500000Y-85250000D03*
X71500000Y-86250000D03*
X71500000Y-87250000D03*
X71500000Y-88250000D03*
X71500000Y-89250000D03*
X71500000Y-90250000D03*
X72500000Y-85250000D03*
X72500000Y-86250000D03*
X72500000Y-87250000D03*
X72500000Y-88250000D03*
X72500000Y-89250000D03*
X72500000Y-90250000D03*
X73500000Y-85250000D03*
X73500000Y-86250000D03*
X73500000Y-87250000D03*
X73500000Y-88250000D03*
X73500000Y-89250000D03*
X73500000Y-90250000D03*
D32*
X74000000Y-87750000D03*
D11*
X74500000Y-85250000D03*
X74500000Y-86250000D03*
X74500000Y-87250000D03*
X74500000Y-88250000D03*
X74500000Y-89250000D03*
X74500000Y-90250000D03*
X75500000Y-85250000D03*
X75500000Y-86250000D03*
X75500000Y-87250000D03*
X75500000Y-88250000D03*
X75500000Y-89250000D03*
X75500000Y-90250000D03*
X76500000Y-85250000D03*
X76500000Y-86250000D03*
X76500000Y-87250000D03*
X76500000Y-88250000D03*
X76500000Y-89250000D03*
X76500000Y-90250000D03*
D33*
X116550000Y-101137500D03*
X117500000Y-101137500D03*
X118450000Y-101137500D03*
X118450000Y-98862500D03*
X117500000Y-98862500D03*
X116550000Y-98862500D03*
D11*
X123500000Y-107500000D03*
X123500000Y-108500000D03*
X123500000Y-109500000D03*
X123500000Y-110500000D03*
X123500000Y-111500000D03*
X123500000Y-112500000D03*
X124500000Y-107500000D03*
X124500000Y-108500000D03*
X124500000Y-109500000D03*
X124500000Y-110500000D03*
X124500000Y-111500000D03*
X124500000Y-112500000D03*
X125500000Y-107500000D03*
X125500000Y-108500000D03*
X125500000Y-109500000D03*
X125500000Y-110500000D03*
X125500000Y-111500000D03*
X125500000Y-112500000D03*
D32*
X126000000Y-110000000D03*
D11*
X126500000Y-107500000D03*
X126500000Y-108500000D03*
X126500000Y-109500000D03*
X126500000Y-110500000D03*
X126500000Y-111500000D03*
X126500000Y-112500000D03*
X127500000Y-107500000D03*
X127500000Y-108500000D03*
X127500000Y-109500000D03*
X127500000Y-110500000D03*
X127500000Y-111500000D03*
X127500000Y-112500000D03*
X128500000Y-107500000D03*
X128500000Y-108500000D03*
X128500000Y-109500000D03*
X128500000Y-110500000D03*
X128500000Y-111500000D03*
X128500000Y-112500000D03*
D27*
X84037500Y-81000000D03*
X89962500Y-81000000D03*
D21*
X106000000Y-86825000D03*
X106000000Y-85175000D03*
D22*
X97937500Y-103950000D03*
X97937500Y-102050000D03*
X96062500Y-103000000D03*
D34*
X98000000Y-88475000D03*
X98000000Y-85525000D03*
D21*
X100000000Y-109325000D03*
X100000000Y-107675000D03*
D24*
X102062500Y-85050000D03*
X102062500Y-86950000D03*
X103937500Y-86000000D03*
D18*
X81905000Y-101275000D03*
X80635000Y-101275000D03*
X79365000Y-101275000D03*
X78095000Y-101275000D03*
D19*
X80000000Y-104000000D03*
D11*
X71500000Y-109750000D03*
X71500000Y-110750000D03*
X71500000Y-111750000D03*
X71500000Y-112750000D03*
X71500000Y-113750000D03*
X71500000Y-114750000D03*
X72500000Y-109750000D03*
X72500000Y-110750000D03*
X72500000Y-111750000D03*
X72500000Y-112750000D03*
X72500000Y-113750000D03*
X72500000Y-114750000D03*
X73500000Y-109750000D03*
X73500000Y-110750000D03*
X73500000Y-111750000D03*
X73500000Y-112750000D03*
X73500000Y-113750000D03*
X73500000Y-114750000D03*
D32*
X74000000Y-112250000D03*
D11*
X74500000Y-109750000D03*
X74500000Y-110750000D03*
X74500000Y-111750000D03*
X74500000Y-112750000D03*
X74500000Y-113750000D03*
X74500000Y-114750000D03*
X75500000Y-109750000D03*
X75500000Y-110750000D03*
X75500000Y-111750000D03*
X75500000Y-112750000D03*
X75500000Y-113750000D03*
X75500000Y-114750000D03*
X76500000Y-109750000D03*
X76500000Y-110750000D03*
X76500000Y-111750000D03*
X76500000Y-112750000D03*
X76500000Y-113750000D03*
X76500000Y-114750000D03*
D26*
X127000000Y-97037500D03*
X127000000Y-102962500D03*
D22*
X94937500Y-114950000D03*
X94937500Y-113050000D03*
X93062500Y-114000000D03*
D21*
X86000000Y-86825000D03*
X86000000Y-85175000D03*
D35*
X87525000Y-114000000D03*
X90475000Y-114000000D03*
D30*
X84000000Y-98175000D03*
X84000000Y-99825000D03*
D36*
X109550000Y-92200000D03*
X109550000Y-92600000D03*
X109550000Y-93000000D03*
X109550000Y-93400000D03*
X109550000Y-93800000D03*
D37*
X110200000Y-94450000D03*
X110600000Y-94450000D03*
X111000000Y-94450000D03*
X111400000Y-94450000D03*
X111800000Y-94450000D03*
D36*
X112450000Y-93800000D03*
X112450000Y-93400000D03*
X112450000Y-93000000D03*
X112450000Y-92600000D03*
X112450000Y-92200000D03*
D37*
X111800000Y-91550000D03*
X111400000Y-91550000D03*
X111000000Y-91550000D03*
X110600000Y-91550000D03*
X110200000Y-91550000D03*
D38*
X111000000Y-93000000D03*
D39*
X116550000Y-94937500D03*
X118450000Y-94937500D03*
X117500000Y-93062500D03*
D24*
X88062500Y-85050000D03*
X88062500Y-86950000D03*
X89937500Y-86000000D03*
D40*
X91600000Y-93700000D03*
X91600000Y-96000000D03*
D41*
X97900000Y-96000000D03*
D40*
X91600000Y-98300000D03*
D24*
X92062500Y-107550000D03*
X92062500Y-109450000D03*
X93937500Y-108500000D03*
D14*
X114460000Y-85000000D03*
D15*
X117000000Y-85000000D03*
X119540000Y-85000000D03*
D10*
X118825000Y-104500000D03*
X117175000Y-104500000D03*
X114575000Y-98250000D03*
X112925000Y-98250000D03*
D29*
X94000000Y-85525000D03*
X94000000Y-88475000D03*
D11*
X123500000Y-87500000D03*
X123500000Y-88500000D03*
X123500000Y-89500000D03*
X123500000Y-90500000D03*
X123500000Y-91500000D03*
X123500000Y-92500000D03*
X124500000Y-87500000D03*
X124500000Y-88500000D03*
X124500000Y-89500000D03*
X124500000Y-90500000D03*
X124500000Y-91500000D03*
X124500000Y-92500000D03*
X125500000Y-87500000D03*
X125500000Y-88500000D03*
X125500000Y-89500000D03*
X125500000Y-90500000D03*
X125500000Y-91500000D03*
X125500000Y-92500000D03*
D32*
X126000000Y-90000000D03*
D11*
X126500000Y-87500000D03*
X126500000Y-88500000D03*
X126500000Y-89500000D03*
X126500000Y-90500000D03*
X126500000Y-91500000D03*
X126500000Y-92500000D03*
X127500000Y-87500000D03*
X127500000Y-88500000D03*
X127500000Y-89500000D03*
X127500000Y-90500000D03*
X127500000Y-91500000D03*
X127500000Y-92500000D03*
X128500000Y-87500000D03*
X128500000Y-88500000D03*
X128500000Y-89500000D03*
X128500000Y-90500000D03*
X128500000Y-91500000D03*
X128500000Y-92500000D03*
D22*
X97937500Y-109450000D03*
X97937500Y-107550000D03*
X96062500Y-108500000D03*
D11*
X95000000Y-79500000D03*
X95000000Y-80500000D03*
X95000000Y-81500000D03*
X95000000Y-82500000D03*
X95500000Y-80000000D03*
X95500000Y-81000000D03*
X95500000Y-82000000D03*
X96000000Y-79500000D03*
X96000000Y-80500000D03*
D12*
X96000000Y-81000000D03*
D11*
X96000000Y-81500000D03*
X96000000Y-82500000D03*
X96500000Y-80000000D03*
X96500000Y-81000000D03*
X96500000Y-82000000D03*
X97000000Y-79500000D03*
X97000000Y-80500000D03*
X97000000Y-81500000D03*
X97000000Y-82500000D03*
D42*
X104000000Y-102000000D03*
X95500000Y-98500000D03*
X117500000Y-96000000D03*
X88000000Y-110500000D03*
X104500000Y-111250000D03*
X109681851Y-103972178D03*
X109750000Y-105000000D03*
X93000000Y-91500000D03*
X85000000Y-114000000D03*
X108500000Y-100110308D03*
X103000000Y-97750000D03*
X123750000Y-84750000D03*
X99000000Y-106000000D03*
X105500000Y-107500000D03*
X117500000Y-100100000D03*
X119750000Y-119250000D03*
X103000000Y-108750000D03*
X113000000Y-103750000D03*
X85500000Y-94500000D03*
X124000000Y-115000000D03*
X82250000Y-86250000D03*
X90500000Y-116500000D03*
X85250000Y-103250000D03*
X95000000Y-114000000D03*
X105750000Y-94500000D03*
X109000000Y-91500000D03*
X90750000Y-105750000D03*
X96250000Y-85500000D03*
X100500000Y-119750000D03*
X108000000Y-110482207D03*
X96750000Y-102000000D03*
X111750000Y-101000000D03*
X92750000Y-83250000D03*
X103000000Y-91250000D03*
X108000000Y-92750000D03*
X88250000Y-96750000D03*
X93250000Y-113000000D03*
X78750000Y-118250000D03*
X95500000Y-110250000D03*
X99500000Y-83250000D03*
X115250000Y-95500000D03*
X98500000Y-87400000D03*
X98750000Y-101250000D03*
X91000000Y-110500000D03*
X100451000Y-88500000D03*
X99750000Y-88500000D03*
X115500000Y-111500000D03*
X99500000Y-113050000D03*
X97750000Y-112000000D03*
X116000000Y-111000000D03*
X119625000Y-107375000D03*
X115551000Y-91000000D03*
X115862500Y-98862500D03*
X109000120Y-89500120D03*
X115551000Y-90250000D03*
X108375000Y-90125000D03*
X114000000Y-100500000D03*
X112500000Y-95500000D03*
X111000000Y-98000000D03*
X111525046Y-88390823D03*
X84000000Y-85000000D03*
X114150000Y-94000000D03*
X88500000Y-89500000D03*
X113500000Y-93400000D03*
X102500000Y-86000000D03*
X105000000Y-88500000D03*
X111000000Y-89000000D03*
X111800003Y-98000000D03*
X113500000Y-95500000D03*
X88500000Y-99500000D03*
X85750000Y-99500000D03*
X104970558Y-103470558D03*
X106250000Y-104750000D03*
X111934313Y-90434313D03*
X106566942Y-98066942D03*
X112500000Y-91000000D03*
X106750000Y-97000000D03*
D43*
X108624000Y-109626000D02*
X111726000Y-106524000D01*
X91038500Y-121001000D02*
X95570514Y-121001000D01*
X96000000Y-120571514D02*
X96000000Y-115500000D01*
D44*
X85000000Y-118500000D02*
X85000000Y-119000000D01*
D43*
X107738702Y-109626000D02*
X107740702Y-109624000D01*
D44*
X85000000Y-119000000D02*
X89037500Y-119000000D01*
X81642348Y-88475000D02*
X86750000Y-88475000D01*
X84037500Y-81000000D02*
X80624000Y-84413500D01*
D43*
X108259298Y-109624000D02*
X108261298Y-109626000D01*
X101874000Y-109626000D02*
X107738702Y-109626000D01*
X89037500Y-119000000D02*
X91038500Y-121001000D01*
D44*
X86750000Y-88475000D02*
X94000000Y-88475000D01*
D43*
X108261298Y-109626000D02*
X108624000Y-109626000D01*
D44*
X86750000Y-116750000D02*
X85000000Y-118500000D01*
D43*
X95570514Y-121001000D02*
X96000000Y-120571514D01*
X107740702Y-109624000D02*
X108259298Y-109624000D01*
D44*
X80624000Y-87456652D02*
X81642348Y-88475000D01*
D43*
X96000000Y-115500000D02*
X101874000Y-109626000D01*
X111726000Y-105549000D02*
X111677000Y-105500000D01*
D44*
X80624000Y-84413500D02*
X80624000Y-87456652D01*
D43*
X111726000Y-106524000D02*
X111726000Y-105549000D01*
D44*
X86750000Y-88475000D02*
X86750000Y-116750000D01*
D43*
X111677000Y-105500000D02*
X110850000Y-105500000D01*
D45*
X96000000Y-82000000D02*
X96000000Y-81000000D01*
D43*
X91937500Y-103825000D02*
X92062500Y-103950000D01*
D44*
X98000000Y-85525000D02*
X98000000Y-83000000D01*
D43*
X89199000Y-103024000D02*
X90000000Y-103825000D01*
X90000000Y-103825000D02*
X91937500Y-103825000D01*
X88062500Y-86950000D02*
X86125000Y-86950000D01*
D44*
X102037500Y-81000000D02*
X96000000Y-81000000D01*
D43*
X89700582Y-101250000D02*
X89199000Y-101751582D01*
D44*
X88062500Y-86950000D02*
X88313499Y-87200999D01*
X94000000Y-83000000D02*
X96000000Y-81000000D01*
X94000000Y-85525000D02*
X94000000Y-83000000D01*
D43*
X89199000Y-101751582D02*
X89199000Y-103024000D01*
D45*
X96000000Y-81500000D02*
X96000000Y-81000000D01*
D43*
X98750000Y-101250000D02*
X89700582Y-101250000D01*
X98000000Y-85525000D02*
X98000000Y-86900000D01*
D44*
X92324001Y-87200999D02*
X94000000Y-85525000D01*
D45*
X96000000Y-81000000D02*
X97000000Y-82000000D01*
D43*
X86125000Y-86950000D02*
X86000000Y-86825000D01*
X98000000Y-86900000D02*
X98500000Y-87400000D01*
D44*
X88313499Y-87200999D02*
X92324001Y-87200999D01*
X98000000Y-83000000D02*
X96000000Y-81000000D01*
X108011500Y-87001000D02*
X103956652Y-87001000D01*
D43*
X91000000Y-110500000D02*
X91000000Y-109325000D01*
D44*
X114000000Y-114475000D02*
X114000000Y-118000000D01*
X114000000Y-118000000D02*
X115000000Y-119000000D01*
X110962500Y-119000000D02*
X115000000Y-119000000D01*
X108062500Y-86950000D02*
X108011500Y-87001000D01*
D43*
X91937500Y-109325000D02*
X92062500Y-109450000D01*
X91000000Y-109325000D02*
X91937500Y-109325000D01*
D44*
X103956652Y-87001000D02*
X102482652Y-88475000D01*
D43*
X90000000Y-109325000D02*
X91000000Y-109325000D01*
D44*
X102482652Y-88475000D02*
X98000000Y-88475000D01*
X107000000Y-113175000D02*
X108650000Y-111525000D01*
X106875000Y-113050000D02*
X107000000Y-113175000D01*
D43*
X124137500Y-98862500D02*
X124500000Y-98500000D01*
X119625000Y-105125000D02*
X119000000Y-104500000D01*
D45*
X89250000Y-98275000D02*
X91575000Y-98275000D01*
X91273804Y-112000000D02*
X87749000Y-108475196D01*
D43*
X119625000Y-107375000D02*
X119625000Y-105125000D01*
D44*
X104937500Y-113050000D02*
X106875000Y-113050000D01*
X115475000Y-111525000D02*
X115500000Y-111500000D01*
X108650000Y-111525000D02*
X114000000Y-111525000D01*
D43*
X118450000Y-98862500D02*
X124137500Y-98862500D01*
D45*
X99500000Y-113050000D02*
X104937500Y-113050000D01*
X97750000Y-112000000D02*
X91273804Y-112000000D01*
X87749000Y-108475196D02*
X87749000Y-99188925D01*
D44*
X115500000Y-111500000D02*
X116000000Y-111000000D01*
D45*
X88662925Y-98275000D02*
X89250000Y-98275000D01*
D43*
X119000000Y-104500000D02*
X118825000Y-104500000D01*
X124500000Y-98500000D02*
X124500000Y-97500000D01*
D45*
X87749000Y-99188925D02*
X88662925Y-98275000D01*
D44*
X114000000Y-111525000D02*
X115475000Y-111525000D01*
D43*
X114825000Y-97000000D02*
X114575000Y-96750000D01*
D44*
X115551000Y-90231786D02*
X119540000Y-86242786D01*
D43*
X115862500Y-98862500D02*
X116550000Y-98862500D01*
D44*
X115551000Y-93938500D02*
X116550000Y-94937500D01*
D45*
X116550000Y-94937500D02*
X116550000Y-96425000D01*
X108000000Y-95275000D02*
X108000000Y-95250000D01*
X89250000Y-95275000D02*
X90875000Y-95275000D01*
D43*
X115975000Y-97000000D02*
X114825000Y-97000000D01*
D44*
X119540000Y-86242786D02*
X119540000Y-85000000D01*
D45*
X120810000Y-81000000D02*
X120810000Y-83730000D01*
D44*
X91600000Y-96000000D02*
X97900000Y-96000000D01*
X97900000Y-96000000D02*
X102500000Y-96000000D01*
D46*
X108825000Y-94450000D02*
X110200000Y-94450000D01*
D43*
X114323000Y-105000000D02*
X115150000Y-105000000D01*
X114575000Y-98250000D02*
X114575000Y-96750000D01*
D45*
X116550000Y-97575000D02*
X115975000Y-97000000D01*
D44*
X109000120Y-89500120D02*
X109000000Y-89500000D01*
D43*
X113775000Y-102000000D02*
X113775000Y-104452000D01*
D44*
X115551000Y-90250000D02*
X115551000Y-93938500D01*
X115551000Y-90250000D02*
X115551000Y-90231786D01*
D45*
X90875000Y-95275000D02*
X91600000Y-96000000D01*
D43*
X113775000Y-100725000D02*
X114000000Y-100500000D01*
D44*
X105625000Y-92875000D02*
X108999880Y-89500120D01*
D46*
X108000000Y-95275000D02*
X108825000Y-94450000D01*
D45*
X108000000Y-95250000D02*
X105625000Y-92875000D01*
D44*
X108999880Y-89500120D02*
X109000120Y-89500120D01*
D45*
X116550000Y-98862500D02*
X116550000Y-97575000D01*
X120810000Y-83730000D02*
X119540000Y-85000000D01*
X116550000Y-96425000D02*
X115975000Y-97000000D01*
D43*
X113775000Y-104452000D02*
X114323000Y-105000000D01*
D44*
X102500000Y-96000000D02*
X105625000Y-92875000D01*
D43*
X113775000Y-102000000D02*
X113775000Y-100725000D01*
D46*
X117000000Y-87650000D02*
X112450000Y-92200000D01*
X117000000Y-85000000D02*
X117000000Y-87650000D01*
X113309000Y-88191000D02*
X113309000Y-83941000D01*
X110600000Y-90900000D02*
X113309000Y-88191000D01*
X110600000Y-91550000D02*
X110600000Y-90900000D01*
X113309000Y-83941000D02*
X115730000Y-81520000D01*
X115730000Y-81520000D02*
X115730000Y-81000000D01*
X115253240Y-79849000D02*
X114500000Y-80602240D01*
X112908000Y-88024900D02*
X110200000Y-90732900D01*
X114500000Y-80602240D02*
X114500000Y-82000000D01*
X112908000Y-83592000D02*
X112908000Y-88024900D01*
X114500000Y-82000000D02*
X112908000Y-83592000D01*
X110200000Y-90732900D02*
X110200000Y-91550000D01*
X118270000Y-81000000D02*
X117119000Y-79849000D01*
X117119000Y-79849000D02*
X115253240Y-79849000D01*
D43*
X124500000Y-101500000D02*
X124500000Y-102500000D01*
X118450000Y-101137500D02*
X124137500Y-101137500D01*
X124137500Y-101137500D02*
X124500000Y-101500000D01*
X85175000Y-86000000D02*
X86000000Y-85175000D01*
X88062500Y-85050000D02*
X86125000Y-85050000D01*
X83937500Y-86000000D02*
X85175000Y-86000000D01*
X86125000Y-85050000D02*
X86000000Y-85175000D01*
D44*
X89962500Y-85975000D02*
X89937500Y-86000000D01*
X89962500Y-81000000D02*
X89962500Y-85975000D01*
X107962500Y-81000000D02*
X107962500Y-83004848D01*
X109937500Y-84979848D02*
X109937500Y-86000000D01*
X107962500Y-83004848D02*
X109937500Y-84979848D01*
D45*
X108062500Y-85050000D02*
X106125000Y-85050000D01*
X104762500Y-85175000D02*
X103937500Y-86000000D01*
X106000000Y-85175000D02*
X104762500Y-85175000D01*
X106125000Y-85050000D02*
X106000000Y-85175000D01*
D43*
X107000000Y-114825000D02*
X108237500Y-114825000D01*
X106875000Y-114950000D02*
X107000000Y-114825000D01*
X108237500Y-114825000D02*
X109062500Y-114000000D01*
X104937500Y-114950000D02*
X106875000Y-114950000D01*
D44*
X103062500Y-114000000D02*
X103062500Y-117025000D01*
X103062500Y-117025000D02*
X105037500Y-119000000D01*
D43*
X111000000Y-98000000D02*
X111000000Y-99000000D01*
D46*
X111800000Y-94800000D02*
X112500000Y-95500000D01*
D43*
X101000000Y-109000000D02*
X101000000Y-109750000D01*
X95800000Y-114950000D02*
X94937500Y-114950000D01*
D46*
X111800000Y-94450000D02*
X111800000Y-94800000D01*
D43*
X101000000Y-109750000D02*
X95800000Y-114950000D01*
X111000000Y-99000000D02*
X101000000Y-109000000D01*
D44*
X94962500Y-119000000D02*
X93062500Y-117100000D01*
X93062500Y-117100000D02*
X93062500Y-114000000D01*
D43*
X111525046Y-88390823D02*
X111008223Y-87874000D01*
X83950000Y-85050000D02*
X84000000Y-85000000D01*
X103000000Y-89500000D02*
X88500000Y-89500000D01*
X104626000Y-87874000D02*
X103000000Y-89500000D01*
X111008223Y-87874000D02*
X104626000Y-87874000D01*
X82062500Y-85050000D02*
X83950000Y-85050000D01*
D46*
X113050000Y-93800000D02*
X113250000Y-94000000D01*
X113250000Y-94000000D02*
X114150000Y-94000000D01*
X112450000Y-93800000D02*
X113050000Y-93800000D01*
X114150000Y-93971540D02*
X114121540Y-94000000D01*
D43*
X110500000Y-88500000D02*
X111000000Y-89000000D01*
D46*
X113500000Y-93400000D02*
X112450000Y-93400000D01*
D43*
X102062500Y-85050000D02*
X102062500Y-85562500D01*
X102062500Y-85562500D02*
X102500000Y-86000000D01*
X105000000Y-88500000D02*
X110500000Y-88500000D01*
D46*
X113000000Y-93000000D02*
X112450000Y-93000000D01*
D43*
X116074000Y-112426000D02*
X117000000Y-111500000D01*
X111750000Y-104935190D02*
X111750000Y-103750000D01*
D46*
X114099943Y-92750000D02*
X113250000Y-92750000D01*
D43*
X110937500Y-114950000D02*
X113461500Y-112426000D01*
D46*
X113250000Y-92750000D02*
X113000000Y-93000000D01*
D43*
X113461500Y-112426000D02*
X116074000Y-112426000D01*
D46*
X114750000Y-94250000D02*
X114750000Y-93400057D01*
D43*
X111000000Y-99801227D02*
X111800003Y-99001224D01*
X111000000Y-103000000D02*
X111000000Y-99801227D01*
X111800003Y-99001224D02*
X111800003Y-98000000D01*
D46*
X113500000Y-95500000D02*
X114750000Y-94250000D01*
D43*
X117000000Y-111500000D02*
X117000000Y-110185190D01*
D46*
X114750000Y-93400057D02*
X114099943Y-92750000D01*
D43*
X117000000Y-110185190D02*
X111750000Y-104935190D01*
X111750000Y-103750000D02*
X111000000Y-103000000D01*
X84000000Y-99825000D02*
X82675000Y-99825000D01*
X77194000Y-102176000D02*
X78095000Y-101275000D01*
X85750000Y-99500000D02*
X84801000Y-99500000D01*
X76806000Y-97824000D02*
X81905000Y-97824000D01*
X77194000Y-102176000D02*
X83324000Y-102176000D01*
X84801000Y-99500000D02*
X84801000Y-98976000D01*
X72095000Y-102095000D02*
X72176000Y-102176000D01*
X72095000Y-101275000D02*
X72095000Y-102095000D01*
X81905000Y-97824000D02*
X81905000Y-98725000D01*
X107915702Y-96240702D02*
X108675000Y-97000000D01*
X84801000Y-100699000D02*
X84801000Y-99500000D01*
X88500000Y-99500000D02*
X103250000Y-99500000D01*
X83649000Y-97824000D02*
X84000000Y-98175000D01*
X106509298Y-96240702D02*
X107915702Y-96240702D01*
X72176000Y-102176000D02*
X77194000Y-102176000D01*
X75905000Y-98725000D02*
X76806000Y-97824000D01*
X81905000Y-97824000D02*
X83649000Y-97824000D01*
X83324000Y-102176000D02*
X84801000Y-100699000D01*
X84801000Y-98976000D02*
X84000000Y-98175000D01*
X103250000Y-99500000D02*
X106509298Y-96240702D01*
X95112500Y-107550000D02*
X96062500Y-108500000D01*
X91937500Y-107675000D02*
X92062500Y-107550000D01*
X90000000Y-107675000D02*
X91937500Y-107675000D01*
X92062500Y-107550000D02*
X95112500Y-107550000D01*
X106250000Y-104750000D02*
X106925000Y-104750000D01*
X104970558Y-103470558D02*
X103378616Y-105062500D01*
X89750000Y-106500000D02*
X92500000Y-106500000D01*
X92500000Y-106500000D02*
X93937500Y-105062500D01*
X89199000Y-108098418D02*
X89199000Y-107051000D01*
X93937500Y-105062500D02*
X93937500Y-103000000D01*
X89600582Y-108500000D02*
X89199000Y-108098418D01*
X106925000Y-104750000D02*
X107175000Y-104500000D01*
X93937500Y-108500000D02*
X89600582Y-108500000D01*
X103378616Y-105062500D02*
X93937500Y-105062500D01*
X89199000Y-107051000D02*
X89750000Y-106500000D01*
D46*
X111400000Y-91550000D02*
X111400000Y-90968626D01*
D43*
X106566942Y-98066942D02*
X106566942Y-102758058D01*
X99875000Y-109450000D02*
X100000000Y-109325000D01*
X97937500Y-109450000D02*
X99875000Y-109450000D01*
X106566942Y-102758058D02*
X100000000Y-109325000D01*
D46*
X111400000Y-90968626D02*
X111934313Y-90434313D01*
D43*
X90000000Y-102175000D02*
X91937500Y-102175000D01*
X95112500Y-102050000D02*
X92062500Y-102050000D01*
X91937500Y-102175000D02*
X92062500Y-102050000D01*
X96062500Y-103000000D02*
X95112500Y-102050000D01*
X100000000Y-103750000D02*
X100000000Y-103825000D01*
X99875000Y-103950000D02*
X100000000Y-103825000D01*
D46*
X111800000Y-91550000D02*
X112350000Y-91000000D01*
D43*
X106750000Y-97000000D02*
X100000000Y-103750000D01*
D46*
X112350000Y-91000000D02*
X112500000Y-91000000D01*
D43*
X97937500Y-103950000D02*
X99875000Y-103950000D01*
X108825000Y-104500000D02*
X108825000Y-105500000D01*
X110850000Y-106000000D02*
X108825000Y-106000000D01*
X117175000Y-104500000D02*
X117175000Y-106000000D01*
X117175000Y-106000000D02*
X115150000Y-106000000D01*
D46*
X110600000Y-94450000D02*
X110600000Y-95400000D01*
X110600000Y-95400000D02*
X110325000Y-95675000D01*
X110325000Y-95675000D02*
X110325000Y-97000000D01*
X112749999Y-96750000D02*
X112925000Y-96750000D01*
X113626000Y-98490064D02*
X113626000Y-97451000D01*
X115150000Y-100000000D02*
X115150000Y-104000000D01*
X115135936Y-100000000D02*
X113626000Y-98490064D01*
X111400000Y-94450000D02*
X111400000Y-95400001D01*
X113626000Y-97451000D02*
X112925000Y-96750000D01*
X115150000Y-100000000D02*
X115135936Y-100000000D01*
X111400000Y-95400001D02*
X112749999Y-96750000D01*
X111000000Y-96325000D02*
X111000000Y-94450000D01*
X115150000Y-104500000D02*
X114425454Y-104500000D01*
X114425454Y-104500000D02*
X114299000Y-104373546D01*
X112925000Y-98425000D02*
X112925000Y-98250000D01*
X112925000Y-98250000D02*
X111000000Y-96325000D01*
X114749000Y-100251000D02*
X114750000Y-100250000D01*
X114299000Y-104373546D02*
X114299000Y-103574000D01*
X114749000Y-103124000D02*
X114749000Y-100251000D01*
X114299000Y-103574000D02*
X114749000Y-103124000D01*
X114750000Y-100250000D02*
X112925000Y-98425000D01*
D43*
X116550000Y-101137500D02*
X116026000Y-101661500D01*
X116026000Y-105451000D02*
X115977000Y-105500000D01*
X116026000Y-101661500D02*
X116026000Y-105451000D01*
X115977000Y-105500000D02*
X115150000Y-105500000D01*
X118450000Y-94937500D02*
X118450000Y-97522678D01*
X118450000Y-97522678D02*
X117500000Y-98472678D01*
X117500000Y-98472678D02*
X117500000Y-98862500D01*
G04 #@! TA.AperFunction,Conductor*
G36*
X71661145Y-102019685D02*
G01*
X71666954Y-102023655D01*
X71668348Y-102024667D01*
X71711034Y-102079980D01*
X71719500Y-102125012D01*
X71719500Y-102144435D01*
X71745090Y-102239938D01*
X71794525Y-102325562D01*
X71794526Y-102325563D01*
X71875525Y-102406562D01*
X71945438Y-102476475D01*
X72031059Y-102525908D01*
X72031062Y-102525910D01*
X72078811Y-102538705D01*
X72078812Y-102538705D01*
X72088903Y-102541408D01*
X72126564Y-102551500D01*
X72126565Y-102551500D01*
X72126566Y-102551500D01*
X83373435Y-102551500D01*
X83373436Y-102551500D01*
X83421186Y-102538705D01*
X83468938Y-102525910D01*
X83554562Y-102476475D01*
X83624475Y-102406562D01*
X83788319Y-102242718D01*
X83849642Y-102209233D01*
X83919334Y-102214217D01*
X83975267Y-102256089D01*
X83999684Y-102321553D01*
X84000000Y-102330399D01*
X84000000Y-115876000D01*
X83980315Y-115943039D01*
X83927511Y-115988794D01*
X83876000Y-116000000D01*
X75028526Y-116000000D01*
X74961487Y-115980315D01*
X74959636Y-115979102D01*
X74853275Y-115908034D01*
X74853247Y-115908017D01*
X74541276Y-115741264D01*
X74541271Y-115741262D01*
X74214436Y-115605882D01*
X73875895Y-115503188D01*
X73875884Y-115503185D01*
X73528946Y-115434176D01*
X73528929Y-115434173D01*
X73262700Y-115407952D01*
X73176881Y-115399500D01*
X72823119Y-115399500D01*
X72743748Y-115407317D01*
X72471070Y-115434173D01*
X72471053Y-115434176D01*
X72124115Y-115503185D01*
X72124104Y-115503188D01*
X71785563Y-115605882D01*
X71458728Y-115741262D01*
X71458723Y-115741264D01*
X71146752Y-115908017D01*
X71146724Y-115908034D01*
X71040364Y-115979102D01*
X70973687Y-115999980D01*
X70971474Y-116000000D01*
X70624500Y-116000000D01*
X70557461Y-115980315D01*
X70511706Y-115927511D01*
X70500500Y-115876000D01*
X70500500Y-102124000D01*
X70520185Y-102056961D01*
X70572989Y-102011206D01*
X70624500Y-102000000D01*
X71594106Y-102000000D01*
X71661145Y-102019685D01*
G37*
G04 #@! TD.AperFunction*
G04 #@! TA.AperFunction,Conductor*
G36*
X129442539Y-87019685D02*
G01*
X129488294Y-87072489D01*
X129499500Y-87124000D01*
X129499500Y-97876000D01*
X129479815Y-97943039D01*
X129427011Y-97988794D01*
X129375500Y-98000000D01*
X120124000Y-98000000D01*
X120056961Y-97980315D01*
X120011206Y-97927511D01*
X120000000Y-97876000D01*
X120000000Y-87124000D01*
X120019685Y-87056961D01*
X120072489Y-87011206D01*
X120124000Y-87000000D01*
X129375500Y-87000000D01*
X129442539Y-87019685D01*
G37*
G04 #@! TD.AperFunction*
G04 #@! TA.AperFunction,Conductor*
G36*
X75282736Y-98019685D02*
G01*
X75328491Y-98072489D01*
X75338435Y-98141647D01*
X75326182Y-98180292D01*
X75322635Y-98187253D01*
X75320279Y-98191877D01*
X75304500Y-98291506D01*
X75304500Y-99158493D01*
X75320279Y-99258121D01*
X75320280Y-99258124D01*
X75320281Y-99258126D01*
X75381472Y-99378220D01*
X75381473Y-99378221D01*
X75381476Y-99378225D01*
X75476774Y-99473523D01*
X75476778Y-99473526D01*
X75476780Y-99473528D01*
X75596874Y-99534719D01*
X75596876Y-99534719D01*
X75596878Y-99534720D01*
X75696507Y-99550500D01*
X75696512Y-99550500D01*
X76113493Y-99550500D01*
X76213121Y-99534720D01*
X76213121Y-99534719D01*
X76213126Y-99534719D01*
X76333220Y-99473528D01*
X76428528Y-99378220D01*
X76489719Y-99258126D01*
X76489720Y-99258121D01*
X76505500Y-99158493D01*
X76505500Y-98706899D01*
X76525185Y-98639860D01*
X76541819Y-98619218D01*
X76925218Y-98235819D01*
X76986541Y-98202334D01*
X77012899Y-98199500D01*
X81180500Y-98199500D01*
X81247539Y-98219185D01*
X81293294Y-98271989D01*
X81304500Y-98323500D01*
X81304500Y-99158493D01*
X81320279Y-99258121D01*
X81320280Y-99258124D01*
X81320281Y-99258126D01*
X81381472Y-99378220D01*
X81381473Y-99378221D01*
X81381476Y-99378225D01*
X81476774Y-99473523D01*
X81476778Y-99473526D01*
X81476780Y-99473528D01*
X81596874Y-99534719D01*
X81596876Y-99534719D01*
X81596878Y-99534720D01*
X81696507Y-99550500D01*
X81696512Y-99550500D01*
X82113493Y-99550500D01*
X82213121Y-99534720D01*
X82213121Y-99534719D01*
X82213126Y-99534719D01*
X82333220Y-99473528D01*
X82428528Y-99378220D01*
X82489719Y-99258126D01*
X82489720Y-99258121D01*
X82505500Y-99158493D01*
X82505500Y-98323500D01*
X82508050Y-98314814D01*
X82506762Y-98305853D01*
X82517740Y-98281812D01*
X82525185Y-98256461D01*
X82532025Y-98250533D01*
X82535787Y-98242297D01*
X82558021Y-98228007D01*
X82577989Y-98210706D01*
X82588503Y-98208418D01*
X82594565Y-98204523D01*
X82629500Y-98199500D01*
X82876000Y-98199500D01*
X82943039Y-98219185D01*
X82988794Y-98271989D01*
X83000000Y-98323500D01*
X83000000Y-101676500D01*
X82980315Y-101743539D01*
X82927511Y-101789294D01*
X82876000Y-101800500D01*
X78819500Y-101800500D01*
X78752461Y-101780815D01*
X78706706Y-101728011D01*
X78695500Y-101676500D01*
X78695500Y-100841506D01*
X78679720Y-100741878D01*
X78679719Y-100741876D01*
X78679719Y-100741874D01*
X78618528Y-100621780D01*
X78618526Y-100621778D01*
X78618523Y-100621774D01*
X78523225Y-100526476D01*
X78523221Y-100526473D01*
X78523220Y-100526472D01*
X78403126Y-100465281D01*
X78403124Y-100465280D01*
X78403121Y-100465279D01*
X78303493Y-100449500D01*
X78303488Y-100449500D01*
X77886512Y-100449500D01*
X77886507Y-100449500D01*
X77786878Y-100465279D01*
X77666778Y-100526473D01*
X77666774Y-100526476D01*
X77571476Y-100621774D01*
X77571473Y-100621778D01*
X77510279Y-100741878D01*
X77494500Y-100841506D01*
X77494500Y-101293101D01*
X77474815Y-101360140D01*
X77458181Y-101380782D01*
X77074782Y-101764181D01*
X77013459Y-101797666D01*
X76987101Y-101800500D01*
X72819500Y-101800500D01*
X72752461Y-101780815D01*
X72706706Y-101728011D01*
X72695500Y-101676500D01*
X72695500Y-100841506D01*
X72679720Y-100741878D01*
X72679719Y-100741876D01*
X72679719Y-100741874D01*
X72618528Y-100621780D01*
X72618526Y-100621778D01*
X72618523Y-100621774D01*
X72523225Y-100526476D01*
X72523221Y-100526473D01*
X72523220Y-100526472D01*
X72403126Y-100465281D01*
X72403124Y-100465280D01*
X72403121Y-100465279D01*
X72303493Y-100449500D01*
X72303488Y-100449500D01*
X71886512Y-100449500D01*
X71886507Y-100449500D01*
X71786878Y-100465279D01*
X71666778Y-100526473D01*
X71666774Y-100526476D01*
X71571476Y-100621774D01*
X71571473Y-100621778D01*
X71510279Y-100741878D01*
X71494500Y-100841506D01*
X71494500Y-101620500D01*
X71491949Y-101629185D01*
X71493238Y-101638147D01*
X71482259Y-101662187D01*
X71474815Y-101687539D01*
X71467974Y-101693466D01*
X71464213Y-101701703D01*
X71441978Y-101715992D01*
X71422011Y-101733294D01*
X71411496Y-101735581D01*
X71405435Y-101739477D01*
X71370500Y-101744500D01*
X71124000Y-101744500D01*
X71056961Y-101724815D01*
X71011206Y-101672011D01*
X71000000Y-101620500D01*
X71000000Y-98124000D01*
X71019685Y-98056961D01*
X71072489Y-98011206D01*
X71124000Y-98000000D01*
X75215697Y-98000000D01*
X75282736Y-98019685D01*
G37*
G04 #@! TD.AperFunction*
G04 #@! TA.AperFunction,Conductor*
G36*
X129442539Y-102019685D02*
G01*
X129488294Y-102072489D01*
X129499500Y-102124000D01*
X129499500Y-112876000D01*
X129479815Y-112943039D01*
X129427011Y-112988794D01*
X129375500Y-113000000D01*
X120124000Y-113000000D01*
X120056961Y-112980315D01*
X120011206Y-112927511D01*
X120000000Y-112876000D01*
X120000000Y-107829886D01*
X120019685Y-107762847D01*
X120036319Y-107742205D01*
X120065509Y-107713015D01*
X120137984Y-107587485D01*
X120175500Y-107447475D01*
X120175500Y-107302525D01*
X120137984Y-107162515D01*
X120065509Y-107036985D01*
X120036819Y-107008295D01*
X120003334Y-106946972D01*
X120000500Y-106920614D01*
X120000500Y-105071272D01*
X120000000Y-105063642D01*
X120000000Y-102124000D01*
X120019685Y-102056961D01*
X120072489Y-102011206D01*
X120124000Y-102000000D01*
X129375500Y-102000000D01*
X129442539Y-102019685D01*
G37*
G04 #@! TD.AperFunction*
G04 #@! TA.AperFunction,Conductor*
G36*
X85384869Y-99844407D02*
G01*
X85396681Y-99854496D01*
X85442684Y-99900499D01*
X85442690Y-99900503D01*
X85556810Y-99966390D01*
X85556808Y-99966390D01*
X85556812Y-99966391D01*
X85556814Y-99966392D01*
X85684108Y-100000500D01*
X85684110Y-100000500D01*
X85815890Y-100000500D01*
X85815892Y-100000500D01*
X85924879Y-99971297D01*
X85985978Y-99974500D01*
X86033528Y-100013005D01*
X86049500Y-100066924D01*
X86049500Y-116418835D01*
X86030593Y-116477026D01*
X86020504Y-116488839D01*
X85738839Y-116770504D01*
X85684322Y-116798281D01*
X85668835Y-116799500D01*
X83837279Y-116799500D01*
X83724767Y-116814312D01*
X83724761Y-116814314D01*
X83584768Y-116872301D01*
X83464551Y-116964547D01*
X83464547Y-116964551D01*
X83372301Y-117084768D01*
X83314314Y-117224761D01*
X83314312Y-117224767D01*
X83299500Y-117337279D01*
X83299500Y-120662720D01*
X83314312Y-120775232D01*
X83314314Y-120775238D01*
X83355843Y-120875499D01*
X83372302Y-120915233D01*
X83464549Y-121035451D01*
X83584767Y-121127698D01*
X83724764Y-121185687D01*
X83837280Y-121200500D01*
X83837281Y-121200500D01*
X86162719Y-121200500D01*
X86162720Y-121200500D01*
X86275236Y-121185687D01*
X86415233Y-121127698D01*
X86535451Y-121035451D01*
X86627698Y-120915233D01*
X86685687Y-120775236D01*
X86700500Y-120662720D01*
X86700500Y-119799500D01*
X86719407Y-119741309D01*
X86768907Y-119705345D01*
X86799500Y-119700500D01*
X88125500Y-119700500D01*
X88183691Y-119719407D01*
X88219655Y-119768907D01*
X88224500Y-119799500D01*
X88224500Y-120479274D01*
X88227353Y-120509694D01*
X88227355Y-120509703D01*
X88272207Y-120637883D01*
X88352845Y-120747144D01*
X88352847Y-120747146D01*
X88352850Y-120747150D01*
X88352853Y-120747152D01*
X88352855Y-120747154D01*
X88462116Y-120827792D01*
X88462117Y-120827792D01*
X88462118Y-120827793D01*
X88590301Y-120872646D01*
X88620725Y-120875499D01*
X88620727Y-120875500D01*
X88620734Y-120875500D01*
X89454273Y-120875500D01*
X89454273Y-120875499D01*
X89484699Y-120872646D01*
X89612882Y-120827793D01*
X89722150Y-120747150D01*
X89802793Y-120637882D01*
X89847646Y-120509699D01*
X89848494Y-120500655D01*
X89872748Y-120444485D01*
X89925388Y-120413297D01*
X89986306Y-120419007D01*
X90017065Y-120439892D01*
X90778035Y-121200862D01*
X90778034Y-121200862D01*
X90838635Y-121261462D01*
X90838638Y-121261465D01*
X90912862Y-121304318D01*
X90914936Y-121304873D01*
X90916225Y-121305710D01*
X90918857Y-121306801D01*
X90918654Y-121307288D01*
X90966250Y-121338198D01*
X90988176Y-121395319D01*
X90972340Y-121454420D01*
X90924790Y-121492925D01*
X90889312Y-121499500D01*
X75815795Y-121499500D01*
X75757604Y-121480593D01*
X75721640Y-121431093D01*
X75721640Y-121369907D01*
X75739267Y-121337695D01*
X75766660Y-121304316D01*
X75895436Y-121147402D01*
X76091976Y-120853259D01*
X76258739Y-120541269D01*
X76394118Y-120214435D01*
X76496809Y-119875905D01*
X76565825Y-119528940D01*
X76600500Y-119176881D01*
X76600500Y-118823119D01*
X76565825Y-118471060D01*
X76496809Y-118124095D01*
X76482878Y-118078170D01*
X76394121Y-117785573D01*
X76284419Y-117520727D01*
X76258739Y-117458731D01*
X76091976Y-117146741D01*
X75895436Y-116852598D01*
X75671012Y-116579136D01*
X75516377Y-116424501D01*
X75488602Y-116369987D01*
X75498173Y-116309555D01*
X75541438Y-116266290D01*
X75586383Y-116255500D01*
X83875996Y-116255500D01*
X83876000Y-116255500D01*
X83930313Y-116249661D01*
X83981824Y-116238455D01*
X84008198Y-116231219D01*
X84010557Y-116229876D01*
X84094821Y-116181892D01*
X84094821Y-116181891D01*
X84094828Y-116181888D01*
X84147632Y-116136133D01*
X84179257Y-116103359D01*
X84225465Y-116015024D01*
X84245150Y-115947985D01*
X84251360Y-115904794D01*
X84255500Y-115876004D01*
X84255500Y-102330393D01*
X84255485Y-102329564D01*
X84255337Y-102321278D01*
X84255021Y-102312432D01*
X84239074Y-102232264D01*
X84214657Y-102166800D01*
X84214651Y-102166787D01*
X84214647Y-102166778D01*
X84195007Y-102125726D01*
X84195003Y-102125720D01*
X84195002Y-102125718D01*
X84161693Y-102088635D01*
X84128387Y-102051555D01*
X84128386Y-102051554D01*
X84128385Y-102051553D01*
X84110286Y-102038004D01*
X84094253Y-102026001D01*
X84059001Y-101975992D01*
X84059877Y-101914812D01*
X84083578Y-101876747D01*
X85061465Y-100898862D01*
X85095816Y-100839364D01*
X85104318Y-100824638D01*
X85126500Y-100741853D01*
X85126500Y-99924500D01*
X85131345Y-99909588D01*
X85131345Y-99893907D01*
X85140561Y-99881221D01*
X85145407Y-99866309D01*
X85158092Y-99857092D01*
X85167309Y-99844407D01*
X85182221Y-99839561D01*
X85194907Y-99830345D01*
X85225500Y-99825500D01*
X85326678Y-99825500D01*
X85384869Y-99844407D01*
G37*
G04 #@! TD.AperFunction*
G04 #@! TA.AperFunction,Conductor*
G36*
X115308443Y-97344407D02*
G01*
X115338462Y-97379555D01*
X115340280Y-97383124D01*
X115340281Y-97383126D01*
X115401472Y-97503220D01*
X115496780Y-97598528D01*
X115496782Y-97598529D01*
X115616867Y-97659716D01*
X115616869Y-97659716D01*
X115616874Y-97659719D01*
X115692541Y-97671703D01*
X115716510Y-97675500D01*
X115716512Y-97675500D01*
X115972389Y-97675500D01*
X115979986Y-97677968D01*
X115987874Y-97676719D01*
X116008527Y-97687241D01*
X116030580Y-97694407D01*
X116042391Y-97704495D01*
X116070502Y-97732605D01*
X116098281Y-97787121D01*
X116099500Y-97802610D01*
X116099500Y-98143731D01*
X116089441Y-98187211D01*
X116059426Y-98248606D01*
X116054653Y-98281365D01*
X116027552Y-98336221D01*
X115973384Y-98364671D01*
X115931072Y-98362718D01*
X115928392Y-98362000D01*
X115796608Y-98362000D01*
X115720794Y-98382314D01*
X115669309Y-98396109D01*
X115555190Y-98461996D01*
X115461996Y-98555190D01*
X115396109Y-98669309D01*
X115380609Y-98727158D01*
X115362000Y-98796608D01*
X115362000Y-98928392D01*
X115385313Y-99015399D01*
X115396109Y-99055690D01*
X115461996Y-99169809D01*
X115461998Y-99169811D01*
X115462000Y-99169814D01*
X115555186Y-99263000D01*
X115555188Y-99263001D01*
X115555190Y-99263003D01*
X115669310Y-99328890D01*
X115669308Y-99328890D01*
X115669312Y-99328891D01*
X115669314Y-99328892D01*
X115796608Y-99363000D01*
X115796610Y-99363000D01*
X115928392Y-99363000D01*
X115931060Y-99362285D01*
X115933037Y-99362388D01*
X115934826Y-99362153D01*
X115934869Y-99362484D01*
X115992161Y-99365484D01*
X116039713Y-99403986D01*
X116054653Y-99443634D01*
X116059426Y-99476393D01*
X116110801Y-99581481D01*
X116110802Y-99581483D01*
X116193517Y-99664198D01*
X116247285Y-99690483D01*
X116298604Y-99715572D01*
X116298605Y-99715572D01*
X116298607Y-99715573D01*
X116366740Y-99725500D01*
X116366743Y-99725500D01*
X116733257Y-99725500D01*
X116733260Y-99725500D01*
X116801393Y-99715573D01*
X116906483Y-99664198D01*
X116954998Y-99615682D01*
X117009513Y-99587907D01*
X117069945Y-99597478D01*
X117095000Y-99615681D01*
X117143517Y-99664198D01*
X117197285Y-99690483D01*
X117248604Y-99715572D01*
X117248605Y-99715572D01*
X117248607Y-99715573D01*
X117316740Y-99725500D01*
X117316743Y-99725500D01*
X117683257Y-99725500D01*
X117683260Y-99725500D01*
X117751393Y-99715573D01*
X117856483Y-99664198D01*
X117904998Y-99615682D01*
X117959513Y-99587907D01*
X118019945Y-99597478D01*
X118045000Y-99615681D01*
X118093517Y-99664198D01*
X118147285Y-99690483D01*
X118198604Y-99715572D01*
X118198605Y-99715572D01*
X118198607Y-99715573D01*
X118266740Y-99725500D01*
X118266743Y-99725500D01*
X118633257Y-99725500D01*
X118633260Y-99725500D01*
X118701393Y-99715573D01*
X118806483Y-99664198D01*
X118889198Y-99581483D01*
X118940573Y-99476393D01*
X118950500Y-99408260D01*
X118950500Y-99287000D01*
X118969407Y-99228809D01*
X119018907Y-99192845D01*
X119049500Y-99188000D01*
X124180351Y-99188000D01*
X124180353Y-99188000D01*
X124263139Y-99165818D01*
X124263141Y-99165816D01*
X124263143Y-99165816D01*
X124337357Y-99122968D01*
X124337357Y-99122967D01*
X124337362Y-99122965D01*
X124760465Y-98699862D01*
X124789077Y-98650304D01*
X124803318Y-98625638D01*
X124825500Y-98542853D01*
X124825500Y-98354500D01*
X124844407Y-98296309D01*
X124893907Y-98260345D01*
X124924500Y-98255500D01*
X129375497Y-98255500D01*
X129375500Y-98255500D01*
X129389915Y-98253950D01*
X129449793Y-98266526D01*
X129490844Y-98311897D01*
X129499500Y-98352382D01*
X129499500Y-101648076D01*
X129480593Y-101706267D01*
X129431093Y-101742231D01*
X129386411Y-101746068D01*
X129375505Y-101744500D01*
X129375500Y-101744500D01*
X124924500Y-101744500D01*
X124866309Y-101725593D01*
X124830345Y-101676093D01*
X124825500Y-101645500D01*
X124825500Y-101457148D01*
X124825500Y-101457147D01*
X124803318Y-101374362D01*
X124760465Y-101300138D01*
X124759952Y-101299625D01*
X124699863Y-101239535D01*
X124337362Y-100877035D01*
X124337357Y-100877031D01*
X124263142Y-100834183D01*
X124263144Y-100834183D01*
X124231021Y-100825576D01*
X124180353Y-100812000D01*
X124180351Y-100812000D01*
X119049500Y-100812000D01*
X118991309Y-100793093D01*
X118955345Y-100743593D01*
X118950500Y-100713000D01*
X118950500Y-100591743D01*
X118950500Y-100591740D01*
X118940573Y-100523607D01*
X118940356Y-100523164D01*
X118911461Y-100464057D01*
X118889198Y-100418517D01*
X118806483Y-100335802D01*
X118806481Y-100335801D01*
X118701395Y-100284427D01*
X118674139Y-100280456D01*
X118633260Y-100274500D01*
X118266740Y-100274500D01*
X118232673Y-100279463D01*
X118198604Y-100284427D01*
X118093518Y-100335801D01*
X118010801Y-100418518D01*
X117959427Y-100523604D01*
X117955410Y-100551179D01*
X117949500Y-100591740D01*
X117949500Y-101683260D01*
X117954345Y-101716510D01*
X117959427Y-101751395D01*
X117992046Y-101818117D01*
X118010802Y-101856483D01*
X118093517Y-101939198D01*
X118147285Y-101965483D01*
X118198604Y-101990572D01*
X118198605Y-101990572D01*
X118198607Y-101990573D01*
X118266740Y-102000500D01*
X118266743Y-102000500D01*
X118633257Y-102000500D01*
X118633260Y-102000500D01*
X118701393Y-101990573D01*
X118806483Y-101939198D01*
X118889198Y-101856483D01*
X118940573Y-101751393D01*
X118950500Y-101683260D01*
X118950500Y-101562000D01*
X118969407Y-101503809D01*
X119018907Y-101467845D01*
X119049500Y-101463000D01*
X123961665Y-101463000D01*
X123969262Y-101465468D01*
X123977152Y-101464219D01*
X123997807Y-101474743D01*
X124019856Y-101481907D01*
X124031669Y-101491996D01*
X124115169Y-101575496D01*
X124142946Y-101630013D01*
X124133375Y-101690445D01*
X124090110Y-101733710D01*
X124045165Y-101744500D01*
X120124000Y-101744500D01*
X120077750Y-101749472D01*
X120069677Y-101750340D01*
X120018203Y-101761538D01*
X120018153Y-101761550D01*
X119991803Y-101768780D01*
X119991797Y-101768782D01*
X119905178Y-101818107D01*
X119905165Y-101818117D01*
X119852383Y-101863852D01*
X119852373Y-101863861D01*
X119820742Y-101896641D01*
X119820740Y-101896644D01*
X119774535Y-101984974D01*
X119774533Y-101984979D01*
X119754853Y-102052002D01*
X119754849Y-102052020D01*
X119744500Y-102123995D01*
X119744500Y-104545165D01*
X119737336Y-104567212D01*
X119733710Y-104590110D01*
X119728061Y-104595758D01*
X119725593Y-104603356D01*
X119706836Y-104616983D01*
X119690445Y-104633375D01*
X119682555Y-104634624D01*
X119676093Y-104639320D01*
X119652908Y-104639320D01*
X119630013Y-104642946D01*
X119622896Y-104639320D01*
X119614907Y-104639320D01*
X119575496Y-104615169D01*
X119454495Y-104494168D01*
X119426718Y-104439651D01*
X119425499Y-104424164D01*
X119425499Y-104193478D01*
X119425498Y-104193476D01*
X119410647Y-104099700D01*
X119410646Y-104099698D01*
X119410646Y-104099696D01*
X119353050Y-103986658D01*
X119263342Y-103896950D01*
X119150304Y-103839354D01*
X119150305Y-103839354D01*
X119056522Y-103824500D01*
X118593479Y-103824500D01*
X118593476Y-103824501D01*
X118499700Y-103839352D01*
X118499695Y-103839354D01*
X118386659Y-103896949D01*
X118296949Y-103986659D01*
X118239354Y-104099695D01*
X118224500Y-104193477D01*
X118224500Y-104806520D01*
X118224501Y-104806523D01*
X118239352Y-104900299D01*
X118239354Y-104900304D01*
X118296950Y-105013342D01*
X118386658Y-105103050D01*
X118499696Y-105160646D01*
X118593481Y-105175500D01*
X119056518Y-105175499D01*
X119056520Y-105175499D01*
X119083846Y-105171170D01*
X119143659Y-105161698D01*
X119159144Y-105164150D01*
X119174631Y-105161698D01*
X119188601Y-105168816D01*
X119204089Y-105171269D01*
X119229148Y-105189475D01*
X119270504Y-105230831D01*
X119298281Y-105285348D01*
X119299500Y-105300835D01*
X119299500Y-106951678D01*
X119280593Y-107009869D01*
X119270504Y-107021681D01*
X119224500Y-107067684D01*
X119224496Y-107067690D01*
X119158609Y-107181809D01*
X119158608Y-107181814D01*
X119124500Y-107309108D01*
X119124500Y-107440892D01*
X119154579Y-107553151D01*
X119158609Y-107568190D01*
X119224496Y-107682309D01*
X119224498Y-107682311D01*
X119224500Y-107682314D01*
X119317686Y-107775500D01*
X119317688Y-107775501D01*
X119317690Y-107775503D01*
X119431810Y-107841390D01*
X119431808Y-107841390D01*
X119431812Y-107841391D01*
X119431814Y-107841392D01*
X119559108Y-107875500D01*
X119559110Y-107875500D01*
X119645500Y-107875500D01*
X119703691Y-107894407D01*
X119739655Y-107943907D01*
X119744500Y-107974500D01*
X119744500Y-112875996D01*
X119744499Y-112875996D01*
X119750340Y-112930322D01*
X119761538Y-112981796D01*
X119761550Y-112981846D01*
X119768780Y-113008196D01*
X119768782Y-113008202D01*
X119818107Y-113094821D01*
X119818117Y-113094834D01*
X119863852Y-113147616D01*
X119863861Y-113147626D01*
X119896641Y-113179257D01*
X119896644Y-113179259D01*
X119984974Y-113225464D01*
X119984976Y-113225465D01*
X120052015Y-113245150D01*
X120092006Y-113250900D01*
X120123996Y-113255500D01*
X120124000Y-113255500D01*
X129375497Y-113255500D01*
X129375500Y-113255500D01*
X129389915Y-113253950D01*
X129449793Y-113266526D01*
X129490844Y-113311897D01*
X129499500Y-113352382D01*
X129499500Y-116184205D01*
X129480593Y-116242396D01*
X129431093Y-116278360D01*
X129369907Y-116278360D01*
X129337695Y-116260733D01*
X129147403Y-116104565D01*
X129145598Y-116103359D01*
X128913056Y-115947979D01*
X128853267Y-115908029D01*
X128853264Y-115908027D01*
X128853259Y-115908024D01*
X128541269Y-115741261D01*
X128541263Y-115741258D01*
X128541260Y-115741257D01*
X128214426Y-115605878D01*
X127875907Y-115503191D01*
X127608839Y-115450068D01*
X127528940Y-115434175D01*
X127528938Y-115434174D01*
X127271576Y-115408826D01*
X127176881Y-115399500D01*
X126823119Y-115399500D01*
X126719097Y-115409745D01*
X126471063Y-115434174D01*
X126124092Y-115503191D01*
X125785573Y-115605878D01*
X125458739Y-115741257D01*
X125458721Y-115741266D01*
X125257267Y-115848946D01*
X125206654Y-115876000D01*
X125146732Y-115908029D01*
X124852596Y-116104565D01*
X124579141Y-116328983D01*
X124328983Y-116579141D01*
X124104565Y-116852596D01*
X123908029Y-117146732D01*
X123908024Y-117146739D01*
X123908024Y-117146741D01*
X123894412Y-117172207D01*
X123741266Y-117458721D01*
X123741257Y-117458739D01*
X123605878Y-117785573D01*
X123503191Y-118124092D01*
X123434174Y-118471063D01*
X123407076Y-118746194D01*
X123399500Y-118823119D01*
X123399500Y-119176881D01*
X123402090Y-119203177D01*
X123434174Y-119528936D01*
X123503191Y-119875907D01*
X123605878Y-120214426D01*
X123736039Y-120528661D01*
X123741261Y-120541269D01*
X123908024Y-120853259D01*
X123908027Y-120853264D01*
X123908029Y-120853267D01*
X124008271Y-121003289D01*
X124104564Y-121147402D01*
X124148140Y-121200500D01*
X124260733Y-121337695D01*
X124283033Y-121394672D01*
X124267584Y-121453875D01*
X124220287Y-121492690D01*
X124184205Y-121499500D01*
X95719703Y-121499500D01*
X95661512Y-121480593D01*
X95625548Y-121431093D01*
X95625548Y-121369907D01*
X95661512Y-121320407D01*
X95694077Y-121304874D01*
X95696153Y-121304318D01*
X95696155Y-121304316D01*
X95696157Y-121304316D01*
X95770371Y-121261468D01*
X95770371Y-121261467D01*
X95770376Y-121261465D01*
X96260465Y-120771376D01*
X96274452Y-120747150D01*
X96303316Y-120697157D01*
X96303316Y-120697155D01*
X96303318Y-120697153D01*
X96325500Y-120614367D01*
X96325500Y-120528661D01*
X96325500Y-115675834D01*
X96344407Y-115617643D01*
X96354490Y-115605836D01*
X98845482Y-113114843D01*
X98899997Y-113087068D01*
X98960429Y-113096639D01*
X99003694Y-113139904D01*
X99011110Y-113159224D01*
X99033608Y-113243186D01*
X99033609Y-113243188D01*
X99033610Y-113243191D01*
X99099496Y-113357309D01*
X99099498Y-113357311D01*
X99099500Y-113357314D01*
X99192686Y-113450500D01*
X99192688Y-113450501D01*
X99192690Y-113450503D01*
X99306810Y-113516390D01*
X99306808Y-113516390D01*
X99306812Y-113516391D01*
X99306814Y-113516392D01*
X99434108Y-113550500D01*
X99434110Y-113550500D01*
X99565890Y-113550500D01*
X99565892Y-113550500D01*
X99693186Y-113516392D01*
X99697741Y-113513761D01*
X99747239Y-113500500D01*
X102097124Y-113500500D01*
X102155315Y-113519407D01*
X102191279Y-113568907D01*
X102191279Y-113630093D01*
X102186065Y-113642981D01*
X102185803Y-113643515D01*
X102185802Y-113643517D01*
X102160382Y-113695513D01*
X102134427Y-113748605D01*
X102132178Y-113764043D01*
X102124500Y-113816740D01*
X102124500Y-114183260D01*
X102130509Y-114224500D01*
X102134427Y-114251395D01*
X102185801Y-114356481D01*
X102185802Y-114356483D01*
X102268517Y-114439198D01*
X102268518Y-114439198D01*
X102268519Y-114439199D01*
X102306479Y-114457756D01*
X102350454Y-114500298D01*
X102362000Y-114546697D01*
X102362000Y-117093996D01*
X102388920Y-117229327D01*
X102388920Y-117229329D01*
X102441723Y-117356808D01*
X102509830Y-117458739D01*
X102518386Y-117471543D01*
X104195505Y-119148662D01*
X104223281Y-119203177D01*
X104224500Y-119218664D01*
X104224500Y-120479274D01*
X104227353Y-120509694D01*
X104227355Y-120509703D01*
X104272207Y-120637883D01*
X104352845Y-120747144D01*
X104352847Y-120747146D01*
X104352850Y-120747150D01*
X104352853Y-120747152D01*
X104352855Y-120747154D01*
X104462116Y-120827792D01*
X104462117Y-120827792D01*
X104462118Y-120827793D01*
X104590301Y-120872646D01*
X104620725Y-120875499D01*
X104620727Y-120875500D01*
X104620734Y-120875500D01*
X105454273Y-120875500D01*
X105454273Y-120875499D01*
X105484699Y-120872646D01*
X105612882Y-120827793D01*
X105722150Y-120747150D01*
X105802793Y-120637882D01*
X105847646Y-120509699D01*
X105850499Y-120479273D01*
X105850500Y-120479273D01*
X105850500Y-117520727D01*
X105850499Y-117520725D01*
X110149500Y-117520725D01*
X110149500Y-120479274D01*
X110152353Y-120509694D01*
X110152355Y-120509703D01*
X110197207Y-120637883D01*
X110277845Y-120747144D01*
X110277847Y-120747146D01*
X110277850Y-120747150D01*
X110277853Y-120747152D01*
X110277855Y-120747154D01*
X110387116Y-120827792D01*
X110387117Y-120827792D01*
X110387118Y-120827793D01*
X110515301Y-120872646D01*
X110545725Y-120875499D01*
X110545727Y-120875500D01*
X110545734Y-120875500D01*
X111379273Y-120875500D01*
X111379273Y-120875499D01*
X111409699Y-120872646D01*
X111537882Y-120827793D01*
X111647150Y-120747150D01*
X111727793Y-120637882D01*
X111772646Y-120509699D01*
X111775499Y-120479273D01*
X111775500Y-120479273D01*
X111775500Y-119799500D01*
X111794407Y-119741309D01*
X111843907Y-119705345D01*
X111874500Y-119700500D01*
X113200500Y-119700500D01*
X113258691Y-119719407D01*
X113294655Y-119768907D01*
X113299500Y-119799500D01*
X113299500Y-120662720D01*
X113314312Y-120775232D01*
X113314314Y-120775238D01*
X113355843Y-120875499D01*
X113372302Y-120915233D01*
X113464549Y-121035451D01*
X113584767Y-121127698D01*
X113724764Y-121185687D01*
X113837280Y-121200500D01*
X113837281Y-121200500D01*
X116162719Y-121200500D01*
X116162720Y-121200500D01*
X116275236Y-121185687D01*
X116415233Y-121127698D01*
X116535451Y-121035451D01*
X116627698Y-120915233D01*
X116685687Y-120775236D01*
X116700500Y-120662720D01*
X116700500Y-117337280D01*
X116685687Y-117224764D01*
X116627698Y-117084767D01*
X116535451Y-116964549D01*
X116415233Y-116872302D01*
X116275236Y-116814313D01*
X116275234Y-116814312D01*
X116275232Y-116814312D01*
X116162720Y-116799500D01*
X114799500Y-116799500D01*
X114741309Y-116780593D01*
X114705345Y-116731093D01*
X114700500Y-116700500D01*
X114700500Y-115329857D01*
X114719407Y-115271666D01*
X114766802Y-115236413D01*
X114795911Y-115226226D01*
X114862882Y-115202793D01*
X114972150Y-115122150D01*
X115052793Y-115012882D01*
X115097646Y-114884699D01*
X115100499Y-114854273D01*
X115100500Y-114854273D01*
X115100500Y-114095727D01*
X115100499Y-114095725D01*
X115097646Y-114065305D01*
X115097646Y-114065301D01*
X115052793Y-113937118D01*
X115007316Y-113875499D01*
X114972154Y-113827855D01*
X114972152Y-113827853D01*
X114972150Y-113827850D01*
X114972146Y-113827847D01*
X114972144Y-113827845D01*
X114862883Y-113747207D01*
X114734703Y-113702355D01*
X114734694Y-113702353D01*
X114704274Y-113699500D01*
X114704266Y-113699500D01*
X113295734Y-113699500D01*
X113295725Y-113699500D01*
X113265305Y-113702353D01*
X113265296Y-113702355D01*
X113137116Y-113747207D01*
X113027855Y-113827845D01*
X113027845Y-113827855D01*
X112947207Y-113937116D01*
X112902355Y-114065296D01*
X112902353Y-114065305D01*
X112899500Y-114095725D01*
X112899500Y-114854274D01*
X112902353Y-114884694D01*
X112902355Y-114884703D01*
X112947207Y-115012883D01*
X113027845Y-115122144D01*
X113027847Y-115122146D01*
X113027850Y-115122150D01*
X113027853Y-115122152D01*
X113027855Y-115122154D01*
X113137116Y-115202792D01*
X113137117Y-115202792D01*
X113137118Y-115202793D01*
X113142154Y-115204555D01*
X113233198Y-115236413D01*
X113281878Y-115273478D01*
X113299500Y-115329857D01*
X113299500Y-118200500D01*
X113280593Y-118258691D01*
X113231093Y-118294655D01*
X113200500Y-118299500D01*
X111874500Y-118299500D01*
X111816309Y-118280593D01*
X111780345Y-118231093D01*
X111775500Y-118200500D01*
X111775500Y-117520727D01*
X111775499Y-117520725D01*
X111772646Y-117490305D01*
X111772646Y-117490301D01*
X111727793Y-117362118D01*
X111723876Y-117356811D01*
X111647154Y-117252855D01*
X111647152Y-117252853D01*
X111647150Y-117252850D01*
X111647146Y-117252847D01*
X111647144Y-117252845D01*
X111537883Y-117172207D01*
X111409703Y-117127355D01*
X111409694Y-117127353D01*
X111379274Y-117124500D01*
X111379266Y-117124500D01*
X110545734Y-117124500D01*
X110545725Y-117124500D01*
X110515305Y-117127353D01*
X110515296Y-117127355D01*
X110387116Y-117172207D01*
X110277855Y-117252845D01*
X110277845Y-117252855D01*
X110197207Y-117362116D01*
X110152355Y-117490296D01*
X110152353Y-117490305D01*
X110149500Y-117520725D01*
X105850499Y-117520725D01*
X105847646Y-117490305D01*
X105847646Y-117490301D01*
X105802793Y-117362118D01*
X105798876Y-117356811D01*
X105722154Y-117252855D01*
X105722152Y-117252853D01*
X105722150Y-117252850D01*
X105722146Y-117252847D01*
X105722144Y-117252845D01*
X105612883Y-117172207D01*
X105484703Y-117127355D01*
X105484694Y-117127353D01*
X105454274Y-117124500D01*
X105454266Y-117124500D01*
X104620734Y-117124500D01*
X104620725Y-117124500D01*
X104590305Y-117127353D01*
X104590296Y-117127355D01*
X104462116Y-117172207D01*
X104380063Y-117232765D01*
X104322015Y-117252107D01*
X104263685Y-117233635D01*
X104251271Y-117223114D01*
X103791996Y-116763839D01*
X103764219Y-116709322D01*
X103763000Y-116693835D01*
X103763000Y-114766740D01*
X103999500Y-114766740D01*
X103999500Y-115133260D01*
X104000673Y-115141309D01*
X104009427Y-115201395D01*
X104043781Y-115271666D01*
X104060802Y-115306483D01*
X104143517Y-115389198D01*
X104187388Y-115410645D01*
X104248604Y-115440572D01*
X104248605Y-115440572D01*
X104248607Y-115440573D01*
X104316740Y-115450500D01*
X104316743Y-115450500D01*
X105558257Y-115450500D01*
X105558260Y-115450500D01*
X105626393Y-115440573D01*
X105731483Y-115389198D01*
X105814198Y-115306483D01*
X105814198Y-115306480D01*
X105816184Y-115304496D01*
X105870701Y-115276719D01*
X105886188Y-115275500D01*
X106368100Y-115275500D01*
X106426291Y-115294407D01*
X106438103Y-115304496D01*
X106463465Y-115329857D01*
X106486658Y-115353050D01*
X106599696Y-115410646D01*
X106693481Y-115425500D01*
X107306518Y-115425499D01*
X107306520Y-115425499D01*
X107306521Y-115425498D01*
X107353411Y-115418072D01*
X107400299Y-115410647D01*
X107400299Y-115410646D01*
X107400304Y-115410646D01*
X107513342Y-115353050D01*
X107603050Y-115263342D01*
X107633004Y-115204555D01*
X107676268Y-115161290D01*
X107721213Y-115150500D01*
X108280351Y-115150500D01*
X108280353Y-115150500D01*
X108363139Y-115128318D01*
X108363141Y-115128316D01*
X108363143Y-115128316D01*
X108437357Y-115085468D01*
X108437357Y-115085467D01*
X108437362Y-115085465D01*
X108993331Y-114529496D01*
X109047848Y-114501719D01*
X109063335Y-114500500D01*
X109683257Y-114500500D01*
X109683260Y-114500500D01*
X109751393Y-114490573D01*
X109856483Y-114439198D01*
X109939198Y-114356483D01*
X109990573Y-114251393D01*
X110000500Y-114183260D01*
X110000500Y-113816740D01*
X109990573Y-113748607D01*
X109939198Y-113643517D01*
X109856483Y-113560802D01*
X109815102Y-113540572D01*
X109751395Y-113509427D01*
X109724139Y-113505456D01*
X109683260Y-113499500D01*
X108441740Y-113499500D01*
X108407673Y-113504463D01*
X108373604Y-113509427D01*
X108268518Y-113560801D01*
X108185801Y-113643518D01*
X108134427Y-113748604D01*
X108132178Y-113764043D01*
X108124500Y-113816740D01*
X108124500Y-114183260D01*
X108130509Y-114224500D01*
X108134427Y-114251395D01*
X108174421Y-114333204D01*
X108178599Y-114362741D01*
X108183261Y-114392169D01*
X108182871Y-114392933D01*
X108182992Y-114393786D01*
X108155485Y-114446686D01*
X108131670Y-114470502D01*
X108077154Y-114498281D01*
X108061665Y-114499500D01*
X107721213Y-114499500D01*
X107663022Y-114480593D01*
X107633004Y-114445445D01*
X107603051Y-114386660D01*
X107603050Y-114386658D01*
X107513342Y-114296950D01*
X107400304Y-114239354D01*
X107400305Y-114239354D01*
X107306522Y-114224500D01*
X106693479Y-114224500D01*
X106693476Y-114224501D01*
X106599700Y-114239352D01*
X106599695Y-114239354D01*
X106486659Y-114296949D01*
X106396949Y-114386659D01*
X106339354Y-114499695D01*
X106332814Y-114540987D01*
X106305036Y-114595504D01*
X106250520Y-114623281D01*
X106235033Y-114624500D01*
X105886188Y-114624500D01*
X105827997Y-114605593D01*
X105816184Y-114595504D01*
X105814198Y-114593518D01*
X105814198Y-114593517D01*
X105731483Y-114510802D01*
X105731481Y-114510801D01*
X105626395Y-114459427D01*
X105599139Y-114455456D01*
X105558260Y-114449500D01*
X104316740Y-114449500D01*
X104282673Y-114454463D01*
X104248604Y-114459427D01*
X104143518Y-114510801D01*
X104060801Y-114593518D01*
X104009427Y-114698604D01*
X104009427Y-114698607D01*
X103999500Y-114766740D01*
X103763000Y-114766740D01*
X103763000Y-114546697D01*
X103781907Y-114488506D01*
X103818521Y-114457756D01*
X103835409Y-114449500D01*
X103856483Y-114439198D01*
X103939198Y-114356483D01*
X103990573Y-114251393D01*
X104000500Y-114183260D01*
X104000500Y-113816740D01*
X103990573Y-113748607D01*
X103939198Y-113643517D01*
X103939196Y-113643515D01*
X103938935Y-113642981D01*
X103937931Y-113635888D01*
X103933721Y-113630093D01*
X103933721Y-113606127D01*
X103930364Y-113582399D01*
X103933721Y-113576071D01*
X103933721Y-113568907D01*
X103947809Y-113549516D01*
X103959039Y-113528349D01*
X103965473Y-113525203D01*
X103969685Y-113519407D01*
X103992477Y-113512001D01*
X104014007Y-113501476D01*
X104027876Y-113500500D01*
X104143732Y-113500500D01*
X104187212Y-113510559D01*
X104248607Y-113540573D01*
X104316740Y-113550500D01*
X104406336Y-113550500D01*
X104464527Y-113569407D01*
X104476340Y-113579496D01*
X104490958Y-113594114D01*
X104605682Y-113670771D01*
X104605693Y-113670777D01*
X104652783Y-113690282D01*
X104733172Y-113723580D01*
X104868507Y-113750500D01*
X106556016Y-113750500D01*
X106586189Y-113755210D01*
X106593819Y-113757651D01*
X106599696Y-113760646D01*
X106606586Y-113761737D01*
X106613792Y-113764043D01*
X106620670Y-113768993D01*
X106638619Y-113776017D01*
X106668189Y-113795775D01*
X106795672Y-113848580D01*
X106931006Y-113875500D01*
X106931007Y-113875500D01*
X107068993Y-113875500D01*
X107068994Y-113875500D01*
X107204329Y-113848580D01*
X107331811Y-113795775D01*
X107361378Y-113776018D01*
X107393071Y-113763614D01*
X107392890Y-113763055D01*
X107400298Y-113760646D01*
X107400304Y-113760646D01*
X107513342Y-113703050D01*
X107603050Y-113613342D01*
X107648639Y-113523867D01*
X107666839Y-113498816D01*
X108911160Y-112254496D01*
X108965677Y-112226719D01*
X108981164Y-112225500D01*
X112962664Y-112225500D01*
X113020855Y-112244407D01*
X113056819Y-112293907D01*
X113056819Y-112355093D01*
X113032668Y-112394504D01*
X111006669Y-114420504D01*
X110952152Y-114448281D01*
X110936665Y-114449500D01*
X110316740Y-114449500D01*
X110282673Y-114454463D01*
X110248604Y-114459427D01*
X110143518Y-114510801D01*
X110060801Y-114593518D01*
X110009427Y-114698604D01*
X110009427Y-114698607D01*
X109999500Y-114766740D01*
X109999500Y-115133260D01*
X110000673Y-115141309D01*
X110009427Y-115201395D01*
X110043781Y-115271666D01*
X110060802Y-115306483D01*
X110143517Y-115389198D01*
X110187388Y-115410645D01*
X110248604Y-115440572D01*
X110248605Y-115440572D01*
X110248607Y-115440573D01*
X110316740Y-115450500D01*
X110316743Y-115450500D01*
X111558257Y-115450500D01*
X111558260Y-115450500D01*
X111626393Y-115440573D01*
X111731483Y-115389198D01*
X111814198Y-115306483D01*
X111865573Y-115201393D01*
X111875500Y-115133260D01*
X111875500Y-114766740D01*
X111865573Y-114698607D01*
X111825578Y-114616795D01*
X111817007Y-114556213D01*
X111844513Y-114503313D01*
X113567331Y-112780496D01*
X113621848Y-112752719D01*
X113637335Y-112751500D01*
X116116851Y-112751500D01*
X116116853Y-112751500D01*
X116199639Y-112729318D01*
X116199641Y-112729316D01*
X116199643Y-112729316D01*
X116273857Y-112686468D01*
X116273857Y-112686467D01*
X116273862Y-112686465D01*
X117199859Y-111760466D01*
X117199862Y-111760465D01*
X117260465Y-111699862D01*
X117281891Y-111662750D01*
X117303318Y-111625639D01*
X117325501Y-111542853D01*
X117325501Y-111457147D01*
X117325501Y-111451085D01*
X117325500Y-111451067D01*
X117325500Y-110142338D01*
X117323499Y-110134869D01*
X117303318Y-110059552D01*
X117303318Y-110059551D01*
X117265418Y-109993906D01*
X117260468Y-109985332D01*
X117260467Y-109985331D01*
X117260466Y-109985330D01*
X117260465Y-109985328D01*
X112104496Y-104829359D01*
X112076719Y-104774842D01*
X112075500Y-104759355D01*
X112075500Y-103707148D01*
X112075500Y-103707147D01*
X112053318Y-103624362D01*
X112053318Y-103624361D01*
X112053318Y-103624360D01*
X112010468Y-103550142D01*
X112010467Y-103550141D01*
X112010466Y-103550140D01*
X112010465Y-103550138D01*
X111354496Y-102894169D01*
X111326719Y-102839652D01*
X111325500Y-102824165D01*
X111325500Y-99977061D01*
X111344407Y-99918870D01*
X111354490Y-99907063D01*
X112060468Y-99201086D01*
X112075818Y-99174500D01*
X112103319Y-99126867D01*
X112103319Y-99126865D01*
X112103321Y-99126863D01*
X112125503Y-99044077D01*
X112125503Y-98958371D01*
X112125503Y-98423321D01*
X112127963Y-98415747D01*
X112126714Y-98407883D01*
X112137238Y-98387201D01*
X112144410Y-98365130D01*
X112154464Y-98353353D01*
X112154500Y-98353317D01*
X112155463Y-98352353D01*
X112209964Y-98324550D01*
X112270401Y-98334091D01*
X112313687Y-98377334D01*
X112324500Y-98422322D01*
X112324500Y-98556520D01*
X112324501Y-98556523D01*
X112339352Y-98650299D01*
X112339353Y-98650303D01*
X112378513Y-98727158D01*
X112396950Y-98763342D01*
X112486658Y-98853050D01*
X112599696Y-98910646D01*
X112693481Y-98925500D01*
X112959520Y-98925499D01*
X113017710Y-98944406D01*
X113029524Y-98954495D01*
X113923604Y-99848575D01*
X113951381Y-99903092D01*
X113941810Y-99963524D01*
X113898545Y-100006789D01*
X113879224Y-100014205D01*
X113806814Y-100033607D01*
X113806810Y-100033609D01*
X113692690Y-100099496D01*
X113599496Y-100192690D01*
X113533609Y-100306809D01*
X113533608Y-100306814D01*
X113501555Y-100426441D01*
X113499500Y-100434109D01*
X113499500Y-100524652D01*
X113490156Y-100566638D01*
X113488357Y-100570477D01*
X113471682Y-100599361D01*
X113471682Y-100599362D01*
X113467471Y-100615078D01*
X113449500Y-100682148D01*
X113449500Y-101262989D01*
X113430593Y-101321180D01*
X113395446Y-101351198D01*
X113296781Y-101401471D01*
X113201470Y-101496782D01*
X113140283Y-101616867D01*
X113140281Y-101616874D01*
X113124500Y-101716510D01*
X113124500Y-102283489D01*
X113140281Y-102383125D01*
X113140283Y-102383132D01*
X113200086Y-102500500D01*
X113201472Y-102503220D01*
X113296780Y-102598528D01*
X113296782Y-102598529D01*
X113395445Y-102648801D01*
X113438710Y-102692065D01*
X113449500Y-102737010D01*
X113449500Y-104409147D01*
X113449500Y-104494853D01*
X113462981Y-104545165D01*
X113471683Y-104577643D01*
X113514531Y-104651857D01*
X113514533Y-104651859D01*
X113514535Y-104651862D01*
X114123138Y-105260465D01*
X114123140Y-105260466D01*
X114123142Y-105260468D01*
X114197357Y-105303316D01*
X114197355Y-105303316D01*
X114197359Y-105303317D01*
X114197361Y-105303318D01*
X114280147Y-105325500D01*
X114300500Y-105325500D01*
X114358691Y-105344407D01*
X114394655Y-105393907D01*
X114399500Y-105424500D01*
X114399500Y-105644746D01*
X114399501Y-105644758D01*
X114411132Y-105703230D01*
X114414814Y-105712119D01*
X114419611Y-105773116D01*
X114414814Y-105787881D01*
X114411132Y-105796769D01*
X114399501Y-105855241D01*
X114399500Y-105855253D01*
X114399500Y-106144746D01*
X114399501Y-106144758D01*
X114411132Y-106203227D01*
X114411134Y-106203233D01*
X114421074Y-106218109D01*
X114455448Y-106269552D01*
X114521769Y-106313867D01*
X114566231Y-106322711D01*
X114580241Y-106325498D01*
X114580246Y-106325498D01*
X114580252Y-106325500D01*
X115107147Y-106325500D01*
X116493121Y-106325500D01*
X116551312Y-106344407D01*
X116587276Y-106393907D01*
X116587276Y-106393908D01*
X116589354Y-106400306D01*
X116645891Y-106511265D01*
X116646950Y-106513342D01*
X116736658Y-106603050D01*
X116849696Y-106660646D01*
X116943481Y-106675500D01*
X117406518Y-106675499D01*
X117406520Y-106675499D01*
X117406521Y-106675498D01*
X117453411Y-106668072D01*
X117500299Y-106660647D01*
X117500299Y-106660646D01*
X117500304Y-106660646D01*
X117613342Y-106603050D01*
X117703050Y-106513342D01*
X117760646Y-106400304D01*
X117775500Y-106306519D01*
X117775499Y-105693482D01*
X117772493Y-105674500D01*
X117760647Y-105599700D01*
X117760646Y-105599698D01*
X117760646Y-105599696D01*
X117703050Y-105486658D01*
X117613342Y-105396950D01*
X117613339Y-105396948D01*
X117554554Y-105366995D01*
X117538164Y-105350605D01*
X117519407Y-105336977D01*
X117516938Y-105329378D01*
X117511290Y-105323730D01*
X117500500Y-105278786D01*
X117500500Y-105221213D01*
X117519407Y-105163022D01*
X117554555Y-105133004D01*
X117581910Y-105119065D01*
X117613342Y-105103050D01*
X117703050Y-105013342D01*
X117760646Y-104900304D01*
X117775500Y-104806519D01*
X117775499Y-104193482D01*
X117775498Y-104193478D01*
X117775498Y-104193476D01*
X117760647Y-104099700D01*
X117760646Y-104099698D01*
X117760646Y-104099696D01*
X117703050Y-103986658D01*
X117613342Y-103896950D01*
X117500304Y-103839354D01*
X117500305Y-103839354D01*
X117406522Y-103824500D01*
X116943479Y-103824500D01*
X116943476Y-103824501D01*
X116849700Y-103839352D01*
X116849695Y-103839354D01*
X116736659Y-103896949D01*
X116646949Y-103986659D01*
X116589354Y-104099695D01*
X116574500Y-104193477D01*
X116574500Y-104806520D01*
X116574501Y-104806523D01*
X116589352Y-104900299D01*
X116589354Y-104900304D01*
X116646950Y-105013342D01*
X116736658Y-105103050D01*
X116736660Y-105103051D01*
X116795445Y-105133004D01*
X116811834Y-105149393D01*
X116830593Y-105163022D01*
X116833061Y-105170619D01*
X116838710Y-105176268D01*
X116849500Y-105221213D01*
X116849500Y-105278786D01*
X116830593Y-105336977D01*
X116795446Y-105366995D01*
X116736660Y-105396948D01*
X116646949Y-105486659D01*
X116589354Y-105599693D01*
X116587276Y-105606092D01*
X116587276Y-105606093D01*
X116567225Y-105633691D01*
X116555658Y-105649612D01*
X116551312Y-105655593D01*
X116512029Y-105668356D01*
X116493122Y-105674500D01*
X116432115Y-105674500D01*
X116373924Y-105655593D01*
X116337960Y-105606093D01*
X116336488Y-105549878D01*
X116351500Y-105493853D01*
X116351500Y-102099500D01*
X116370407Y-102041309D01*
X116419907Y-102005345D01*
X116450500Y-102000500D01*
X116733257Y-102000500D01*
X116733260Y-102000500D01*
X116801393Y-101990573D01*
X116906483Y-101939198D01*
X116989198Y-101856483D01*
X117040573Y-101751393D01*
X117050500Y-101683260D01*
X117050500Y-100591740D01*
X117040573Y-100523607D01*
X117040356Y-100523164D01*
X117011461Y-100464057D01*
X116989198Y-100418517D01*
X116906483Y-100335802D01*
X116906481Y-100335801D01*
X116801395Y-100284427D01*
X116774139Y-100280456D01*
X116733260Y-100274500D01*
X116366740Y-100274500D01*
X116332673Y-100279463D01*
X116298604Y-100284427D01*
X116193518Y-100335801D01*
X116110801Y-100418518D01*
X116059427Y-100523604D01*
X116049500Y-100591743D01*
X116049500Y-101136665D01*
X116030593Y-101194856D01*
X116020504Y-101206668D01*
X115765535Y-101461637D01*
X115765531Y-101461642D01*
X115722682Y-101535860D01*
X115722681Y-101535860D01*
X115722682Y-101535861D01*
X115700500Y-101618647D01*
X115700500Y-103575500D01*
X115695655Y-103590411D01*
X115695655Y-103606093D01*
X115686438Y-103618778D01*
X115681593Y-103633691D01*
X115668907Y-103642907D01*
X115659691Y-103655593D01*
X115644778Y-103660438D01*
X115632093Y-103669655D01*
X115601500Y-103674500D01*
X115549500Y-103674500D01*
X115491309Y-103655593D01*
X115455345Y-103606093D01*
X115450500Y-103575500D01*
X115450500Y-99960437D01*
X115450499Y-99960435D01*
X115430021Y-99884011D01*
X115430019Y-99884007D01*
X115390461Y-99815491D01*
X115390460Y-99815489D01*
X115334511Y-99759540D01*
X115312525Y-99746846D01*
X115292021Y-99731114D01*
X114655410Y-99094503D01*
X114627633Y-99039986D01*
X114637204Y-98979554D01*
X114680469Y-98936289D01*
X114725414Y-98925499D01*
X114806521Y-98925499D01*
X114806522Y-98925498D01*
X114862766Y-98916591D01*
X114900299Y-98910647D01*
X114900299Y-98910646D01*
X114900304Y-98910646D01*
X115013342Y-98853050D01*
X115103050Y-98763342D01*
X115160646Y-98650304D01*
X115162137Y-98640895D01*
X115175499Y-98556523D01*
X115175500Y-98556519D01*
X115175499Y-97943482D01*
X115175498Y-97943478D01*
X115175498Y-97943476D01*
X115160647Y-97849700D01*
X115160646Y-97849698D01*
X115160646Y-97849696D01*
X115103050Y-97736658D01*
X115013342Y-97646950D01*
X115013339Y-97646948D01*
X114954554Y-97616995D01*
X114938164Y-97600605D01*
X114919407Y-97586977D01*
X114916938Y-97579378D01*
X114911290Y-97573730D01*
X114900500Y-97528786D01*
X114900500Y-97471213D01*
X114919407Y-97413022D01*
X114954555Y-97383004D01*
X114991239Y-97364312D01*
X115013342Y-97353050D01*
X115013346Y-97353045D01*
X115019647Y-97348469D01*
X115020748Y-97349985D01*
X115066412Y-97326719D01*
X115081899Y-97325500D01*
X115250252Y-97325500D01*
X115308443Y-97344407D01*
G37*
G04 #@! TD.AperFunction*
G04 #@! TA.AperFunction,Conductor*
G36*
X87619503Y-108982802D02*
G01*
X90997190Y-112360490D01*
X91066491Y-112400500D01*
X91081452Y-112409138D01*
X91099918Y-112419799D01*
X91214495Y-112450500D01*
X97502761Y-112450500D01*
X97534218Y-112455631D01*
X97543649Y-112458791D01*
X97556814Y-112466392D01*
X97604292Y-112479113D01*
X97607173Y-112480079D01*
X97629427Y-112496562D01*
X97652652Y-112511644D01*
X97653789Y-112514606D01*
X97656340Y-112516496D01*
X97664656Y-112542915D01*
X97674580Y-112568765D01*
X97673758Y-112571829D01*
X97674712Y-112574858D01*
X97665909Y-112601124D01*
X97658745Y-112627866D01*
X97655680Y-112631651D01*
X97655271Y-112632872D01*
X97653901Y-112633848D01*
X97645720Y-112643952D01*
X95813292Y-114476380D01*
X95758775Y-114504157D01*
X95699808Y-114495317D01*
X95626395Y-114459427D01*
X95599139Y-114455456D01*
X95558260Y-114449500D01*
X94316740Y-114449500D01*
X94282673Y-114454463D01*
X94248604Y-114459427D01*
X94143518Y-114510801D01*
X94060801Y-114593518D01*
X94009427Y-114698604D01*
X94009427Y-114698607D01*
X93999500Y-114766740D01*
X93999500Y-115133260D01*
X94000673Y-115141309D01*
X94009427Y-115201395D01*
X94043781Y-115271666D01*
X94060802Y-115306483D01*
X94143517Y-115389198D01*
X94187388Y-115410645D01*
X94248604Y-115440572D01*
X94248605Y-115440572D01*
X94248607Y-115440573D01*
X94316740Y-115450500D01*
X94316743Y-115450500D01*
X95558257Y-115450500D01*
X95558260Y-115450500D01*
X95561222Y-115450068D01*
X95621531Y-115460385D01*
X95664258Y-115504180D01*
X95674500Y-115548033D01*
X95674500Y-117080484D01*
X95655593Y-117138675D01*
X95606093Y-117174639D01*
X95544907Y-117174639D01*
X95542803Y-117173929D01*
X95528705Y-117168996D01*
X95409699Y-117127354D01*
X95409697Y-117127353D01*
X95409694Y-117127353D01*
X95379274Y-117124500D01*
X95379266Y-117124500D01*
X94545734Y-117124500D01*
X94545725Y-117124500D01*
X94515305Y-117127353D01*
X94515296Y-117127355D01*
X94387116Y-117172207D01*
X94305063Y-117232765D01*
X94247015Y-117252107D01*
X94188685Y-117233635D01*
X94176271Y-117223114D01*
X93791996Y-116838839D01*
X93764219Y-116784322D01*
X93763000Y-116768835D01*
X93763000Y-114546697D01*
X93781907Y-114488506D01*
X93818521Y-114457756D01*
X93835409Y-114449500D01*
X93856483Y-114439198D01*
X93939198Y-114356483D01*
X93990573Y-114251393D01*
X94000500Y-114183260D01*
X94000500Y-113816740D01*
X93990573Y-113748607D01*
X93939198Y-113643517D01*
X93856483Y-113560802D01*
X93815102Y-113540572D01*
X93751395Y-113509427D01*
X93724139Y-113505456D01*
X93683260Y-113499500D01*
X93683257Y-113499500D01*
X93593664Y-113499500D01*
X93535473Y-113480593D01*
X93523660Y-113470504D01*
X93509041Y-113455885D01*
X93394317Y-113379228D01*
X93394306Y-113379222D01*
X93266828Y-113326420D01*
X93131495Y-113299500D01*
X93131493Y-113299500D01*
X92993507Y-113299500D01*
X92993504Y-113299500D01*
X92858172Y-113326420D01*
X92858170Y-113326420D01*
X92730693Y-113379222D01*
X92730682Y-113379228D01*
X92615958Y-113455885D01*
X92615954Y-113455889D01*
X92601340Y-113470504D01*
X92546823Y-113498281D01*
X92531336Y-113499500D01*
X92441740Y-113499500D01*
X92407673Y-113504463D01*
X92373604Y-113509427D01*
X92268518Y-113560801D01*
X92185801Y-113643518D01*
X92134427Y-113748604D01*
X92132178Y-113764043D01*
X92124500Y-113816740D01*
X92124500Y-114183260D01*
X92130509Y-114224500D01*
X92134427Y-114251395D01*
X92185801Y-114356481D01*
X92185802Y-114356483D01*
X92268517Y-114439198D01*
X92268518Y-114439198D01*
X92268519Y-114439199D01*
X92306479Y-114457756D01*
X92350454Y-114500298D01*
X92362000Y-114546697D01*
X92362000Y-117168996D01*
X92374685Y-117232765D01*
X92386902Y-117294185D01*
X92388920Y-117304327D01*
X92388920Y-117304329D01*
X92441723Y-117431808D01*
X92480806Y-117490301D01*
X92518386Y-117546543D01*
X94120505Y-119148662D01*
X94148281Y-119203177D01*
X94149500Y-119218664D01*
X94149500Y-120479274D01*
X94152353Y-120509694D01*
X94152353Y-120509697D01*
X94152354Y-120509699D01*
X94152354Y-120509701D01*
X94152355Y-120509702D01*
X94164287Y-120543802D01*
X94165660Y-120604972D01*
X94130817Y-120655267D01*
X94073065Y-120675475D01*
X94070843Y-120675500D01*
X91214335Y-120675500D01*
X91156144Y-120656593D01*
X91144331Y-120646504D01*
X89879496Y-119381669D01*
X89851719Y-119327152D01*
X89850500Y-119311665D01*
X89850500Y-117520727D01*
X89850499Y-117520725D01*
X89847646Y-117490305D01*
X89847646Y-117490301D01*
X89802793Y-117362118D01*
X89798876Y-117356811D01*
X89722154Y-117252855D01*
X89722152Y-117252853D01*
X89722150Y-117252850D01*
X89722146Y-117252847D01*
X89722144Y-117252845D01*
X89612883Y-117172207D01*
X89484703Y-117127355D01*
X89484694Y-117127353D01*
X89454274Y-117124500D01*
X89454266Y-117124500D01*
X88620734Y-117124500D01*
X88620725Y-117124500D01*
X88590305Y-117127353D01*
X88590296Y-117127355D01*
X88462116Y-117172207D01*
X88352855Y-117252845D01*
X88352845Y-117252855D01*
X88272207Y-117362116D01*
X88227355Y-117490296D01*
X88227353Y-117490305D01*
X88224500Y-117520725D01*
X88224500Y-118200500D01*
X88205593Y-118258691D01*
X88156093Y-118294655D01*
X88125500Y-118299500D01*
X86799500Y-118299500D01*
X86741309Y-118280593D01*
X86705345Y-118231093D01*
X86700500Y-118200500D01*
X86700500Y-117831164D01*
X86719407Y-117772973D01*
X86729490Y-117761166D01*
X87294114Y-117196543D01*
X87370775Y-117081811D01*
X87423580Y-116954328D01*
X87450500Y-116818994D01*
X87450500Y-116681006D01*
X87450500Y-115199500D01*
X87469407Y-115141309D01*
X87518907Y-115105345D01*
X87549500Y-115100500D01*
X87904273Y-115100500D01*
X87904273Y-115100499D01*
X87934699Y-115097646D01*
X88062882Y-115052793D01*
X88172150Y-114972150D01*
X88252793Y-114862882D01*
X88297646Y-114734699D01*
X88300499Y-114704273D01*
X88300500Y-114704273D01*
X88300500Y-113295727D01*
X88300499Y-113295725D01*
X88297646Y-113265305D01*
X88297646Y-113265301D01*
X88252793Y-113137118D01*
X88222918Y-113096639D01*
X88172154Y-113027855D01*
X88172152Y-113027853D01*
X88172150Y-113027850D01*
X88172146Y-113027847D01*
X88172144Y-113027845D01*
X88062883Y-112947207D01*
X87934703Y-112902355D01*
X87934694Y-112902353D01*
X87904274Y-112899500D01*
X87904266Y-112899500D01*
X87549500Y-112899500D01*
X87491309Y-112880593D01*
X87455345Y-112831093D01*
X87450500Y-112800500D01*
X87450500Y-109052807D01*
X87469407Y-108994616D01*
X87518907Y-108958652D01*
X87580093Y-108958652D01*
X87619503Y-108982802D01*
G37*
G04 #@! TD.AperFunction*
G04 #@! TA.AperFunction,Conductor*
G36*
X112220504Y-105866021D02*
G01*
X116645504Y-110291021D01*
X116649130Y-110298138D01*
X116655593Y-110302834D01*
X116662756Y-110324882D01*
X116673281Y-110345538D01*
X116674500Y-110361025D01*
X116674500Y-110444836D01*
X116655593Y-110503027D01*
X116606093Y-110538991D01*
X116544907Y-110538991D01*
X116505498Y-110514841D01*
X116446543Y-110455886D01*
X116430005Y-110444836D01*
X116331808Y-110379223D01*
X116204329Y-110326420D01*
X116068996Y-110299500D01*
X116068994Y-110299500D01*
X115931006Y-110299500D01*
X115931003Y-110299500D01*
X115795672Y-110326420D01*
X115795670Y-110326420D01*
X115668191Y-110379223D01*
X115553457Y-110455885D01*
X115213838Y-110795504D01*
X115159322Y-110823281D01*
X115143835Y-110824500D01*
X114932440Y-110824500D01*
X114874249Y-110805593D01*
X114873652Y-110805155D01*
X114862883Y-110797207D01*
X114734703Y-110752355D01*
X114734694Y-110752353D01*
X114704274Y-110749500D01*
X114704266Y-110749500D01*
X113295734Y-110749500D01*
X113295725Y-110749500D01*
X113265305Y-110752353D01*
X113265296Y-110752355D01*
X113137116Y-110797207D01*
X113126348Y-110805155D01*
X113068301Y-110824497D01*
X113067560Y-110824500D01*
X108581004Y-110824500D01*
X108475871Y-110845413D01*
X108445671Y-110851420D01*
X108445669Y-110851420D01*
X108393072Y-110873206D01*
X108393073Y-110873207D01*
X108318189Y-110904224D01*
X108253765Y-110947272D01*
X108203458Y-110980886D01*
X106863839Y-112320504D01*
X106809322Y-112348281D01*
X106793835Y-112349500D01*
X104868504Y-112349500D01*
X104733172Y-112376420D01*
X104733170Y-112376420D01*
X104605693Y-112429222D01*
X104605682Y-112429228D01*
X104490958Y-112505885D01*
X104490954Y-112505889D01*
X104476340Y-112520504D01*
X104421823Y-112548281D01*
X104406336Y-112549500D01*
X104316740Y-112549500D01*
X104258257Y-112558021D01*
X104248607Y-112559427D01*
X104187212Y-112589441D01*
X104143732Y-112599500D01*
X99747239Y-112599500D01*
X99717791Y-112595019D01*
X99707276Y-112591743D01*
X99693186Y-112583608D01*
X99607311Y-112560598D01*
X99605401Y-112560003D01*
X99581983Y-112543419D01*
X99557911Y-112527786D01*
X99557165Y-112525844D01*
X99555468Y-112524642D01*
X99546266Y-112497451D01*
X99535985Y-112470665D01*
X99536523Y-112468656D01*
X99535856Y-112466685D01*
X99544396Y-112439273D01*
X99551821Y-112411564D01*
X99553785Y-112409138D01*
X99554056Y-112408269D01*
X99555148Y-112407455D01*
X99564840Y-112395485D01*
X101979831Y-109980496D01*
X102034348Y-109952719D01*
X102049835Y-109951500D01*
X107781556Y-109951500D01*
X107787989Y-109950653D01*
X107788079Y-109951339D01*
X107802053Y-109949500D01*
X108197947Y-109949500D01*
X108211920Y-109951339D01*
X108212011Y-109950653D01*
X108218444Y-109951500D01*
X108218445Y-109951500D01*
X108666851Y-109951500D01*
X108666853Y-109951500D01*
X108749639Y-109929318D01*
X108749641Y-109929316D01*
X108749643Y-109929316D01*
X108823857Y-109886468D01*
X108823857Y-109886467D01*
X108823862Y-109886465D01*
X111986465Y-106723862D01*
X111992897Y-106712720D01*
X112000324Y-106699859D01*
X112022962Y-106660647D01*
X112029318Y-106649638D01*
X112051500Y-106566853D01*
X112051500Y-105936025D01*
X112070407Y-105877834D01*
X112119907Y-105841870D01*
X112181093Y-105841870D01*
X112220504Y-105866021D01*
G37*
G04 #@! TD.AperFunction*
G04 #@! TA.AperFunction,Conductor*
G36*
X103295855Y-105406907D02*
G01*
X103331819Y-105456407D01*
X103331819Y-105517593D01*
X103307668Y-105557004D01*
X100169167Y-108695504D01*
X100114650Y-108723281D01*
X100099163Y-108724500D01*
X99693479Y-108724500D01*
X99693476Y-108724501D01*
X99599700Y-108739352D01*
X99599695Y-108739354D01*
X99486659Y-108796949D01*
X99396949Y-108886659D01*
X99339354Y-108999695D01*
X99332814Y-109040987D01*
X99305036Y-109095504D01*
X99250520Y-109123281D01*
X99235033Y-109124500D01*
X98886188Y-109124500D01*
X98827997Y-109105593D01*
X98816184Y-109095504D01*
X98814198Y-109093518D01*
X98814198Y-109093517D01*
X98731483Y-109010802D01*
X98710410Y-109000500D01*
X98626395Y-108959427D01*
X98599139Y-108955456D01*
X98558260Y-108949500D01*
X97316740Y-108949500D01*
X97282673Y-108954463D01*
X97248604Y-108959427D01*
X97143518Y-109010801D01*
X97060801Y-109093518D01*
X97009427Y-109198604D01*
X97009427Y-109198607D01*
X96999500Y-109266740D01*
X96999500Y-109633260D01*
X97002012Y-109650500D01*
X97009427Y-109701395D01*
X97045655Y-109775500D01*
X97060802Y-109806483D01*
X97143517Y-109889198D01*
X97187388Y-109910645D01*
X97248604Y-109940572D01*
X97248605Y-109940572D01*
X97248607Y-109940573D01*
X97316740Y-109950500D01*
X97316743Y-109950500D01*
X98558257Y-109950500D01*
X98558260Y-109950500D01*
X98626393Y-109940573D01*
X98731483Y-109889198D01*
X98814198Y-109806483D01*
X98814198Y-109806480D01*
X98816184Y-109804496D01*
X98870701Y-109776719D01*
X98886188Y-109775500D01*
X99368100Y-109775500D01*
X99426291Y-109794407D01*
X99438103Y-109804496D01*
X99464868Y-109831260D01*
X99486658Y-109853050D01*
X99599696Y-109910646D01*
X99693481Y-109925500D01*
X100125165Y-109925499D01*
X100183356Y-109944406D01*
X100219320Y-109993906D01*
X100219320Y-110055091D01*
X100195169Y-110094503D01*
X98393952Y-111895720D01*
X98339435Y-111923497D01*
X98279003Y-111913926D01*
X98235738Y-111870661D01*
X98228323Y-111851343D01*
X98216392Y-111806814D01*
X98216391Y-111806813D01*
X98216391Y-111806811D01*
X98216390Y-111806810D01*
X98150503Y-111692690D01*
X98150501Y-111692688D01*
X98150500Y-111692686D01*
X98057314Y-111599500D01*
X98057311Y-111599498D01*
X98057309Y-111599496D01*
X97943189Y-111533609D01*
X97943191Y-111533609D01*
X97893799Y-111520375D01*
X97815892Y-111499500D01*
X97684108Y-111499500D01*
X97605719Y-111520504D01*
X97556813Y-111533608D01*
X97552259Y-111536238D01*
X97502761Y-111549500D01*
X91501416Y-111549500D01*
X91443225Y-111530593D01*
X91431412Y-111520504D01*
X91065304Y-111154396D01*
X91037527Y-111099879D01*
X91047098Y-111039447D01*
X91090363Y-110996182D01*
X91109677Y-110988767D01*
X91193186Y-110966392D01*
X91193188Y-110966390D01*
X91193190Y-110966390D01*
X91307309Y-110900503D01*
X91307309Y-110900502D01*
X91307314Y-110900500D01*
X91400500Y-110807314D01*
X91466392Y-110693186D01*
X91500500Y-110565892D01*
X91500500Y-110434108D01*
X91466392Y-110306814D01*
X91466390Y-110306811D01*
X91466390Y-110306809D01*
X91400503Y-110192690D01*
X91400499Y-110192684D01*
X91354496Y-110146681D01*
X91350870Y-110139564D01*
X91344407Y-110134869D01*
X91337242Y-110112817D01*
X91326719Y-110092164D01*
X91325500Y-110076678D01*
X91325500Y-110048033D01*
X91344407Y-109989842D01*
X91393907Y-109953878D01*
X91438776Y-109950068D01*
X91441740Y-109950500D01*
X91441743Y-109950500D01*
X92683257Y-109950500D01*
X92683260Y-109950500D01*
X92751393Y-109940573D01*
X92856483Y-109889198D01*
X92939198Y-109806483D01*
X92990573Y-109701393D01*
X93000500Y-109633260D01*
X93000500Y-109266740D01*
X92990573Y-109198607D01*
X92939198Y-109093517D01*
X92856483Y-109010802D01*
X92856481Y-109010801D01*
X92856480Y-109010800D01*
X92849806Y-109006035D01*
X92851611Y-109003505D01*
X92817908Y-108970899D01*
X92807337Y-108910634D01*
X92834208Y-108855665D01*
X92888257Y-108826989D01*
X92905361Y-108825500D01*
X92988812Y-108825500D01*
X93047003Y-108844407D01*
X93058816Y-108854496D01*
X93060801Y-108856481D01*
X93060802Y-108856483D01*
X93143517Y-108939198D01*
X93197285Y-108965483D01*
X93248604Y-108990572D01*
X93248605Y-108990572D01*
X93248607Y-108990573D01*
X93316740Y-109000500D01*
X93316743Y-109000500D01*
X94558257Y-109000500D01*
X94558260Y-109000500D01*
X94626393Y-108990573D01*
X94731483Y-108939198D01*
X94814198Y-108856483D01*
X94865573Y-108751393D01*
X94875500Y-108683260D01*
X94875500Y-108316740D01*
X94865573Y-108248607D01*
X94853573Y-108224061D01*
X94840483Y-108197285D01*
X94814198Y-108143517D01*
X94731483Y-108060802D01*
X94731481Y-108060801D01*
X94731480Y-108060800D01*
X94724806Y-108056035D01*
X94725145Y-108055559D01*
X94722170Y-108054593D01*
X94709002Y-108036470D01*
X94692908Y-108020899D01*
X94691386Y-108012222D01*
X94686206Y-108005093D01*
X94686206Y-107982691D01*
X94682337Y-107960634D01*
X94686206Y-107952719D01*
X94686206Y-107943907D01*
X94699372Y-107925784D01*
X94709208Y-107905665D01*
X94716990Y-107901535D01*
X94722170Y-107894407D01*
X94743473Y-107887485D01*
X94763257Y-107876989D01*
X94780361Y-107875500D01*
X94936665Y-107875500D01*
X94994856Y-107894407D01*
X95006669Y-107904496D01*
X95155484Y-108053311D01*
X95183261Y-108107828D01*
X95174421Y-108166795D01*
X95134427Y-108248604D01*
X95129463Y-108282673D01*
X95124500Y-108316740D01*
X95124500Y-108683260D01*
X95126919Y-108699862D01*
X95134427Y-108751395D01*
X95164935Y-108813799D01*
X95185802Y-108856483D01*
X95268517Y-108939198D01*
X95322285Y-108965483D01*
X95373604Y-108990572D01*
X95373605Y-108990572D01*
X95373607Y-108990573D01*
X95441740Y-109000500D01*
X95441743Y-109000500D01*
X96683257Y-109000500D01*
X96683260Y-109000500D01*
X96751393Y-108990573D01*
X96856483Y-108939198D01*
X96939198Y-108856483D01*
X96990573Y-108751393D01*
X97000500Y-108683260D01*
X97000500Y-108316740D01*
X96990573Y-108248607D01*
X96978573Y-108224061D01*
X96965483Y-108197285D01*
X96939198Y-108143517D01*
X96856483Y-108060802D01*
X96846732Y-108056035D01*
X96751395Y-108009427D01*
X96721647Y-108005093D01*
X96683260Y-107999500D01*
X96683257Y-107999500D01*
X96063335Y-107999500D01*
X96005144Y-107980593D01*
X95993331Y-107970504D01*
X95705136Y-107682309D01*
X95312362Y-107289535D01*
X95312359Y-107289533D01*
X95312358Y-107289532D01*
X95312357Y-107289531D01*
X95238142Y-107246683D01*
X95238144Y-107246683D01*
X95206021Y-107238076D01*
X95155353Y-107224500D01*
X95155351Y-107224500D01*
X93011188Y-107224500D01*
X92952997Y-107205593D01*
X92941184Y-107195504D01*
X92939198Y-107193518D01*
X92939198Y-107193517D01*
X92856483Y-107110802D01*
X92856481Y-107110801D01*
X92751395Y-107059427D01*
X92724139Y-107055456D01*
X92683260Y-107049500D01*
X91441740Y-107049500D01*
X91407673Y-107054463D01*
X91373604Y-107059427D01*
X91268518Y-107110801D01*
X91185801Y-107193518D01*
X91136689Y-107293980D01*
X91094146Y-107337954D01*
X91047748Y-107349500D01*
X90721213Y-107349500D01*
X90663022Y-107330593D01*
X90633004Y-107295445D01*
X90603051Y-107236660D01*
X90603050Y-107236658D01*
X90513342Y-107146950D01*
X90400304Y-107089354D01*
X90400305Y-107089354D01*
X90306522Y-107074500D01*
X89874833Y-107074500D01*
X89852782Y-107067335D01*
X89829887Y-107063709D01*
X89824239Y-107058061D01*
X89816642Y-107055593D01*
X89803013Y-107036834D01*
X89786623Y-107020444D01*
X89785373Y-107012556D01*
X89780678Y-107006093D01*
X89780678Y-106982906D01*
X89777052Y-106960012D01*
X89780678Y-106952895D01*
X89780678Y-106944907D01*
X89804830Y-106905496D01*
X89855831Y-106854496D01*
X89910348Y-106826719D01*
X89925834Y-106825500D01*
X92542851Y-106825500D01*
X92542853Y-106825500D01*
X92625639Y-106803318D01*
X92625641Y-106803316D01*
X92625643Y-106803316D01*
X92699857Y-106760468D01*
X92699857Y-106760467D01*
X92699862Y-106760465D01*
X94043331Y-105416996D01*
X94097848Y-105389219D01*
X94113335Y-105388000D01*
X103237664Y-105388000D01*
X103295855Y-105406907D01*
G37*
G04 #@! TD.AperFunction*
G04 #@! TA.AperFunction,Conductor*
G36*
X110620445Y-99936624D02*
G01*
X110663710Y-99979889D01*
X110674500Y-100024834D01*
X110674500Y-102957147D01*
X110674500Y-103042853D01*
X110692095Y-103108521D01*
X110696683Y-103125643D01*
X110739531Y-103199857D01*
X110739535Y-103199862D01*
X111045169Y-103505497D01*
X111072946Y-103560013D01*
X111063375Y-103620445D01*
X111020110Y-103663710D01*
X110975165Y-103674500D01*
X110280252Y-103674500D01*
X110280251Y-103674500D01*
X110280241Y-103674501D01*
X110221772Y-103686132D01*
X110221766Y-103686134D01*
X110155451Y-103730445D01*
X110155445Y-103730451D01*
X110111134Y-103796766D01*
X110111132Y-103796772D01*
X110099501Y-103855241D01*
X110099500Y-103855253D01*
X110099500Y-104144746D01*
X110099501Y-104144758D01*
X110111132Y-104203230D01*
X110114814Y-104212119D01*
X110119611Y-104273116D01*
X110114814Y-104287881D01*
X110111132Y-104296769D01*
X110099501Y-104355241D01*
X110099500Y-104355253D01*
X110099500Y-104644746D01*
X110099501Y-104644758D01*
X110111132Y-104703227D01*
X110111134Y-104703233D01*
X110133697Y-104737000D01*
X110155448Y-104769552D01*
X110221769Y-104813867D01*
X110266231Y-104822711D01*
X110280241Y-104825498D01*
X110280246Y-104825498D01*
X110280252Y-104825500D01*
X110280253Y-104825500D01*
X111325500Y-104825500D01*
X111383691Y-104844407D01*
X111419655Y-104893907D01*
X111423407Y-104909833D01*
X111424500Y-104917129D01*
X111424500Y-104978043D01*
X111445197Y-105055287D01*
X111446028Y-105060833D01*
X111441867Y-105085748D01*
X111440545Y-105110979D01*
X111436903Y-105115475D01*
X111435951Y-105121182D01*
X111417939Y-105138894D01*
X111402040Y-105158529D01*
X111396221Y-105160252D01*
X111392326Y-105164083D01*
X111374042Y-105166822D01*
X111348121Y-105174500D01*
X110280252Y-105174500D01*
X110280251Y-105174500D01*
X110280241Y-105174501D01*
X110221772Y-105186132D01*
X110221766Y-105186134D01*
X110155451Y-105230445D01*
X110155445Y-105230451D01*
X110111134Y-105296766D01*
X110111132Y-105296772D01*
X110099501Y-105355241D01*
X110099500Y-105355253D01*
X110099500Y-105575500D01*
X110080593Y-105633691D01*
X110031093Y-105669655D01*
X110000500Y-105674500D01*
X109506879Y-105674500D01*
X109448688Y-105655593D01*
X109412724Y-105606093D01*
X109412724Y-105606092D01*
X109410645Y-105599693D01*
X109356715Y-105493851D01*
X109353050Y-105486658D01*
X109263342Y-105396950D01*
X109263339Y-105396948D01*
X109204554Y-105366995D01*
X109188164Y-105350605D01*
X109169407Y-105336977D01*
X109166938Y-105329378D01*
X109161290Y-105323730D01*
X109150500Y-105278786D01*
X109150500Y-105221213D01*
X109169407Y-105163022D01*
X109204555Y-105133004D01*
X109231910Y-105119065D01*
X109263342Y-105103050D01*
X109353050Y-105013342D01*
X109410646Y-104900304D01*
X109425500Y-104806519D01*
X109425499Y-104193482D01*
X109425498Y-104193478D01*
X109425498Y-104193476D01*
X109410647Y-104099700D01*
X109410646Y-104099698D01*
X109410646Y-104099696D01*
X109353050Y-103986658D01*
X109263342Y-103896950D01*
X109150304Y-103839354D01*
X109150305Y-103839354D01*
X109056522Y-103824500D01*
X108593479Y-103824500D01*
X108593476Y-103824501D01*
X108499700Y-103839352D01*
X108499695Y-103839354D01*
X108386659Y-103896949D01*
X108296949Y-103986659D01*
X108239354Y-104099695D01*
X108224500Y-104193477D01*
X108224500Y-104806520D01*
X108224501Y-104806523D01*
X108239352Y-104900299D01*
X108239354Y-104900304D01*
X108296950Y-105013342D01*
X108386658Y-105103050D01*
X108386660Y-105103051D01*
X108445445Y-105133004D01*
X108461834Y-105149393D01*
X108480593Y-105163022D01*
X108483061Y-105170619D01*
X108488710Y-105176268D01*
X108499500Y-105221213D01*
X108499500Y-105278786D01*
X108480593Y-105336977D01*
X108445446Y-105366995D01*
X108386660Y-105396948D01*
X108296949Y-105486659D01*
X108239354Y-105599695D01*
X108224500Y-105693477D01*
X108224500Y-106306520D01*
X108224501Y-106306523D01*
X108239352Y-106400299D01*
X108239354Y-106400304D01*
X108296950Y-106513342D01*
X108386658Y-106603050D01*
X108499696Y-106660646D01*
X108593481Y-106675500D01*
X109056518Y-106675499D01*
X109056520Y-106675499D01*
X109056521Y-106675498D01*
X109103411Y-106668072D01*
X109150299Y-106660647D01*
X109150299Y-106660646D01*
X109150304Y-106660646D01*
X109263342Y-106603050D01*
X109353050Y-106513342D01*
X109410646Y-106400304D01*
X109410647Y-106400299D01*
X109412724Y-106393908D01*
X109448687Y-106344408D01*
X109506878Y-106325500D01*
X110280252Y-106325500D01*
X111225165Y-106325500D01*
X111283356Y-106344407D01*
X111319320Y-106393907D01*
X111319320Y-106455093D01*
X111295169Y-106494504D01*
X108518169Y-109271504D01*
X108511051Y-109275130D01*
X108506356Y-109281593D01*
X108484307Y-109288756D01*
X108463652Y-109299281D01*
X108448165Y-109300500D01*
X108322649Y-109300500D01*
X108308675Y-109298660D01*
X108308585Y-109299347D01*
X108302151Y-109298500D01*
X107697849Y-109298500D01*
X107691415Y-109299347D01*
X107691324Y-109298660D01*
X107677351Y-109300500D01*
X101831147Y-109300500D01*
X101748362Y-109322682D01*
X101748361Y-109322682D01*
X101748359Y-109322683D01*
X101715860Y-109341446D01*
X101708991Y-109345413D01*
X101674138Y-109365535D01*
X101674135Y-109365537D01*
X101494503Y-109545169D01*
X101439987Y-109572946D01*
X101379555Y-109563375D01*
X101336290Y-109520110D01*
X101325500Y-109475165D01*
X101325500Y-109175834D01*
X101344407Y-109117643D01*
X101354496Y-109105830D01*
X103477420Y-106982906D01*
X105606048Y-104854277D01*
X105660563Y-104826502D01*
X105720995Y-104836073D01*
X105764260Y-104879338D01*
X105771676Y-104898659D01*
X105783607Y-104943185D01*
X105783609Y-104943189D01*
X105849496Y-105057309D01*
X105849498Y-105057311D01*
X105849500Y-105057314D01*
X105942686Y-105150500D01*
X105942688Y-105150501D01*
X105942690Y-105150503D01*
X106056810Y-105216390D01*
X106056808Y-105216390D01*
X106056812Y-105216391D01*
X106056814Y-105216392D01*
X106184108Y-105250500D01*
X106184110Y-105250500D01*
X106315890Y-105250500D01*
X106315892Y-105250500D01*
X106443186Y-105216392D01*
X106443188Y-105216390D01*
X106443190Y-105216390D01*
X106557309Y-105150503D01*
X106557309Y-105150502D01*
X106557314Y-105150500D01*
X106600709Y-105107104D01*
X106655224Y-105079329D01*
X106715656Y-105088900D01*
X106729825Y-105099194D01*
X106730353Y-105098469D01*
X106736654Y-105103046D01*
X106736658Y-105103050D01*
X106849696Y-105160646D01*
X106943481Y-105175500D01*
X107406518Y-105175499D01*
X107406520Y-105175499D01*
X107406521Y-105175498D01*
X107478179Y-105164150D01*
X107500299Y-105160647D01*
X107500299Y-105160646D01*
X107500304Y-105160646D01*
X107613342Y-105103050D01*
X107703050Y-105013342D01*
X107760646Y-104900304D01*
X107775500Y-104806519D01*
X107775499Y-104193482D01*
X107775498Y-104193478D01*
X107775498Y-104193476D01*
X107760647Y-104099700D01*
X107760646Y-104099698D01*
X107760646Y-104099696D01*
X107703050Y-103986658D01*
X107613342Y-103896950D01*
X107500304Y-103839354D01*
X107500305Y-103839354D01*
X107406522Y-103824500D01*
X106943479Y-103824500D01*
X106943475Y-103824501D01*
X106878867Y-103834733D01*
X106818435Y-103825161D01*
X106775171Y-103781895D01*
X106765601Y-103721463D01*
X106793377Y-103666949D01*
X110505496Y-99954829D01*
X110560013Y-99927053D01*
X110620445Y-99936624D01*
G37*
G04 #@! TD.AperFunction*
G04 #@! TA.AperFunction,Conductor*
G36*
X106069235Y-98237832D02*
G01*
X106110026Y-98276542D01*
X106166438Y-98374251D01*
X106166440Y-98374253D01*
X106166442Y-98374256D01*
X106212447Y-98420261D01*
X106240223Y-98474776D01*
X106241442Y-98490263D01*
X106241442Y-102582222D01*
X106222535Y-102640413D01*
X106212446Y-102652226D01*
X105583212Y-103281459D01*
X105528695Y-103309236D01*
X105468263Y-103299665D01*
X105427472Y-103260956D01*
X105371058Y-103163244D01*
X105277872Y-103070058D01*
X105277869Y-103070056D01*
X105277867Y-103070054D01*
X105163747Y-103004167D01*
X105163749Y-103004167D01*
X105114357Y-102990933D01*
X105036450Y-102970058D01*
X104904666Y-102970058D01*
X104826758Y-102990933D01*
X104777367Y-103004167D01*
X104663248Y-103070054D01*
X104570054Y-103163248D01*
X104504167Y-103277367D01*
X104495628Y-103309236D01*
X104472394Y-103395950D01*
X104470058Y-103404667D01*
X104470058Y-103469723D01*
X104451151Y-103527914D01*
X104441062Y-103539727D01*
X103272785Y-104708004D01*
X103218268Y-104735781D01*
X103202781Y-104737000D01*
X94362000Y-104737000D01*
X94303809Y-104718093D01*
X94267845Y-104668593D01*
X94263000Y-104638000D01*
X94263000Y-103599500D01*
X94281907Y-103541309D01*
X94331407Y-103505345D01*
X94362000Y-103500500D01*
X94558257Y-103500500D01*
X94558260Y-103500500D01*
X94626393Y-103490573D01*
X94731483Y-103439198D01*
X94814198Y-103356483D01*
X94865573Y-103251393D01*
X94875500Y-103183260D01*
X94875500Y-102816740D01*
X94865573Y-102748607D01*
X94841993Y-102700374D01*
X94825578Y-102666795D01*
X94814198Y-102643517D01*
X94731483Y-102560802D01*
X94731481Y-102560801D01*
X94731480Y-102560800D01*
X94724806Y-102556035D01*
X94725145Y-102555559D01*
X94722170Y-102554593D01*
X94709002Y-102536470D01*
X94692908Y-102520899D01*
X94691386Y-102512222D01*
X94686206Y-102505093D01*
X94686206Y-102482691D01*
X94682337Y-102460634D01*
X94686206Y-102452719D01*
X94686206Y-102443907D01*
X94699372Y-102425784D01*
X94709208Y-102405665D01*
X94716990Y-102401535D01*
X94722170Y-102394407D01*
X94743473Y-102387485D01*
X94763257Y-102376989D01*
X94780361Y-102375500D01*
X94936665Y-102375500D01*
X94994856Y-102394407D01*
X95006669Y-102404496D01*
X95155484Y-102553311D01*
X95183261Y-102607828D01*
X95174421Y-102666795D01*
X95134427Y-102748604D01*
X95131314Y-102769971D01*
X95124500Y-102816740D01*
X95124500Y-103183260D01*
X95130331Y-103223281D01*
X95134427Y-103251395D01*
X95174586Y-103333540D01*
X95185802Y-103356483D01*
X95268517Y-103439198D01*
X95322285Y-103465483D01*
X95373604Y-103490572D01*
X95373605Y-103490572D01*
X95373607Y-103490573D01*
X95441740Y-103500500D01*
X95441743Y-103500500D01*
X96683257Y-103500500D01*
X96683260Y-103500500D01*
X96751393Y-103490573D01*
X96856483Y-103439198D01*
X96939198Y-103356483D01*
X96990573Y-103251393D01*
X97000500Y-103183260D01*
X97000500Y-102816740D01*
X96990573Y-102748607D01*
X96966993Y-102700374D01*
X96950578Y-102666795D01*
X96939198Y-102643517D01*
X96856483Y-102560802D01*
X96851889Y-102558556D01*
X96751395Y-102509427D01*
X96721647Y-102505093D01*
X96683260Y-102499500D01*
X96683257Y-102499500D01*
X96063335Y-102499500D01*
X96005144Y-102480593D01*
X95993331Y-102470504D01*
X95689605Y-102166778D01*
X95312362Y-101789535D01*
X95312359Y-101789533D01*
X95312358Y-101789532D01*
X95312357Y-101789531D01*
X95261616Y-101760236D01*
X95220675Y-101714767D01*
X95214279Y-101653917D01*
X95244872Y-101600929D01*
X95300768Y-101576042D01*
X95311116Y-101575500D01*
X98326678Y-101575500D01*
X98384869Y-101594407D01*
X98396681Y-101604496D01*
X98442684Y-101650499D01*
X98442690Y-101650503D01*
X98556810Y-101716390D01*
X98556808Y-101716390D01*
X98556812Y-101716391D01*
X98556814Y-101716392D01*
X98684108Y-101750500D01*
X98684110Y-101750500D01*
X98815890Y-101750500D01*
X98815892Y-101750500D01*
X98943186Y-101716392D01*
X98943188Y-101716390D01*
X98943190Y-101716390D01*
X99057309Y-101650503D01*
X99057309Y-101650502D01*
X99057314Y-101650500D01*
X99150500Y-101557314D01*
X99185448Y-101496782D01*
X99216390Y-101443190D01*
X99216390Y-101443188D01*
X99216392Y-101443186D01*
X99250500Y-101315892D01*
X99250500Y-101184108D01*
X99216392Y-101056814D01*
X99216390Y-101056811D01*
X99216390Y-101056809D01*
X99150503Y-100942690D01*
X99150501Y-100942688D01*
X99150500Y-100942686D01*
X99057314Y-100849500D01*
X99057311Y-100849498D01*
X99057309Y-100849496D01*
X98943189Y-100783609D01*
X98943191Y-100783609D01*
X98893799Y-100770375D01*
X98815892Y-100749500D01*
X98684108Y-100749500D01*
X98606200Y-100770375D01*
X98556809Y-100783609D01*
X98442690Y-100849496D01*
X98442684Y-100849500D01*
X98396681Y-100895504D01*
X98342164Y-100923281D01*
X98326678Y-100924500D01*
X89743435Y-100924500D01*
X89657729Y-100924500D01*
X89607060Y-100938076D01*
X89574938Y-100946683D01*
X89500724Y-100989531D01*
X88938534Y-101551721D01*
X88895680Y-101625946D01*
X88895679Y-101625949D01*
X88882589Y-101674809D01*
X88882588Y-101674814D01*
X88873870Y-101707350D01*
X88873500Y-101708729D01*
X88873500Y-102981147D01*
X88873500Y-103066853D01*
X88893062Y-103139863D01*
X88895683Y-103149643D01*
X88938531Y-103223857D01*
X88938535Y-103223862D01*
X89295504Y-103580832D01*
X89323281Y-103635348D01*
X89324500Y-103650835D01*
X89324500Y-104056520D01*
X89324501Y-104056523D01*
X89339352Y-104150299D01*
X89339354Y-104150304D01*
X89396950Y-104263342D01*
X89486658Y-104353050D01*
X89599696Y-104410646D01*
X89693481Y-104425500D01*
X90306518Y-104425499D01*
X90306520Y-104425499D01*
X90306521Y-104425498D01*
X90353411Y-104418072D01*
X90400299Y-104410647D01*
X90400299Y-104410646D01*
X90400304Y-104410646D01*
X90513342Y-104353050D01*
X90603050Y-104263342D01*
X90619065Y-104231910D01*
X90633004Y-104204555D01*
X90676268Y-104161290D01*
X90721213Y-104150500D01*
X91047748Y-104150500D01*
X91105939Y-104169407D01*
X91136688Y-104206019D01*
X91185802Y-104306483D01*
X91268517Y-104389198D01*
X91309324Y-104409147D01*
X91373604Y-104440572D01*
X91373605Y-104440572D01*
X91373607Y-104440573D01*
X91441740Y-104450500D01*
X91441743Y-104450500D01*
X92683257Y-104450500D01*
X92683260Y-104450500D01*
X92751393Y-104440573D01*
X92856483Y-104389198D01*
X92939198Y-104306483D01*
X92990573Y-104201393D01*
X93000500Y-104133260D01*
X93000500Y-103766740D01*
X92990573Y-103698607D01*
X92984475Y-103686134D01*
X92958838Y-103633691D01*
X92939198Y-103593517D01*
X92856483Y-103510802D01*
X92849070Y-103507178D01*
X92751395Y-103459427D01*
X92724139Y-103455456D01*
X92683260Y-103449500D01*
X91441740Y-103449500D01*
X91373607Y-103459427D01*
X91312212Y-103489441D01*
X91268732Y-103499500D01*
X90721213Y-103499500D01*
X90663022Y-103480593D01*
X90633004Y-103445445D01*
X90603051Y-103386660D01*
X90603050Y-103386658D01*
X90513342Y-103296950D01*
X90400304Y-103239354D01*
X90400305Y-103239354D01*
X90306522Y-103224500D01*
X90306519Y-103224500D01*
X89900835Y-103224500D01*
X89842644Y-103205593D01*
X89830831Y-103195504D01*
X89573083Y-102937756D01*
X89545306Y-102883239D01*
X89554877Y-102822807D01*
X89598142Y-102779542D01*
X89658573Y-102769971D01*
X89693481Y-102775500D01*
X90306518Y-102775499D01*
X90306520Y-102775499D01*
X90306521Y-102775498D01*
X90353411Y-102768072D01*
X90400299Y-102760647D01*
X90400299Y-102760646D01*
X90400304Y-102760646D01*
X90513342Y-102703050D01*
X90603050Y-102613342D01*
X90627118Y-102566106D01*
X90633004Y-102554555D01*
X90676268Y-102511290D01*
X90721213Y-102500500D01*
X91268732Y-102500500D01*
X91312212Y-102510559D01*
X91373607Y-102540573D01*
X91441740Y-102550500D01*
X91441743Y-102550500D01*
X92683257Y-102550500D01*
X92683260Y-102550500D01*
X92751393Y-102540573D01*
X92856483Y-102489198D01*
X92939198Y-102406483D01*
X92939198Y-102406480D01*
X92941184Y-102404496D01*
X92995701Y-102376719D01*
X93011188Y-102375500D01*
X93094639Y-102375500D01*
X93152830Y-102394407D01*
X93188794Y-102443907D01*
X93188794Y-102505093D01*
X93152830Y-102554593D01*
X93148918Y-102556945D01*
X93143519Y-102560800D01*
X93060801Y-102643518D01*
X93009427Y-102748604D01*
X93006314Y-102769971D01*
X92999500Y-102816740D01*
X92999500Y-103183260D01*
X93005331Y-103223281D01*
X93009427Y-103251395D01*
X93049586Y-103333540D01*
X93060802Y-103356483D01*
X93143517Y-103439198D01*
X93197285Y-103465483D01*
X93248604Y-103490572D01*
X93248605Y-103490572D01*
X93248607Y-103490573D01*
X93316740Y-103500500D01*
X93513000Y-103500500D01*
X93571191Y-103519407D01*
X93607155Y-103568907D01*
X93612000Y-103599500D01*
X93612000Y-104886665D01*
X93593093Y-104944856D01*
X93583004Y-104956669D01*
X92394169Y-106145504D01*
X92339652Y-106173281D01*
X92324165Y-106174500D01*
X89798932Y-106174500D01*
X89798916Y-106174499D01*
X89792853Y-106174499D01*
X89707147Y-106174499D01*
X89707144Y-106174499D01*
X89624361Y-106196681D01*
X89600834Y-106210265D01*
X89587250Y-106218108D01*
X89563721Y-106231692D01*
X89550137Y-106239535D01*
X89489534Y-106300137D01*
X89489535Y-106300138D01*
X88938531Y-106851142D01*
X88895683Y-106925357D01*
X88888472Y-106952264D01*
X88888473Y-106952265D01*
X88880263Y-106982906D01*
X88873500Y-107008147D01*
X88873500Y-108055565D01*
X88873500Y-108141271D01*
X88880339Y-108166795D01*
X88895683Y-108224061D01*
X88938531Y-108298275D01*
X88938535Y-108298280D01*
X89340115Y-108699859D01*
X89340117Y-108699862D01*
X89391929Y-108751674D01*
X89419705Y-108806189D01*
X89410134Y-108866621D01*
X89400638Y-108879704D01*
X89401531Y-108880353D01*
X89396950Y-108886658D01*
X89339354Y-108999695D01*
X89324500Y-109093478D01*
X89324500Y-109174584D01*
X89305593Y-109232775D01*
X89256093Y-109268739D01*
X89194907Y-109268739D01*
X89155496Y-109244588D01*
X88228496Y-108317588D01*
X88200719Y-108263071D01*
X88199500Y-108247584D01*
X88199500Y-100066656D01*
X88218407Y-100008465D01*
X88267907Y-99972501D01*
X88324119Y-99971029D01*
X88434108Y-100000500D01*
X88434110Y-100000500D01*
X88565890Y-100000500D01*
X88565892Y-100000500D01*
X88693186Y-99966392D01*
X88693188Y-99966390D01*
X88693190Y-99966390D01*
X88807309Y-99900503D01*
X88807310Y-99900502D01*
X88807314Y-99900500D01*
X88826593Y-99881221D01*
X88853319Y-99854496D01*
X88907836Y-99826719D01*
X88923322Y-99825500D01*
X103225165Y-99825500D01*
X103283356Y-99844407D01*
X103319320Y-99893907D01*
X103319320Y-99955093D01*
X103295169Y-99994502D01*
X102482358Y-100807314D01*
X100094167Y-103195504D01*
X100039650Y-103223281D01*
X100024163Y-103224500D01*
X99693479Y-103224500D01*
X99693476Y-103224501D01*
X99599700Y-103239352D01*
X99599695Y-103239354D01*
X99486659Y-103296949D01*
X99396949Y-103386659D01*
X99339354Y-103499695D01*
X99332814Y-103540987D01*
X99305036Y-103595504D01*
X99250520Y-103623281D01*
X99235033Y-103624500D01*
X98886188Y-103624500D01*
X98827997Y-103605593D01*
X98816184Y-103595504D01*
X98814198Y-103593518D01*
X98814198Y-103593517D01*
X98731483Y-103510802D01*
X98724070Y-103507178D01*
X98626395Y-103459427D01*
X98599139Y-103455456D01*
X98558260Y-103449500D01*
X97316740Y-103449500D01*
X97282673Y-103454463D01*
X97248604Y-103459427D01*
X97143518Y-103510801D01*
X97060801Y-103593518D01*
X97009427Y-103698604D01*
X97006097Y-103721463D01*
X96999500Y-103766740D01*
X96999500Y-104133260D01*
X97002012Y-104150500D01*
X97009427Y-104201395D01*
X97044490Y-104273116D01*
X97060802Y-104306483D01*
X97143517Y-104389198D01*
X97184324Y-104409147D01*
X97248604Y-104440572D01*
X97248605Y-104440572D01*
X97248607Y-104440573D01*
X97316740Y-104450500D01*
X97316743Y-104450500D01*
X98558257Y-104450500D01*
X98558260Y-104450500D01*
X98626393Y-104440573D01*
X98731483Y-104389198D01*
X98814198Y-104306483D01*
X98814198Y-104306480D01*
X98816184Y-104304496D01*
X98870701Y-104276719D01*
X98886188Y-104275500D01*
X99368100Y-104275500D01*
X99426291Y-104294407D01*
X99438103Y-104304496D01*
X99483108Y-104349500D01*
X99486658Y-104353050D01*
X99599696Y-104410646D01*
X99693481Y-104425500D01*
X100306518Y-104425499D01*
X100306520Y-104425499D01*
X100306521Y-104425498D01*
X100353411Y-104418072D01*
X100400299Y-104410647D01*
X100400299Y-104410646D01*
X100400304Y-104410646D01*
X100513342Y-104353050D01*
X100603050Y-104263342D01*
X100660646Y-104150304D01*
X100675500Y-104056519D01*
X100675499Y-103593482D01*
X100675373Y-103592686D01*
X100675415Y-103592417D01*
X100675194Y-103589598D01*
X100675870Y-103589544D01*
X100684933Y-103532253D01*
X100703144Y-103507181D01*
X105954288Y-98256036D01*
X106008803Y-98228261D01*
X106069235Y-98237832D01*
G37*
G04 #@! TD.AperFunction*
G04 #@! TA.AperFunction,Conductor*
G36*
X109858691Y-94769407D02*
G01*
X109894655Y-94818907D01*
X109898765Y-94844863D01*
X109899024Y-94844838D01*
X109899455Y-94849215D01*
X109899500Y-94849500D01*
X109899500Y-94849672D01*
X109899501Y-94849684D01*
X109914033Y-94922736D01*
X109914035Y-94922742D01*
X109969397Y-95005599D01*
X109969400Y-95005602D01*
X110035100Y-95049500D01*
X110052260Y-95060966D01*
X110107808Y-95072015D01*
X110125315Y-95075498D01*
X110125320Y-95075498D01*
X110125326Y-95075500D01*
X110125327Y-95075500D01*
X110200500Y-95075500D01*
X110215412Y-95080345D01*
X110231093Y-95080345D01*
X110243778Y-95089561D01*
X110258691Y-95094407D01*
X110267907Y-95107092D01*
X110280593Y-95116309D01*
X110285438Y-95131221D01*
X110294655Y-95143907D01*
X110299500Y-95174500D01*
X110299500Y-95234521D01*
X110280593Y-95292712D01*
X110270504Y-95304525D01*
X110140489Y-95434540D01*
X110140488Y-95434539D01*
X110084539Y-95490489D01*
X110044980Y-95559007D01*
X110044978Y-95559011D01*
X110024500Y-95635435D01*
X110024500Y-96266048D01*
X110005593Y-96324239D01*
X109970446Y-96354257D01*
X109886659Y-96396949D01*
X109796949Y-96486659D01*
X109739354Y-96599695D01*
X109724500Y-96693477D01*
X109724500Y-97306520D01*
X109724501Y-97306523D01*
X109739352Y-97400299D01*
X109739354Y-97400304D01*
X109796950Y-97513342D01*
X109886658Y-97603050D01*
X109999696Y-97660646D01*
X110093481Y-97675500D01*
X110439836Y-97675499D01*
X110498027Y-97694406D01*
X110533991Y-97743906D01*
X110533991Y-97800198D01*
X110535288Y-97800546D01*
X110533608Y-97806812D01*
X110533608Y-97806814D01*
X110499500Y-97934108D01*
X110499500Y-98065892D01*
X110526494Y-98166635D01*
X110533609Y-98193190D01*
X110599496Y-98307309D01*
X110599498Y-98307311D01*
X110599500Y-98307314D01*
X110645505Y-98353319D01*
X110673281Y-98407834D01*
X110674500Y-98423321D01*
X110674500Y-98824165D01*
X110655593Y-98882356D01*
X110645504Y-98894169D01*
X107061446Y-102478227D01*
X107006929Y-102506004D01*
X106946497Y-102496433D01*
X106903232Y-102453168D01*
X106892442Y-102408223D01*
X106892442Y-98490263D01*
X106911349Y-98432072D01*
X106921432Y-98420265D01*
X106967442Y-98374256D01*
X106972976Y-98364671D01*
X107033332Y-98260132D01*
X107033332Y-98260130D01*
X107033334Y-98260128D01*
X107067442Y-98132834D01*
X107067442Y-98001050D01*
X107033334Y-97873756D01*
X107033332Y-97873753D01*
X107033332Y-97873751D01*
X106967445Y-97759632D01*
X106967443Y-97759630D01*
X106967442Y-97759628D01*
X106874256Y-97666442D01*
X106866429Y-97661923D01*
X106825489Y-97616454D01*
X106819093Y-97555604D01*
X106849686Y-97502616D01*
X106890306Y-97480560D01*
X106943186Y-97466392D01*
X107057314Y-97400500D01*
X107150500Y-97307314D01*
X107150957Y-97306522D01*
X107216390Y-97193190D01*
X107216390Y-97193188D01*
X107216392Y-97193186D01*
X107250500Y-97065892D01*
X107250500Y-96934108D01*
X107216392Y-96806814D01*
X107183285Y-96749472D01*
X107163211Y-96714702D01*
X107150490Y-96654854D01*
X107175377Y-96598958D01*
X107228365Y-96568365D01*
X107248948Y-96566202D01*
X107739868Y-96566202D01*
X107798059Y-96585109D01*
X107809871Y-96595198D01*
X108045503Y-96830829D01*
X108073281Y-96885346D01*
X108074500Y-96900833D01*
X108074500Y-97306520D01*
X108074501Y-97306523D01*
X108089352Y-97400299D01*
X108089354Y-97400304D01*
X108146950Y-97513342D01*
X108236658Y-97603050D01*
X108349696Y-97660646D01*
X108443481Y-97675500D01*
X108906518Y-97675499D01*
X108906520Y-97675499D01*
X108906521Y-97675498D01*
X108953411Y-97668072D01*
X109000299Y-97660647D01*
X109000299Y-97660646D01*
X109000304Y-97660646D01*
X109113342Y-97603050D01*
X109203050Y-97513342D01*
X109260646Y-97400304D01*
X109275500Y-97306519D01*
X109275499Y-96693482D01*
X109271025Y-96665231D01*
X109260647Y-96599700D01*
X109260646Y-96599698D01*
X109260646Y-96599696D01*
X109203050Y-96486658D01*
X109113342Y-96396950D01*
X109000304Y-96339354D01*
X109000305Y-96339354D01*
X108906522Y-96324500D01*
X108906519Y-96324500D01*
X108500835Y-96324500D01*
X108442644Y-96305593D01*
X108430832Y-96295504D01*
X108228661Y-96093334D01*
X108200883Y-96038817D01*
X108210454Y-95978385D01*
X108253719Y-95935120D01*
X108283177Y-95925549D01*
X108283486Y-95925500D01*
X108283488Y-95925500D01*
X108383126Y-95909719D01*
X108503220Y-95848528D01*
X108598528Y-95753220D01*
X108659719Y-95633126D01*
X108675500Y-95533488D01*
X108675500Y-95065479D01*
X108694407Y-95007288D01*
X108704496Y-94995475D01*
X108920475Y-94779496D01*
X108974992Y-94751719D01*
X108990479Y-94750500D01*
X109800500Y-94750500D01*
X109858691Y-94769407D01*
G37*
G04 #@! TD.AperFunction*
G04 #@! TA.AperFunction,Conductor*
G36*
X124242396Y-78519407D02*
G01*
X124278360Y-78568907D01*
X124278360Y-78630093D01*
X124260733Y-78662305D01*
X124104565Y-78852596D01*
X123908029Y-79146732D01*
X123741266Y-79458721D01*
X123741257Y-79458739D01*
X123605878Y-79785573D01*
X123503191Y-80124092D01*
X123434174Y-80471063D01*
X123412258Y-80693581D01*
X123399577Y-80822343D01*
X123399500Y-80823121D01*
X123399500Y-81176878D01*
X123434174Y-81528936D01*
X123503191Y-81875907D01*
X123605878Y-82214426D01*
X123715579Y-82479266D01*
X123741261Y-82541269D01*
X123908024Y-82853259D01*
X123908027Y-82853264D01*
X123908029Y-82853267D01*
X123959974Y-82931008D01*
X124104564Y-83147402D01*
X124328988Y-83420864D01*
X124579136Y-83671012D01*
X124852598Y-83895436D01*
X125146741Y-84091976D01*
X125458731Y-84258739D01*
X125785565Y-84394118D01*
X125785567Y-84394118D01*
X125785573Y-84394121D01*
X126072286Y-84481093D01*
X126124095Y-84496809D01*
X126471060Y-84565825D01*
X126823119Y-84600500D01*
X126823122Y-84600500D01*
X127176878Y-84600500D01*
X127176881Y-84600500D01*
X127528940Y-84565825D01*
X127875905Y-84496809D01*
X128079621Y-84435013D01*
X128214426Y-84394121D01*
X128214428Y-84394119D01*
X128214435Y-84394118D01*
X128541269Y-84258739D01*
X128853259Y-84091976D01*
X129147402Y-83895436D01*
X129337697Y-83739265D01*
X129394672Y-83716966D01*
X129453875Y-83732414D01*
X129492690Y-83779711D01*
X129499500Y-83815794D01*
X129499500Y-86648076D01*
X129480593Y-86706267D01*
X129431093Y-86742231D01*
X129386411Y-86746068D01*
X129375505Y-86744500D01*
X129375500Y-86744500D01*
X120232465Y-86744500D01*
X120174274Y-86725593D01*
X120138310Y-86676093D01*
X120138310Y-86614907D01*
X120150147Y-86590502D01*
X120160775Y-86574597D01*
X120161704Y-86572356D01*
X120191467Y-86500499D01*
X120213580Y-86447114D01*
X120240500Y-86311780D01*
X120240500Y-86173792D01*
X120240500Y-85826139D01*
X120259407Y-85767948D01*
X120269490Y-85756141D01*
X120355977Y-85669655D01*
X120470941Y-85497598D01*
X120550130Y-85306420D01*
X120590500Y-85103465D01*
X120590500Y-84896535D01*
X120550130Y-84693580D01*
X120550128Y-84693577D01*
X120549402Y-84689923D01*
X120556594Y-84629162D01*
X120576493Y-84600608D01*
X121170489Y-84006614D01*
X121229799Y-83903887D01*
X121239043Y-83869386D01*
X121260500Y-83789309D01*
X121260500Y-82015327D01*
X121279407Y-81957136D01*
X121304499Y-81933011D01*
X121307595Y-81930942D01*
X121307598Y-81930941D01*
X121479655Y-81815977D01*
X121625977Y-81669655D01*
X121740941Y-81497598D01*
X121820130Y-81306420D01*
X121860500Y-81103465D01*
X121860500Y-80896535D01*
X121820130Y-80693580D01*
X121740941Y-80502402D01*
X121625977Y-80330345D01*
X121479655Y-80184023D01*
X121479651Y-80184020D01*
X121307597Y-80069058D01*
X121116418Y-79989869D01*
X120913467Y-79949500D01*
X120913465Y-79949500D01*
X120706535Y-79949500D01*
X120706532Y-79949500D01*
X120503581Y-79989869D01*
X120312402Y-80069058D01*
X120140348Y-80184020D01*
X119994020Y-80330348D01*
X119879058Y-80502402D01*
X119799869Y-80693581D01*
X119759500Y-80896532D01*
X119759500Y-81103467D01*
X119799869Y-81306418D01*
X119879058Y-81497597D01*
X119899998Y-81528936D01*
X119994023Y-81669655D01*
X120140345Y-81815977D01*
X120312402Y-81930941D01*
X120312404Y-81930942D01*
X120315501Y-81933011D01*
X120353381Y-81981061D01*
X120359500Y-82015327D01*
X120359500Y-83502389D01*
X120340593Y-83560580D01*
X120330503Y-83572393D01*
X119939392Y-83963503D01*
X119884876Y-83991280D01*
X119850075Y-83990597D01*
X119643467Y-83949500D01*
X119643465Y-83949500D01*
X119436535Y-83949500D01*
X119436532Y-83949500D01*
X119233581Y-83989869D01*
X119042402Y-84069058D01*
X118870348Y-84184020D01*
X118724020Y-84330348D01*
X118609058Y-84502402D01*
X118529869Y-84693581D01*
X118489500Y-84896532D01*
X118489500Y-85103467D01*
X118529869Y-85306418D01*
X118609058Y-85497597D01*
X118719414Y-85662757D01*
X118724023Y-85669655D01*
X118810505Y-85756137D01*
X118814130Y-85763252D01*
X118820593Y-85767948D01*
X118827756Y-85789996D01*
X118838281Y-85810652D01*
X118839500Y-85826139D01*
X118839500Y-85911621D01*
X118820593Y-85969812D01*
X118810504Y-85981625D01*
X117469504Y-87322625D01*
X117414987Y-87350402D01*
X117354555Y-87340831D01*
X117311290Y-87297566D01*
X117300500Y-87252621D01*
X117300500Y-86078731D01*
X117319407Y-86020540D01*
X117361614Y-85987267D01*
X117497598Y-85930941D01*
X117669655Y-85815977D01*
X117815977Y-85669655D01*
X117930941Y-85497598D01*
X118010130Y-85306420D01*
X118050500Y-85103465D01*
X118050500Y-84896535D01*
X118010130Y-84693580D01*
X117930941Y-84502402D01*
X117815977Y-84330345D01*
X117669655Y-84184023D01*
X117531887Y-84091970D01*
X117497597Y-84069058D01*
X117306418Y-83989869D01*
X117103467Y-83949500D01*
X117103465Y-83949500D01*
X116896535Y-83949500D01*
X116896532Y-83949500D01*
X116693581Y-83989869D01*
X116502402Y-84069058D01*
X116330348Y-84184020D01*
X116184020Y-84330348D01*
X116069058Y-84502402D01*
X115989869Y-84693581D01*
X115949500Y-84896532D01*
X115949500Y-85103467D01*
X115989869Y-85306418D01*
X116069058Y-85497597D01*
X116179414Y-85662757D01*
X116184023Y-85669655D01*
X116330345Y-85815977D01*
X116502402Y-85930941D01*
X116502403Y-85930941D01*
X116502404Y-85930942D01*
X116511484Y-85934703D01*
X116638385Y-85987267D01*
X116684911Y-86027003D01*
X116699500Y-86078731D01*
X116699500Y-87484521D01*
X116680593Y-87542712D01*
X116670504Y-87554525D01*
X113169504Y-91055525D01*
X113114987Y-91083302D01*
X113054555Y-91073731D01*
X113011290Y-91030466D01*
X113000500Y-90985521D01*
X113000500Y-90934109D01*
X113000500Y-90934108D01*
X112966392Y-90806814D01*
X112966390Y-90806811D01*
X112966390Y-90806809D01*
X112900503Y-90692690D01*
X112900501Y-90692688D01*
X112900500Y-90692686D01*
X112807314Y-90599500D01*
X112807311Y-90599498D01*
X112807309Y-90599496D01*
X112693189Y-90533609D01*
X112693191Y-90533609D01*
X112643799Y-90520375D01*
X112565892Y-90499500D01*
X112565890Y-90499500D01*
X112533813Y-90499500D01*
X112475622Y-90480593D01*
X112439658Y-90431093D01*
X112434813Y-90400500D01*
X112434813Y-90368422D01*
X112434083Y-90365697D01*
X112400705Y-90241127D01*
X112400703Y-90241124D01*
X112400703Y-90241122D01*
X112334816Y-90127003D01*
X112334814Y-90127001D01*
X112334813Y-90126999D01*
X112241627Y-90033813D01*
X112241624Y-90033811D01*
X112241622Y-90033809D01*
X112131173Y-89970041D01*
X112090232Y-89924572D01*
X112083836Y-89863721D01*
X112110667Y-89814303D01*
X113549460Y-88375511D01*
X113549463Y-88375506D01*
X113589020Y-88306992D01*
X113589020Y-88306990D01*
X113589022Y-88306988D01*
X113609500Y-88230562D01*
X113609500Y-88151438D01*
X113609500Y-84106478D01*
X113628407Y-84048287D01*
X113638490Y-84036480D01*
X115595474Y-82079495D01*
X115649991Y-82051719D01*
X115665478Y-82050500D01*
X115833464Y-82050500D01*
X115833465Y-82050500D01*
X116036420Y-82010130D01*
X116227598Y-81930941D01*
X116399655Y-81815977D01*
X116545977Y-81669655D01*
X116660941Y-81497598D01*
X116740130Y-81306420D01*
X116780500Y-81103465D01*
X116780500Y-80896535D01*
X116740130Y-80693580D01*
X116660941Y-80502402D01*
X116545977Y-80330345D01*
X116534133Y-80318501D01*
X116506358Y-80263987D01*
X116515929Y-80203555D01*
X116559194Y-80160290D01*
X116604139Y-80149500D01*
X116953521Y-80149500D01*
X117011712Y-80168407D01*
X117023525Y-80178496D01*
X117294736Y-80449707D01*
X117322513Y-80504224D01*
X117316196Y-80557596D01*
X117259870Y-80693578D01*
X117259870Y-80693580D01*
X117219500Y-80896532D01*
X117219500Y-81103467D01*
X117259869Y-81306418D01*
X117339058Y-81497597D01*
X117359998Y-81528936D01*
X117454023Y-81669655D01*
X117600345Y-81815977D01*
X117772402Y-81930941D01*
X117963580Y-82010130D01*
X118166535Y-82050500D01*
X118166536Y-82050500D01*
X118373464Y-82050500D01*
X118373465Y-82050500D01*
X118576420Y-82010130D01*
X118767598Y-81930941D01*
X118939655Y-81815977D01*
X119085977Y-81669655D01*
X119200941Y-81497598D01*
X119280130Y-81306420D01*
X119320500Y-81103465D01*
X119320500Y-80896535D01*
X119280130Y-80693580D01*
X119200941Y-80502402D01*
X119085977Y-80330345D01*
X118939655Y-80184023D01*
X118939651Y-80184020D01*
X118767597Y-80069058D01*
X118576418Y-79989869D01*
X118373467Y-79949500D01*
X118373465Y-79949500D01*
X118166535Y-79949500D01*
X118166532Y-79949500D01*
X117963580Y-79989870D01*
X117963578Y-79989870D01*
X117827596Y-80046196D01*
X117766600Y-80050997D01*
X117719708Y-80024736D01*
X117303511Y-79608540D01*
X117254289Y-79580121D01*
X117254287Y-79580121D01*
X117234989Y-79568979D01*
X117234986Y-79568978D01*
X117158564Y-79548500D01*
X117158562Y-79548500D01*
X115213678Y-79548500D01*
X115213675Y-79548500D01*
X115137252Y-79568978D01*
X115117951Y-79580122D01*
X115117950Y-79580121D01*
X115068730Y-79608539D01*
X114315489Y-80361780D01*
X114315488Y-80361779D01*
X114259539Y-80417729D01*
X114219980Y-80486247D01*
X114219978Y-80486251D01*
X114199500Y-80562675D01*
X114199500Y-81834521D01*
X114180593Y-81892712D01*
X114170504Y-81904525D01*
X112723489Y-83351540D01*
X112723488Y-83351539D01*
X112667539Y-83407489D01*
X112627980Y-83476007D01*
X112627978Y-83476011D01*
X112607500Y-83552435D01*
X112607500Y-87859420D01*
X112588593Y-87917611D01*
X112578503Y-87929424D01*
X112180068Y-88327858D01*
X112125552Y-88355635D01*
X112065120Y-88346064D01*
X112021855Y-88302799D01*
X112014439Y-88283481D01*
X111991438Y-88197637D01*
X111991436Y-88197634D01*
X111991436Y-88197632D01*
X111925549Y-88083513D01*
X111925547Y-88083511D01*
X111925546Y-88083509D01*
X111832360Y-87990323D01*
X111832357Y-87990321D01*
X111832355Y-87990319D01*
X111718235Y-87924432D01*
X111718237Y-87924432D01*
X111638962Y-87903191D01*
X111590938Y-87890323D01*
X111590936Y-87890323D01*
X111525881Y-87890323D01*
X111467690Y-87871416D01*
X111455878Y-87861327D01*
X111208085Y-87613535D01*
X111208080Y-87613531D01*
X111133865Y-87570683D01*
X111133867Y-87570683D01*
X111101744Y-87562076D01*
X111051076Y-87548500D01*
X111051074Y-87548500D01*
X108936188Y-87548500D01*
X108877997Y-87529593D01*
X108842033Y-87480093D01*
X108842033Y-87418907D01*
X108866182Y-87379498D01*
X108939198Y-87306483D01*
X108990573Y-87201393D01*
X109000500Y-87133260D01*
X109000500Y-86766740D01*
X108990573Y-86698607D01*
X108986037Y-86689329D01*
X108965483Y-86647285D01*
X108939198Y-86593517D01*
X108856483Y-86510802D01*
X108856481Y-86510801D01*
X108751395Y-86459427D01*
X108724139Y-86455456D01*
X108683260Y-86449500D01*
X108683257Y-86449500D01*
X108593664Y-86449500D01*
X108535473Y-86430593D01*
X108523666Y-86420509D01*
X108509043Y-86405886D01*
X108500982Y-86400500D01*
X108394308Y-86329223D01*
X108266828Y-86276420D01*
X108131496Y-86249500D01*
X108131494Y-86249500D01*
X107993506Y-86249500D01*
X107993503Y-86249500D01*
X107858172Y-86276420D01*
X107858170Y-86276420D01*
X107818231Y-86292964D01*
X107780346Y-86300500D01*
X106544076Y-86300500D01*
X106499131Y-86289709D01*
X106400304Y-86239354D01*
X106400305Y-86239354D01*
X106306522Y-86224500D01*
X105693479Y-86224500D01*
X105693476Y-86224501D01*
X105599700Y-86239352D01*
X105599695Y-86239354D01*
X105544854Y-86267297D01*
X105500868Y-86289709D01*
X105455924Y-86300500D01*
X104972888Y-86300500D01*
X104914697Y-86281593D01*
X104878733Y-86232093D01*
X104874922Y-86187231D01*
X104875499Y-86183266D01*
X104875500Y-86183258D01*
X104875500Y-85816743D01*
X104875389Y-85815979D01*
X104867701Y-85763214D01*
X104870244Y-85748349D01*
X104867886Y-85733453D01*
X104875275Y-85718951D01*
X104878021Y-85702907D01*
X104895665Y-85678937D01*
X104901322Y-85673281D01*
X104920108Y-85654495D01*
X104974625Y-85626719D01*
X104990110Y-85625500D01*
X105368100Y-85625500D01*
X105426291Y-85644407D01*
X105438103Y-85654496D01*
X105462545Y-85678937D01*
X105486658Y-85703050D01*
X105599696Y-85760646D01*
X105693481Y-85775500D01*
X106306518Y-85775499D01*
X106306520Y-85775499D01*
X106306521Y-85775498D01*
X106354197Y-85767948D01*
X106400299Y-85760647D01*
X106400299Y-85760646D01*
X106400304Y-85760646D01*
X106513342Y-85703050D01*
X106603050Y-85613342D01*
X106631786Y-85556945D01*
X106633004Y-85554555D01*
X106676268Y-85511290D01*
X106721213Y-85500500D01*
X107268732Y-85500500D01*
X107312212Y-85510559D01*
X107373607Y-85540573D01*
X107441740Y-85550500D01*
X107441743Y-85550500D01*
X108683257Y-85550500D01*
X108683260Y-85550500D01*
X108751393Y-85540573D01*
X108856483Y-85489198D01*
X108939198Y-85406483D01*
X108990573Y-85301393D01*
X108997455Y-85254157D01*
X109004663Y-85239565D01*
X109007210Y-85223488D01*
X109017873Y-85212824D01*
X109024553Y-85199303D01*
X109038964Y-85191733D01*
X109050475Y-85180223D01*
X109065371Y-85177863D01*
X109078721Y-85170852D01*
X109094827Y-85173198D01*
X109110907Y-85170652D01*
X109124345Y-85177499D01*
X109139267Y-85179673D01*
X109165424Y-85198429D01*
X109208004Y-85241009D01*
X109235781Y-85295526D01*
X109237000Y-85311013D01*
X109237000Y-85453302D01*
X109218093Y-85511493D01*
X109181482Y-85542241D01*
X109156218Y-85554593D01*
X109143517Y-85560802D01*
X109060801Y-85643518D01*
X109009427Y-85748604D01*
X109007423Y-85762362D01*
X108999500Y-85816740D01*
X108999500Y-86183260D01*
X109000947Y-86193190D01*
X109009427Y-86251395D01*
X109053384Y-86341309D01*
X109060802Y-86356483D01*
X109143517Y-86439198D01*
X109197285Y-86465483D01*
X109248604Y-86490572D01*
X109248605Y-86490572D01*
X109248607Y-86490573D01*
X109316740Y-86500500D01*
X109406336Y-86500500D01*
X109464527Y-86519407D01*
X109476340Y-86529496D01*
X109490958Y-86544114D01*
X109605682Y-86620771D01*
X109605693Y-86620777D01*
X109652783Y-86640282D01*
X109733172Y-86673580D01*
X109868507Y-86700500D01*
X109868508Y-86700500D01*
X110006492Y-86700500D01*
X110006493Y-86700500D01*
X110141828Y-86673580D01*
X110269311Y-86620775D01*
X110384042Y-86544114D01*
X110398660Y-86529496D01*
X110453177Y-86501719D01*
X110468664Y-86500500D01*
X110558257Y-86500500D01*
X110558260Y-86500500D01*
X110626393Y-86490573D01*
X110731483Y-86439198D01*
X110814198Y-86356483D01*
X110865573Y-86251393D01*
X110875500Y-86183260D01*
X110875500Y-85816740D01*
X110865573Y-85748607D01*
X110814198Y-85643517D01*
X110731483Y-85560802D01*
X110693518Y-85542242D01*
X110649545Y-85499699D01*
X110638000Y-85453302D01*
X110638000Y-84910859D01*
X110637999Y-84910851D01*
X110632660Y-84884011D01*
X110611080Y-84775520D01*
X110577140Y-84693581D01*
X110558276Y-84648039D01*
X110557548Y-84646950D01*
X110481614Y-84533305D01*
X108727906Y-82779597D01*
X108700129Y-82725080D01*
X108709700Y-82664648D01*
X108718255Y-82650805D01*
X108727793Y-82637882D01*
X108772646Y-82509699D01*
X108775499Y-82479273D01*
X108775500Y-82479273D01*
X108775500Y-79520727D01*
X108775499Y-79520725D01*
X108772646Y-79490305D01*
X108772646Y-79490301D01*
X108727793Y-79362118D01*
X108709461Y-79337279D01*
X108647154Y-79252855D01*
X108647152Y-79252853D01*
X108647150Y-79252850D01*
X108647146Y-79252847D01*
X108647144Y-79252845D01*
X108537883Y-79172207D01*
X108409703Y-79127355D01*
X108409694Y-79127353D01*
X108379274Y-79124500D01*
X108379266Y-79124500D01*
X107545734Y-79124500D01*
X107545725Y-79124500D01*
X107515305Y-79127353D01*
X107515296Y-79127355D01*
X107387116Y-79172207D01*
X107277855Y-79252845D01*
X107277845Y-79252855D01*
X107197207Y-79362116D01*
X107152355Y-79490296D01*
X107152353Y-79490305D01*
X107149500Y-79520725D01*
X107149500Y-82479274D01*
X107152353Y-82509694D01*
X107152355Y-82509703D01*
X107197207Y-82637883D01*
X107197207Y-82637884D01*
X107242654Y-82699460D01*
X107261997Y-82757507D01*
X107262000Y-82758249D01*
X107262000Y-82935854D01*
X107262000Y-83073842D01*
X107287401Y-83201542D01*
X107288920Y-83209175D01*
X107288920Y-83209177D01*
X107341723Y-83336656D01*
X107397988Y-83420864D01*
X107418386Y-83451391D01*
X107916495Y-83949500D01*
X108347491Y-84380496D01*
X108375268Y-84435013D01*
X108365697Y-84495445D01*
X108322432Y-84538710D01*
X108277487Y-84549500D01*
X107441740Y-84549500D01*
X107373607Y-84559427D01*
X107312212Y-84589441D01*
X107268732Y-84599500D01*
X106443984Y-84599500D01*
X106408007Y-84590862D01*
X106407715Y-84591762D01*
X106400305Y-84589354D01*
X106306520Y-84574500D01*
X105693479Y-84574500D01*
X105693476Y-84574501D01*
X105599700Y-84589352D01*
X105599695Y-84589354D01*
X105486658Y-84646950D01*
X105486656Y-84646951D01*
X105438103Y-84695504D01*
X105383586Y-84723281D01*
X105368100Y-84724500D01*
X104703191Y-84724500D01*
X104625524Y-84745311D01*
X104625523Y-84745310D01*
X104588611Y-84755201D01*
X104588609Y-84755202D01*
X104485890Y-84814507D01*
X103829893Y-85470504D01*
X103775376Y-85498281D01*
X103759889Y-85499500D01*
X103316740Y-85499500D01*
X103282673Y-85504463D01*
X103248604Y-85509427D01*
X103143518Y-85560801D01*
X103060800Y-85643519D01*
X103060798Y-85643522D01*
X103052918Y-85659641D01*
X103052323Y-85660255D01*
X103052189Y-85661103D01*
X103031095Y-85682196D01*
X103010374Y-85703614D01*
X103009530Y-85703761D01*
X103008924Y-85704368D01*
X102979462Y-85709034D01*
X102950108Y-85714181D01*
X102949338Y-85713804D01*
X102948492Y-85713939D01*
X102921897Y-85700388D01*
X102895140Y-85687307D01*
X102894033Y-85686219D01*
X102846092Y-85638278D01*
X102818317Y-85583764D01*
X102827888Y-85523332D01*
X102851547Y-85495863D01*
X102850682Y-85494998D01*
X102856480Y-85489199D01*
X102856483Y-85489198D01*
X102939198Y-85406483D01*
X102990573Y-85301393D01*
X103000500Y-85233260D01*
X103000500Y-84866740D01*
X102990573Y-84798607D01*
X102973452Y-84763586D01*
X102955332Y-84726520D01*
X102939198Y-84693517D01*
X102856483Y-84610802D01*
X102835410Y-84600500D01*
X102751395Y-84559427D01*
X102724139Y-84555456D01*
X102683260Y-84549500D01*
X101441740Y-84549500D01*
X101407673Y-84554463D01*
X101373604Y-84559427D01*
X101268518Y-84610801D01*
X101185801Y-84693518D01*
X101134427Y-84798604D01*
X101134427Y-84798607D01*
X101124500Y-84866740D01*
X101124500Y-85233260D01*
X101127545Y-85254160D01*
X101134427Y-85301395D01*
X101148654Y-85330496D01*
X101185802Y-85406483D01*
X101268517Y-85489198D01*
X101314996Y-85511920D01*
X101373604Y-85540572D01*
X101373605Y-85540572D01*
X101373607Y-85540573D01*
X101441740Y-85550500D01*
X101646337Y-85550500D01*
X101704528Y-85569407D01*
X101740492Y-85618907D01*
X101741957Y-85623855D01*
X101751546Y-85659641D01*
X101759183Y-85688143D01*
X101802031Y-85762357D01*
X101802033Y-85762359D01*
X101802035Y-85762362D01*
X101970505Y-85930832D01*
X101998281Y-85985347D01*
X101999500Y-86000834D01*
X101999500Y-86065892D01*
X102027973Y-86172154D01*
X102033609Y-86193190D01*
X102099496Y-86307309D01*
X102099498Y-86307311D01*
X102099500Y-86307314D01*
X102192686Y-86400500D01*
X102192688Y-86400501D01*
X102192690Y-86400503D01*
X102306810Y-86466390D01*
X102306808Y-86466390D01*
X102306812Y-86466391D01*
X102306814Y-86466392D01*
X102434108Y-86500500D01*
X102434110Y-86500500D01*
X102565890Y-86500500D01*
X102565892Y-86500500D01*
X102693186Y-86466392D01*
X102693188Y-86466390D01*
X102693190Y-86466390D01*
X102807309Y-86400503D01*
X102807309Y-86400502D01*
X102807314Y-86400500D01*
X102893977Y-86313836D01*
X102948491Y-86286060D01*
X103008924Y-86295631D01*
X103052188Y-86338895D01*
X103052919Y-86340359D01*
X103060800Y-86356480D01*
X103060801Y-86356481D01*
X103060802Y-86356483D01*
X103143517Y-86439198D01*
X103248607Y-86490573D01*
X103252194Y-86491095D01*
X103255364Y-86492661D01*
X103255949Y-86492842D01*
X103255920Y-86492935D01*
X103307050Y-86518190D01*
X103335505Y-86572356D01*
X103326688Y-86632903D01*
X103307929Y-86659065D01*
X102221491Y-87745504D01*
X102166974Y-87773281D01*
X102151487Y-87774500D01*
X99033184Y-87774500D01*
X98974993Y-87755593D01*
X98939029Y-87706093D01*
X98939029Y-87644907D01*
X98947447Y-87626001D01*
X98966390Y-87593189D01*
X98966389Y-87593189D01*
X98966392Y-87593186D01*
X99000500Y-87465892D01*
X99000500Y-87334108D01*
X98966392Y-87206814D01*
X98966390Y-87206811D01*
X98966390Y-87206809D01*
X98900503Y-87092690D01*
X98900501Y-87092688D01*
X98900500Y-87092686D01*
X98807314Y-86999500D01*
X98807311Y-86999498D01*
X98807309Y-86999496D01*
X98693189Y-86933609D01*
X98693191Y-86933609D01*
X98643799Y-86920375D01*
X98565892Y-86899500D01*
X98565890Y-86899500D01*
X98500835Y-86899500D01*
X98493237Y-86897031D01*
X98485348Y-86898281D01*
X98464692Y-86887756D01*
X98442644Y-86880593D01*
X98430831Y-86870504D01*
X98354496Y-86794169D01*
X98326719Y-86739652D01*
X98325500Y-86724165D01*
X98325500Y-86399500D01*
X98344407Y-86341309D01*
X98393907Y-86305345D01*
X98424500Y-86300500D01*
X98704273Y-86300500D01*
X98704273Y-86300499D01*
X98734699Y-86297646D01*
X98862882Y-86252793D01*
X98972150Y-86172150D01*
X99052793Y-86062882D01*
X99097646Y-85934699D01*
X99100499Y-85904273D01*
X99100500Y-85904273D01*
X99100500Y-85145727D01*
X99100499Y-85145725D01*
X99097646Y-85115305D01*
X99097646Y-85115301D01*
X99052793Y-84987118D01*
X99020585Y-84943478D01*
X98972154Y-84877855D01*
X98972152Y-84877853D01*
X98972150Y-84877850D01*
X98972146Y-84877847D01*
X98972144Y-84877845D01*
X98862883Y-84797207D01*
X98766802Y-84763586D01*
X98718121Y-84726520D01*
X98700500Y-84670142D01*
X98700500Y-82931008D01*
X98700499Y-82931004D01*
X98697362Y-82915233D01*
X98673580Y-82795672D01*
X98620776Y-82668191D01*
X98620776Y-82668190D01*
X98618409Y-82664648D01*
X98611688Y-82654590D01*
X98611687Y-82654586D01*
X98611686Y-82654587D01*
X98544114Y-82553457D01*
X97860161Y-81869504D01*
X97832384Y-81814987D01*
X97841955Y-81754555D01*
X97885220Y-81711290D01*
X97930165Y-81700500D01*
X101125500Y-81700500D01*
X101183691Y-81719407D01*
X101219655Y-81768907D01*
X101224500Y-81799500D01*
X101224500Y-82479274D01*
X101227353Y-82509694D01*
X101227355Y-82509703D01*
X101272207Y-82637883D01*
X101352845Y-82747144D01*
X101352847Y-82747146D01*
X101352850Y-82747150D01*
X101352853Y-82747152D01*
X101352855Y-82747154D01*
X101462116Y-82827792D01*
X101462117Y-82827792D01*
X101462118Y-82827793D01*
X101590301Y-82872646D01*
X101620725Y-82875499D01*
X101620727Y-82875500D01*
X101620734Y-82875500D01*
X102454273Y-82875500D01*
X102454273Y-82875499D01*
X102484699Y-82872646D01*
X102612882Y-82827793D01*
X102722150Y-82747150D01*
X102802793Y-82637882D01*
X102847646Y-82509699D01*
X102850499Y-82479273D01*
X102850500Y-82479273D01*
X102850500Y-79520727D01*
X102850499Y-79520725D01*
X102847646Y-79490305D01*
X102847646Y-79490301D01*
X102802793Y-79362118D01*
X102784461Y-79337279D01*
X102722154Y-79252855D01*
X102722152Y-79252853D01*
X102722150Y-79252850D01*
X102722146Y-79252847D01*
X102722144Y-79252845D01*
X102612883Y-79172207D01*
X102484703Y-79127355D01*
X102484694Y-79127353D01*
X102454274Y-79124500D01*
X102454266Y-79124500D01*
X101620734Y-79124500D01*
X101620725Y-79124500D01*
X101590305Y-79127353D01*
X101590296Y-79127355D01*
X101462116Y-79172207D01*
X101352855Y-79252845D01*
X101352845Y-79252855D01*
X101272207Y-79362116D01*
X101227355Y-79490296D01*
X101227353Y-79490305D01*
X101224500Y-79520725D01*
X101224500Y-80200500D01*
X101205593Y-80258691D01*
X101156093Y-80294655D01*
X101125500Y-80299500D01*
X97799500Y-80299500D01*
X97741309Y-80280593D01*
X97705345Y-80231093D01*
X97700500Y-80200500D01*
X97700500Y-79337281D01*
X97700500Y-79337280D01*
X97685687Y-79224764D01*
X97627698Y-79084767D01*
X97535451Y-78964549D01*
X97415233Y-78872302D01*
X97275236Y-78814313D01*
X97275234Y-78814312D01*
X97275232Y-78814312D01*
X97162720Y-78799500D01*
X94837280Y-78799500D01*
X94837279Y-78799500D01*
X94724767Y-78814312D01*
X94724761Y-78814314D01*
X94584768Y-78872301D01*
X94464551Y-78964547D01*
X94464547Y-78964551D01*
X94372301Y-79084768D01*
X94314314Y-79224761D01*
X94314312Y-79224767D01*
X94299500Y-79337279D01*
X94299500Y-81668835D01*
X94280593Y-81727026D01*
X94270504Y-81738839D01*
X93455883Y-82553460D01*
X93379223Y-82668191D01*
X93326420Y-82795670D01*
X93326420Y-82795672D01*
X93302638Y-82915233D01*
X93299500Y-82931006D01*
X93299500Y-84670142D01*
X93280593Y-84728333D01*
X93233198Y-84763586D01*
X93137117Y-84797207D01*
X93137116Y-84797207D01*
X93027855Y-84877845D01*
X93027845Y-84877855D01*
X92947207Y-84987116D01*
X92902355Y-85115296D01*
X92902353Y-85115305D01*
X92899500Y-85145725D01*
X92899500Y-85593835D01*
X92880593Y-85652026D01*
X92870504Y-85663839D01*
X92062840Y-86471503D01*
X92008323Y-86499280D01*
X91992836Y-86500499D01*
X90902388Y-86500499D01*
X90844197Y-86481592D01*
X90808233Y-86432092D01*
X90808233Y-86370906D01*
X90813447Y-86358018D01*
X90814196Y-86356484D01*
X90814198Y-86356483D01*
X90865573Y-86251393D01*
X90875500Y-86183260D01*
X90875500Y-85816740D01*
X90865573Y-85748607D01*
X90814198Y-85643517D01*
X90731483Y-85560802D01*
X90718517Y-85554463D01*
X90674545Y-85511920D01*
X90663000Y-85465524D01*
X90663000Y-82758249D01*
X90681907Y-82700058D01*
X90682346Y-82699460D01*
X90727792Y-82637884D01*
X90727792Y-82637883D01*
X90727791Y-82637883D01*
X90727793Y-82637882D01*
X90772646Y-82509699D01*
X90775499Y-82479273D01*
X90775500Y-82479273D01*
X90775500Y-79520727D01*
X90775499Y-79520725D01*
X90772646Y-79490305D01*
X90772646Y-79490301D01*
X90727793Y-79362118D01*
X90709461Y-79337279D01*
X90647154Y-79252855D01*
X90647152Y-79252853D01*
X90647150Y-79252850D01*
X90647146Y-79252847D01*
X90647144Y-79252845D01*
X90537883Y-79172207D01*
X90409703Y-79127355D01*
X90409694Y-79127353D01*
X90379274Y-79124500D01*
X90379266Y-79124500D01*
X89545734Y-79124500D01*
X89545725Y-79124500D01*
X89515305Y-79127353D01*
X89515296Y-79127355D01*
X89387116Y-79172207D01*
X89277855Y-79252845D01*
X89277845Y-79252855D01*
X89197207Y-79362116D01*
X89152355Y-79490296D01*
X89152353Y-79490305D01*
X89149500Y-79520725D01*
X89149500Y-82479274D01*
X89152353Y-82509694D01*
X89152355Y-82509703D01*
X89197207Y-82637883D01*
X89197207Y-82637884D01*
X89242654Y-82699460D01*
X89261997Y-82757507D01*
X89262000Y-82758249D01*
X89262000Y-85441080D01*
X89243093Y-85499271D01*
X89206481Y-85530021D01*
X89143518Y-85560801D01*
X89060801Y-85643518D01*
X89009427Y-85748604D01*
X89007423Y-85762362D01*
X88999500Y-85816740D01*
X88999500Y-86183260D01*
X89000947Y-86193190D01*
X89009427Y-86251394D01*
X89028158Y-86289709D01*
X89060802Y-86356483D01*
X89060803Y-86356484D01*
X89061553Y-86358018D01*
X89062556Y-86365110D01*
X89066767Y-86370906D01*
X89066767Y-86394872D01*
X89070124Y-86418601D01*
X89066767Y-86424928D01*
X89066767Y-86432092D01*
X89052679Y-86451481D01*
X89041449Y-86472650D01*
X89035014Y-86475795D01*
X89030803Y-86481592D01*
X89008008Y-86488998D01*
X88986480Y-86499523D01*
X88972612Y-86500499D01*
X88858312Y-86500499D01*
X88814832Y-86490440D01*
X88751395Y-86459427D01*
X88724139Y-86455456D01*
X88683260Y-86449500D01*
X88683257Y-86449500D01*
X88593664Y-86449500D01*
X88535473Y-86430593D01*
X88523666Y-86420509D01*
X88509043Y-86405886D01*
X88500982Y-86400500D01*
X88394308Y-86329223D01*
X88266828Y-86276420D01*
X88131496Y-86249500D01*
X88131494Y-86249500D01*
X87993506Y-86249500D01*
X87993503Y-86249500D01*
X87858172Y-86276420D01*
X87858170Y-86276420D01*
X87730691Y-86329223D01*
X87615960Y-86405883D01*
X87615957Y-86405885D01*
X87615957Y-86405886D01*
X87601337Y-86420505D01*
X87546823Y-86448281D01*
X87531336Y-86449500D01*
X87441740Y-86449500D01*
X87407673Y-86454463D01*
X87373604Y-86459427D01*
X87268518Y-86510801D01*
X87268517Y-86510801D01*
X87268517Y-86510802D01*
X87185802Y-86593517D01*
X87185801Y-86593518D01*
X87183816Y-86595504D01*
X87129299Y-86623281D01*
X87113812Y-86624500D01*
X86764967Y-86624500D01*
X86706776Y-86605593D01*
X86670812Y-86556093D01*
X86667186Y-86540986D01*
X86660647Y-86499699D01*
X86660646Y-86499697D01*
X86660646Y-86499696D01*
X86603050Y-86386658D01*
X86513342Y-86296950D01*
X86400304Y-86239354D01*
X86400305Y-86239354D01*
X86306522Y-86224500D01*
X85693479Y-86224500D01*
X85693475Y-86224501D01*
X85658570Y-86230029D01*
X85598138Y-86220457D01*
X85554874Y-86177191D01*
X85545304Y-86116759D01*
X85573079Y-86062247D01*
X85830832Y-85804493D01*
X85885347Y-85776718D01*
X85900834Y-85775499D01*
X86306521Y-85775499D01*
X86306522Y-85775498D01*
X86354197Y-85767948D01*
X86400299Y-85760647D01*
X86400299Y-85760646D01*
X86400304Y-85760646D01*
X86513342Y-85703050D01*
X86603050Y-85613342D01*
X86660646Y-85500304D01*
X86667186Y-85459013D01*
X86694964Y-85404496D01*
X86749480Y-85376719D01*
X86764967Y-85375500D01*
X87113812Y-85375500D01*
X87172003Y-85394407D01*
X87183816Y-85404496D01*
X87185801Y-85406481D01*
X87185802Y-85406483D01*
X87268517Y-85489198D01*
X87314996Y-85511920D01*
X87373604Y-85540572D01*
X87373605Y-85540572D01*
X87373607Y-85540573D01*
X87441740Y-85550500D01*
X87441743Y-85550500D01*
X88683257Y-85550500D01*
X88683260Y-85550500D01*
X88751393Y-85540573D01*
X88856483Y-85489198D01*
X88939198Y-85406483D01*
X88990573Y-85301393D01*
X89000500Y-85233260D01*
X89000500Y-84866740D01*
X88990573Y-84798607D01*
X88973452Y-84763586D01*
X88955332Y-84726520D01*
X88939198Y-84693517D01*
X88856483Y-84610802D01*
X88835410Y-84600500D01*
X88751395Y-84559427D01*
X88724139Y-84555456D01*
X88683260Y-84549500D01*
X87441740Y-84549500D01*
X87407673Y-84554463D01*
X87373604Y-84559427D01*
X87268518Y-84610801D01*
X87268517Y-84610801D01*
X87268517Y-84610802D01*
X87185802Y-84693517D01*
X87185801Y-84693518D01*
X87183816Y-84695504D01*
X87129299Y-84723281D01*
X87113812Y-84724500D01*
X86631900Y-84724500D01*
X86573709Y-84705593D01*
X86561897Y-84695504D01*
X86513343Y-84646951D01*
X86513342Y-84646950D01*
X86400304Y-84589354D01*
X86400305Y-84589354D01*
X86306522Y-84574500D01*
X85693479Y-84574500D01*
X85693476Y-84574501D01*
X85599700Y-84589352D01*
X85599695Y-84589354D01*
X85486659Y-84646949D01*
X85396949Y-84736659D01*
X85339354Y-84849695D01*
X85324500Y-84943478D01*
X85324500Y-85349165D01*
X85305593Y-85407356D01*
X85295504Y-85419168D01*
X85069170Y-85645503D01*
X85062053Y-85649129D01*
X85057357Y-85655593D01*
X85035306Y-85662757D01*
X85014653Y-85673281D01*
X84999166Y-85674500D01*
X84886188Y-85674500D01*
X84827997Y-85655593D01*
X84816184Y-85645504D01*
X84814198Y-85643518D01*
X84814198Y-85643517D01*
X84731483Y-85560802D01*
X84731479Y-85560800D01*
X84626395Y-85509427D01*
X84596647Y-85505093D01*
X84558260Y-85499500D01*
X84558257Y-85499500D01*
X84447321Y-85499500D01*
X84389130Y-85480593D01*
X84353166Y-85431093D01*
X84353166Y-85369907D01*
X84377315Y-85330498D01*
X84400500Y-85307314D01*
X84403917Y-85301395D01*
X84466390Y-85193190D01*
X84466390Y-85193188D01*
X84466392Y-85193186D01*
X84500500Y-85065892D01*
X84500500Y-84934108D01*
X84466392Y-84806814D01*
X84466390Y-84806811D01*
X84466390Y-84806809D01*
X84400503Y-84692690D01*
X84400501Y-84692688D01*
X84400500Y-84692686D01*
X84307314Y-84599500D01*
X84307311Y-84599498D01*
X84307309Y-84599496D01*
X84193189Y-84533609D01*
X84193191Y-84533609D01*
X84143799Y-84520375D01*
X84065892Y-84499500D01*
X83934108Y-84499500D01*
X83856200Y-84520375D01*
X83806809Y-84533609D01*
X83692690Y-84599496D01*
X83692689Y-84599497D01*
X83692686Y-84599499D01*
X83692686Y-84599500D01*
X83599500Y-84692686D01*
X83599498Y-84692688D01*
X83596683Y-84695504D01*
X83542166Y-84723281D01*
X83526679Y-84724500D01*
X83011188Y-84724500D01*
X82952997Y-84705593D01*
X82941184Y-84695504D01*
X82939198Y-84693518D01*
X82939198Y-84693517D01*
X82856483Y-84610802D01*
X82835410Y-84600500D01*
X82751395Y-84559427D01*
X82724139Y-84555456D01*
X82683260Y-84549500D01*
X82683257Y-84549500D01*
X81717665Y-84549500D01*
X81659474Y-84530593D01*
X81623510Y-84481093D01*
X81623510Y-84419907D01*
X81647661Y-84380496D01*
X82038288Y-83989869D01*
X83251272Y-82776883D01*
X83305787Y-82749108D01*
X83366219Y-82758679D01*
X83380062Y-82767234D01*
X83462116Y-82827792D01*
X83462117Y-82827792D01*
X83462118Y-82827793D01*
X83590301Y-82872646D01*
X83620725Y-82875499D01*
X83620727Y-82875500D01*
X83620734Y-82875500D01*
X84454273Y-82875500D01*
X84454273Y-82875499D01*
X84484699Y-82872646D01*
X84612882Y-82827793D01*
X84722150Y-82747150D01*
X84802793Y-82637882D01*
X84847646Y-82509699D01*
X84850499Y-82479273D01*
X84850500Y-82479273D01*
X84850500Y-79520727D01*
X84850499Y-79520725D01*
X84847646Y-79490305D01*
X84847646Y-79490301D01*
X84802793Y-79362118D01*
X84784461Y-79337279D01*
X84722154Y-79252855D01*
X84722152Y-79252853D01*
X84722150Y-79252850D01*
X84722146Y-79252847D01*
X84722144Y-79252845D01*
X84612883Y-79172207D01*
X84484703Y-79127355D01*
X84484694Y-79127353D01*
X84454274Y-79124500D01*
X84454266Y-79124500D01*
X83620734Y-79124500D01*
X83620725Y-79124500D01*
X83590305Y-79127353D01*
X83590296Y-79127355D01*
X83462116Y-79172207D01*
X83352855Y-79252845D01*
X83352845Y-79252855D01*
X83272207Y-79362116D01*
X83227355Y-79490296D01*
X83227353Y-79490305D01*
X83224500Y-79520725D01*
X83224500Y-80781335D01*
X83205593Y-80839526D01*
X83195504Y-80851339D01*
X80079883Y-83966960D01*
X80003223Y-84081691D01*
X79950420Y-84209170D01*
X79950420Y-84209172D01*
X79932453Y-84299499D01*
X79923500Y-84344506D01*
X79923500Y-87525648D01*
X79950420Y-87660979D01*
X79950420Y-87660981D01*
X80003223Y-87788460D01*
X80050636Y-87859420D01*
X80079886Y-87903195D01*
X81195805Y-89019114D01*
X81310537Y-89095775D01*
X81438020Y-89148580D01*
X81573354Y-89175500D01*
X81573355Y-89175500D01*
X85950500Y-89175500D01*
X86008691Y-89194407D01*
X86044655Y-89243907D01*
X86049500Y-89274500D01*
X86049500Y-98933075D01*
X86030593Y-98991266D01*
X85981093Y-99027230D01*
X85924878Y-99028702D01*
X85844207Y-99007087D01*
X85815892Y-98999500D01*
X85684108Y-98999500D01*
X85625395Y-99015232D01*
X85556809Y-99033609D01*
X85442690Y-99099496D01*
X85442684Y-99099500D01*
X85396681Y-99145504D01*
X85389564Y-99149129D01*
X85384869Y-99155593D01*
X85362817Y-99162757D01*
X85342164Y-99173281D01*
X85326678Y-99174500D01*
X85225500Y-99174500D01*
X85167309Y-99155593D01*
X85131345Y-99106093D01*
X85126500Y-99075500D01*
X85126500Y-98933149D01*
X85126499Y-98933145D01*
X85126480Y-98933075D01*
X85119053Y-98905353D01*
X85104318Y-98850361D01*
X85104316Y-98850358D01*
X85104316Y-98850356D01*
X85061468Y-98776142D01*
X85061464Y-98776137D01*
X84704495Y-98419167D01*
X84676718Y-98364651D01*
X84675499Y-98349164D01*
X84675499Y-97943478D01*
X84675498Y-97943476D01*
X84660647Y-97849700D01*
X84660646Y-97849698D01*
X84660646Y-97849696D01*
X84603050Y-97736658D01*
X84513342Y-97646950D01*
X84400304Y-97589354D01*
X84400305Y-97589354D01*
X84306522Y-97574500D01*
X84306519Y-97574500D01*
X83894381Y-97574500D01*
X83844880Y-97561236D01*
X83774641Y-97520683D01*
X83774640Y-97520682D01*
X83774639Y-97520682D01*
X83691853Y-97498500D01*
X81947853Y-97498500D01*
X76763147Y-97498500D01*
X76680362Y-97520682D01*
X76657974Y-97533608D01*
X76606135Y-97563537D01*
X76242001Y-97927670D01*
X76187485Y-97955447D01*
X76157726Y-97955632D01*
X76139329Y-97952951D01*
X76115636Y-97949500D01*
X75694364Y-97949500D01*
X75624993Y-97959606D01*
X75564686Y-97949286D01*
X75524691Y-97910627D01*
X75521586Y-97905174D01*
X75521585Y-97905172D01*
X75521579Y-97905165D01*
X75475844Y-97852383D01*
X75475835Y-97852373D01*
X75457390Y-97834575D01*
X75448518Y-97826013D01*
X75443055Y-97820742D01*
X75443052Y-97820740D01*
X75354722Y-97774535D01*
X75354717Y-97774533D01*
X75287694Y-97754853D01*
X75287686Y-97754851D01*
X75287682Y-97754850D01*
X75287677Y-97754849D01*
X75287676Y-97754849D01*
X75215701Y-97744500D01*
X75215697Y-97744500D01*
X71124000Y-97744500D01*
X71077750Y-97749472D01*
X71069677Y-97750340D01*
X71018203Y-97761538D01*
X71018153Y-97761550D01*
X70991803Y-97768780D01*
X70991797Y-97768782D01*
X70905178Y-97818107D01*
X70905165Y-97818117D01*
X70852383Y-97863852D01*
X70852373Y-97863861D01*
X70820742Y-97896641D01*
X70820740Y-97896644D01*
X70774535Y-97984974D01*
X70774533Y-97984979D01*
X70754853Y-98052002D01*
X70754849Y-98052020D01*
X70744500Y-98123995D01*
X70744500Y-101620501D01*
X70746050Y-101634920D01*
X70742202Y-101653232D01*
X70743025Y-101671925D01*
X70736064Y-101682449D01*
X70733470Y-101694798D01*
X70719594Y-101707350D01*
X70709272Y-101722958D01*
X70697981Y-101726902D01*
X70688096Y-101735846D01*
X70651968Y-101744404D01*
X70649786Y-101744500D01*
X70624500Y-101744500D01*
X70606982Y-101746383D01*
X70603851Y-101746521D01*
X70577235Y-101739149D01*
X70550202Y-101733470D01*
X70548019Y-101731057D01*
X70544886Y-101730190D01*
X70527681Y-101708575D01*
X70509154Y-101688096D01*
X70508336Y-101684273D01*
X70506781Y-101682319D01*
X70506486Y-101675617D01*
X70500500Y-101647617D01*
X70500500Y-83815794D01*
X70519407Y-83757603D01*
X70568907Y-83721639D01*
X70630093Y-83721639D01*
X70662301Y-83739264D01*
X70852598Y-83895436D01*
X71146741Y-84091976D01*
X71458731Y-84258739D01*
X71785565Y-84394118D01*
X71785567Y-84394118D01*
X71785573Y-84394121D01*
X72072286Y-84481093D01*
X72124095Y-84496809D01*
X72471060Y-84565825D01*
X72823119Y-84600500D01*
X72823122Y-84600500D01*
X73176878Y-84600500D01*
X73176881Y-84600500D01*
X73528940Y-84565825D01*
X73875905Y-84496809D01*
X74079621Y-84435013D01*
X74214426Y-84394121D01*
X74214428Y-84394119D01*
X74214435Y-84394118D01*
X74541269Y-84258739D01*
X74853259Y-84091976D01*
X75147402Y-83895436D01*
X75420864Y-83671012D01*
X75671012Y-83420864D01*
X75895436Y-83147402D01*
X76091976Y-82853259D01*
X76258739Y-82541269D01*
X76394118Y-82214435D01*
X76496809Y-81875905D01*
X76565825Y-81528940D01*
X76600500Y-81176881D01*
X76600500Y-80823119D01*
X76565825Y-80471060D01*
X76496809Y-80124095D01*
X76456093Y-79989870D01*
X76394121Y-79785573D01*
X76309021Y-79580122D01*
X76258739Y-79458731D01*
X76091976Y-79146741D01*
X75895436Y-78852598D01*
X75739267Y-78662305D01*
X75716967Y-78605328D01*
X75732416Y-78546125D01*
X75779713Y-78507310D01*
X75815795Y-78500500D01*
X124184205Y-78500500D01*
X124242396Y-78519407D01*
G37*
G04 #@! TD.AperFunction*
G04 #@! TA.AperFunction,Conductor*
G36*
X104470996Y-88586073D02*
G01*
X104514261Y-88629338D01*
X104521676Y-88648654D01*
X104532319Y-88688375D01*
X104533609Y-88693190D01*
X104599496Y-88807309D01*
X104599498Y-88807311D01*
X104599500Y-88807314D01*
X104692686Y-88900500D01*
X104692688Y-88900501D01*
X104692690Y-88900503D01*
X104806810Y-88966390D01*
X104806808Y-88966390D01*
X104806812Y-88966391D01*
X104806814Y-88966392D01*
X104934108Y-89000500D01*
X104934110Y-89000500D01*
X105065890Y-89000500D01*
X105065892Y-89000500D01*
X105193186Y-88966392D01*
X105193188Y-88966390D01*
X105193190Y-88966390D01*
X105307309Y-88900503D01*
X105307310Y-88900502D01*
X105307314Y-88900500D01*
X105328589Y-88879225D01*
X105353319Y-88854496D01*
X105407836Y-88826719D01*
X105423322Y-88825500D01*
X108444835Y-88825500D01*
X108503026Y-88844407D01*
X108538990Y-88893907D01*
X108538990Y-88955093D01*
X108514839Y-88994504D01*
X102238839Y-95270504D01*
X102184322Y-95298281D01*
X102168835Y-95299500D01*
X99199500Y-95299500D01*
X99141309Y-95280593D01*
X99105345Y-95231093D01*
X99100500Y-95200500D01*
X99100500Y-94543388D01*
X99100500Y-94543384D01*
X99094086Y-94472804D01*
X99043478Y-94310394D01*
X98955472Y-94164815D01*
X98835185Y-94044528D01*
X98754082Y-93995499D01*
X98689607Y-93956522D01*
X98689605Y-93956521D01*
X98527194Y-93905913D01*
X98456620Y-93899500D01*
X98456616Y-93899500D01*
X97343384Y-93899500D01*
X97343379Y-93899500D01*
X97272805Y-93905913D01*
X97110394Y-93956521D01*
X97110392Y-93956522D01*
X96964816Y-94044527D01*
X96844527Y-94164816D01*
X96756522Y-94310392D01*
X96756521Y-94310394D01*
X96705913Y-94472805D01*
X96699500Y-94543379D01*
X96699500Y-95200500D01*
X96680593Y-95258691D01*
X96631093Y-95294655D01*
X96600500Y-95299500D01*
X92749459Y-95299500D01*
X92691268Y-95280593D01*
X92670918Y-95260768D01*
X92635454Y-95214552D01*
X92635455Y-95214552D01*
X92606959Y-95192686D01*
X92515233Y-95122302D01*
X92460184Y-95099500D01*
X92413940Y-95080345D01*
X92375236Y-95064313D01*
X92375234Y-95064312D01*
X92375232Y-95064312D01*
X92262720Y-95049500D01*
X91327611Y-95049500D01*
X91269420Y-95030593D01*
X91257608Y-95020504D01*
X91151614Y-94914511D01*
X91151609Y-94914507D01*
X91048890Y-94855202D01*
X91048886Y-94855200D01*
X91024673Y-94848712D01*
X91024673Y-94848713D01*
X90934309Y-94824500D01*
X90934307Y-94824500D01*
X89917255Y-94824500D01*
X89859064Y-94805593D01*
X89847257Y-94795509D01*
X89753220Y-94701472D01*
X89753217Y-94701470D01*
X89633132Y-94640283D01*
X89633127Y-94640281D01*
X89633126Y-94640281D01*
X89596759Y-94634521D01*
X89533490Y-94624500D01*
X89533488Y-94624500D01*
X88966512Y-94624500D01*
X88966510Y-94624500D01*
X88866874Y-94640281D01*
X88866867Y-94640283D01*
X88746782Y-94701470D01*
X88651470Y-94796782D01*
X88590283Y-94916867D01*
X88590281Y-94916874D01*
X88576087Y-95006494D01*
X88574500Y-95016512D01*
X88574500Y-95533488D01*
X88589214Y-95626392D01*
X88590281Y-95633125D01*
X88590283Y-95633132D01*
X88651470Y-95753217D01*
X88651472Y-95753220D01*
X88746780Y-95848528D01*
X88746782Y-95848529D01*
X88866867Y-95909716D01*
X88866869Y-95909716D01*
X88866874Y-95909719D01*
X88942541Y-95921703D01*
X88966510Y-95925500D01*
X88966512Y-95925500D01*
X89533490Y-95925500D01*
X89554885Y-95922111D01*
X89633126Y-95909719D01*
X89753220Y-95848528D01*
X89847253Y-95754494D01*
X89901768Y-95726719D01*
X89917255Y-95725500D01*
X90300500Y-95725500D01*
X90358691Y-95744407D01*
X90394655Y-95793907D01*
X90399500Y-95824500D01*
X90399500Y-96412720D01*
X90410566Y-96496781D01*
X90414313Y-96525236D01*
X90472302Y-96665233D01*
X90564549Y-96785451D01*
X90684767Y-96877698D01*
X90824764Y-96935687D01*
X90937280Y-96950500D01*
X90937281Y-96950500D01*
X92262719Y-96950500D01*
X92262720Y-96950500D01*
X92375236Y-96935687D01*
X92515233Y-96877698D01*
X92635451Y-96785451D01*
X92635452Y-96785448D01*
X92635455Y-96785447D01*
X92670918Y-96739232D01*
X92721342Y-96704577D01*
X92749459Y-96700500D01*
X96600500Y-96700500D01*
X96658691Y-96719407D01*
X96694655Y-96768907D01*
X96699500Y-96799500D01*
X96699500Y-97456620D01*
X96705913Y-97527194D01*
X96756521Y-97689605D01*
X96756522Y-97689607D01*
X96808000Y-97774761D01*
X96844528Y-97835185D01*
X96964815Y-97955472D01*
X97110394Y-98043478D01*
X97272804Y-98094086D01*
X97343384Y-98100500D01*
X97343389Y-98100500D01*
X98456611Y-98100500D01*
X98456616Y-98100500D01*
X98527196Y-98094086D01*
X98689606Y-98043478D01*
X98835185Y-97955472D01*
X98955472Y-97835185D01*
X99043478Y-97689606D01*
X99094086Y-97527196D01*
X99100500Y-97456616D01*
X99100500Y-96799500D01*
X99119407Y-96741309D01*
X99168907Y-96705345D01*
X99199500Y-96700500D01*
X102568993Y-96700500D01*
X102568994Y-96700500D01*
X102704328Y-96673580D01*
X102831811Y-96620775D01*
X102946543Y-96544114D01*
X105731772Y-93758882D01*
X105786289Y-93731106D01*
X105846721Y-93740677D01*
X105871780Y-93758883D01*
X107295504Y-95182607D01*
X107323281Y-95237124D01*
X107324500Y-95252611D01*
X107324500Y-95533488D01*
X107339214Y-95626392D01*
X107340281Y-95633125D01*
X107340283Y-95633132D01*
X107401468Y-95753214D01*
X107404954Y-95758011D01*
X107423861Y-95816202D01*
X107404954Y-95874393D01*
X107355454Y-95910357D01*
X107324861Y-95915202D01*
X106466445Y-95915202D01*
X106428012Y-95925500D01*
X106383658Y-95937384D01*
X106319371Y-95974499D01*
X106319372Y-95974500D01*
X106309438Y-95980235D01*
X103144169Y-99145504D01*
X103089652Y-99173281D01*
X103074165Y-99174500D01*
X92767874Y-99174500D01*
X92709683Y-99155593D01*
X92673719Y-99106093D01*
X92673719Y-99044907D01*
X92689332Y-99015232D01*
X92695582Y-99007087D01*
X92727698Y-98965233D01*
X92785687Y-98825236D01*
X92800500Y-98712720D01*
X92800500Y-97887280D01*
X92785687Y-97774764D01*
X92727698Y-97634767D01*
X92635451Y-97514549D01*
X92515233Y-97422302D01*
X92512425Y-97421139D01*
X92412033Y-97379555D01*
X92375236Y-97364313D01*
X92375234Y-97364312D01*
X92375232Y-97364312D01*
X92262720Y-97349500D01*
X90937280Y-97349500D01*
X90937279Y-97349500D01*
X90824767Y-97364312D01*
X90824761Y-97364314D01*
X90684768Y-97422301D01*
X90564551Y-97514547D01*
X90564547Y-97514551D01*
X90472301Y-97634768D01*
X90442667Y-97706311D01*
X90419765Y-97761603D01*
X90419026Y-97763386D01*
X90379289Y-97809911D01*
X90327562Y-97824500D01*
X89917255Y-97824500D01*
X89859064Y-97805593D01*
X89847257Y-97795509D01*
X89753220Y-97701472D01*
X89753217Y-97701470D01*
X89633132Y-97640283D01*
X89633127Y-97640281D01*
X89633126Y-97640281D01*
X89597876Y-97634698D01*
X89533490Y-97624500D01*
X89533488Y-97624500D01*
X88966512Y-97624500D01*
X88966510Y-97624500D01*
X88866874Y-97640281D01*
X88866867Y-97640283D01*
X88746782Y-97701470D01*
X88746778Y-97701473D01*
X88649879Y-97798372D01*
X88605500Y-97823995D01*
X88569130Y-97833740D01*
X88515249Y-97848177D01*
X88489034Y-97855202D01*
X88386315Y-97914507D01*
X87619504Y-98681318D01*
X87564987Y-98709095D01*
X87504555Y-98699524D01*
X87461290Y-98656259D01*
X87450500Y-98611314D01*
X87450500Y-89274500D01*
X87469407Y-89216309D01*
X87518907Y-89180345D01*
X87549500Y-89175500D01*
X87939836Y-89175500D01*
X87998027Y-89194407D01*
X88033991Y-89243907D01*
X88033991Y-89300198D01*
X88035288Y-89300546D01*
X88033608Y-89306812D01*
X88033608Y-89306814D01*
X87999500Y-89434108D01*
X87999500Y-89565892D01*
X88018619Y-89637244D01*
X88033609Y-89693190D01*
X88099496Y-89807309D01*
X88099498Y-89807311D01*
X88099500Y-89807314D01*
X88192686Y-89900500D01*
X88192688Y-89900501D01*
X88192690Y-89900503D01*
X88306810Y-89966390D01*
X88306808Y-89966390D01*
X88306812Y-89966391D01*
X88306814Y-89966392D01*
X88434108Y-90000500D01*
X88434110Y-90000500D01*
X88565890Y-90000500D01*
X88565892Y-90000500D01*
X88693186Y-89966392D01*
X88693188Y-89966390D01*
X88693190Y-89966390D01*
X88807309Y-89900503D01*
X88807310Y-89900502D01*
X88807314Y-89900500D01*
X88807315Y-89900499D01*
X88853319Y-89854496D01*
X88907836Y-89826719D01*
X88923322Y-89825500D01*
X103042851Y-89825500D01*
X103042853Y-89825500D01*
X103125639Y-89803318D01*
X103125641Y-89803316D01*
X103125643Y-89803316D01*
X103199857Y-89760468D01*
X103199857Y-89760467D01*
X103199862Y-89760465D01*
X104356049Y-88604277D01*
X104410564Y-88576502D01*
X104470996Y-88586073D01*
G37*
G04 #@! TD.AperFunction*
G04 #@! TA.AperFunction,Conductor*
G36*
X119690445Y-87179740D02*
G01*
X119733710Y-87223005D01*
X119744500Y-87267950D01*
X119744500Y-97875996D01*
X119744499Y-97875996D01*
X119750340Y-97930322D01*
X119761538Y-97981796D01*
X119761550Y-97981846D01*
X119768780Y-98008196D01*
X119768782Y-98008202D01*
X119818107Y-98094821D01*
X119818117Y-98094834D01*
X119863852Y-98147616D01*
X119863861Y-98147626D01*
X119863865Y-98147630D01*
X119863867Y-98147632D01*
X119896641Y-98179257D01*
X119896644Y-98179259D01*
X119970086Y-98217676D01*
X119984976Y-98225465D01*
X120052015Y-98245150D01*
X120092006Y-98250900D01*
X120123996Y-98255500D01*
X120124000Y-98255500D01*
X124045165Y-98255500D01*
X124067212Y-98262663D01*
X124090110Y-98266290D01*
X124095758Y-98271938D01*
X124103356Y-98274407D01*
X124116983Y-98293163D01*
X124133375Y-98309555D01*
X124134624Y-98317444D01*
X124139320Y-98323907D01*
X124139320Y-98347092D01*
X124142946Y-98369987D01*
X124139320Y-98377103D01*
X124139320Y-98385093D01*
X124115169Y-98424504D01*
X124031669Y-98508004D01*
X123977152Y-98535781D01*
X123961665Y-98537000D01*
X119049500Y-98537000D01*
X118991309Y-98518093D01*
X118955345Y-98468593D01*
X118950500Y-98438000D01*
X118950500Y-98316743D01*
X118949199Y-98307812D01*
X118940573Y-98248607D01*
X118935305Y-98237832D01*
X118913481Y-98193190D01*
X118889198Y-98143517D01*
X118806483Y-98060802D01*
X118788509Y-98052015D01*
X118701395Y-98009427D01*
X118670537Y-98004931D01*
X118654157Y-98002544D01*
X118599301Y-97975445D01*
X118570850Y-97921276D01*
X118579672Y-97860730D01*
X118598426Y-97834578D01*
X118710465Y-97722540D01*
X118719835Y-97706311D01*
X118753316Y-97648321D01*
X118753316Y-97648319D01*
X118753318Y-97648317D01*
X118775500Y-97565531D01*
X118775500Y-97479825D01*
X118775500Y-95886188D01*
X118794407Y-95827997D01*
X118804496Y-95816184D01*
X118806480Y-95814198D01*
X118806483Y-95814198D01*
X118889198Y-95731483D01*
X118940573Y-95626393D01*
X118950500Y-95558260D01*
X118950500Y-94316740D01*
X118940573Y-94248607D01*
X118936590Y-94240460D01*
X118899610Y-94164815D01*
X118889198Y-94143517D01*
X118806483Y-94060802D01*
X118773192Y-94044527D01*
X118701395Y-94009427D01*
X118674139Y-94005456D01*
X118633260Y-93999500D01*
X118266740Y-93999500D01*
X118232673Y-94004463D01*
X118198604Y-94009427D01*
X118093518Y-94060801D01*
X118010801Y-94143518D01*
X117959427Y-94248604D01*
X117959427Y-94248607D01*
X117949500Y-94316740D01*
X117949500Y-95558260D01*
X117950612Y-95565890D01*
X117959427Y-95626395D01*
X117999500Y-95708364D01*
X118010802Y-95731483D01*
X118093517Y-95814198D01*
X118093518Y-95814198D01*
X118095504Y-95816184D01*
X118123281Y-95870701D01*
X118124500Y-95886188D01*
X118124500Y-97346843D01*
X118105593Y-97405034D01*
X118095504Y-97416847D01*
X117541847Y-97970504D01*
X117487330Y-97998281D01*
X117471843Y-97999500D01*
X117316740Y-97999500D01*
X117282673Y-98004463D01*
X117248604Y-98009427D01*
X117142980Y-98061064D01*
X117082398Y-98069635D01*
X117028348Y-98040959D01*
X117001476Y-97985991D01*
X117000500Y-97972123D01*
X117000500Y-97515692D01*
X117000194Y-97514551D01*
X116969799Y-97401114D01*
X116969799Y-97401113D01*
X116910490Y-97298386D01*
X116805290Y-97193186D01*
X116682107Y-97070002D01*
X116654330Y-97015486D01*
X116663901Y-96955054D01*
X116682108Y-96929995D01*
X116767629Y-96844474D01*
X116910490Y-96701614D01*
X116969799Y-96598887D01*
X116973491Y-96585109D01*
X116978749Y-96565488D01*
X116986710Y-96535774D01*
X117000500Y-96484309D01*
X117000500Y-95731267D01*
X117010559Y-95687787D01*
X117040573Y-95626393D01*
X117050500Y-95558260D01*
X117050500Y-95468663D01*
X117069407Y-95410472D01*
X117079490Y-95398665D01*
X117094113Y-95384043D01*
X117170774Y-95269311D01*
X117223580Y-95141828D01*
X117250499Y-95006494D01*
X117250499Y-94868506D01*
X117223580Y-94733171D01*
X117170774Y-94605688D01*
X117094113Y-94490957D01*
X117079493Y-94476337D01*
X117051718Y-94421820D01*
X117050500Y-94406336D01*
X117050500Y-94316743D01*
X117049575Y-94310392D01*
X117040573Y-94248607D01*
X117036590Y-94240460D01*
X116999610Y-94164815D01*
X116989198Y-94143517D01*
X116906483Y-94060802D01*
X116873192Y-94044527D01*
X116801395Y-94009427D01*
X116774139Y-94005456D01*
X116733260Y-93999500D01*
X116733257Y-93999500D01*
X116643663Y-93999500D01*
X116585472Y-93980593D01*
X116573659Y-93970503D01*
X116280496Y-93677339D01*
X116252719Y-93622823D01*
X116251500Y-93607336D01*
X116251500Y-90562950D01*
X116270407Y-90504759D01*
X116280490Y-90492952D01*
X119575496Y-87197945D01*
X119630013Y-87170169D01*
X119690445Y-87179740D01*
G37*
G04 #@! TD.AperFunction*
G04 #@! TA.AperFunction,Conductor*
G36*
X115068351Y-94453361D02*
G01*
X115093410Y-94471567D01*
X116020504Y-95398660D01*
X116048281Y-95453177D01*
X116049500Y-95468663D01*
X116049500Y-95558260D01*
X116059427Y-95626393D01*
X116063849Y-95635438D01*
X116089441Y-95687787D01*
X116099500Y-95731267D01*
X116099500Y-96197388D01*
X116097031Y-96204985D01*
X116098281Y-96212875D01*
X116087756Y-96233530D01*
X116080593Y-96255579D01*
X116070504Y-96267392D01*
X116042392Y-96295504D01*
X115987875Y-96323281D01*
X115972388Y-96324500D01*
X115716510Y-96324500D01*
X115616874Y-96340281D01*
X115616867Y-96340283D01*
X115496782Y-96401470D01*
X115401471Y-96496781D01*
X115362708Y-96572858D01*
X115319443Y-96616122D01*
X115259011Y-96625693D01*
X115204495Y-96597915D01*
X115176718Y-96543398D01*
X115175499Y-96527912D01*
X115175499Y-96443478D01*
X115175498Y-96443476D01*
X115160647Y-96349700D01*
X115160646Y-96349698D01*
X115160646Y-96349696D01*
X115103050Y-96236658D01*
X115013342Y-96146950D01*
X114900304Y-96089354D01*
X114900305Y-96089354D01*
X114806522Y-96074500D01*
X114343479Y-96074500D01*
X114343476Y-96074501D01*
X114249700Y-96089352D01*
X114249695Y-96089354D01*
X114136659Y-96146949D01*
X114046949Y-96236659D01*
X113989354Y-96349695D01*
X113974500Y-96443477D01*
X113974500Y-97056517D01*
X113986682Y-97133438D01*
X113977108Y-97193869D01*
X113933843Y-97237133D01*
X113873410Y-97246703D01*
X113818896Y-97218925D01*
X113554495Y-96954523D01*
X113526718Y-96900007D01*
X113525499Y-96884520D01*
X113525499Y-96443478D01*
X113525498Y-96443476D01*
X113510647Y-96349700D01*
X113510646Y-96349698D01*
X113510646Y-96349696D01*
X113453050Y-96236658D01*
X113385893Y-96169501D01*
X113358118Y-96114987D01*
X113367689Y-96054555D01*
X113410954Y-96011290D01*
X113455899Y-96000500D01*
X113565890Y-96000500D01*
X113565892Y-96000500D01*
X113693186Y-95966392D01*
X113693188Y-95966390D01*
X113693190Y-95966390D01*
X113807309Y-95900503D01*
X113807309Y-95900502D01*
X113807314Y-95900500D01*
X113900500Y-95807314D01*
X113908241Y-95793907D01*
X113966390Y-95693190D01*
X113966390Y-95693188D01*
X113966392Y-95693186D01*
X114000500Y-95565892D01*
X114000500Y-95465478D01*
X114019407Y-95407287D01*
X114029496Y-95395474D01*
X114454467Y-94970503D01*
X114953406Y-94471564D01*
X115007919Y-94443790D01*
X115068351Y-94453361D01*
G37*
G04 #@! TD.AperFunction*
G04 #@! TA.AperFunction,Conductor*
G36*
X110382357Y-88844407D02*
G01*
X110394169Y-88854496D01*
X110470503Y-88930829D01*
X110498281Y-88985345D01*
X110499500Y-89000833D01*
X110499500Y-89065892D01*
X110521656Y-89148579D01*
X110533609Y-89193190D01*
X110599496Y-89307309D01*
X110599498Y-89307311D01*
X110599500Y-89307314D01*
X110692686Y-89400500D01*
X110692688Y-89400501D01*
X110692690Y-89400503D01*
X110806810Y-89466390D01*
X110806811Y-89466391D01*
X110806813Y-89466391D01*
X110806814Y-89466392D01*
X110826302Y-89471613D01*
X110877616Y-89504936D01*
X110899544Y-89562057D01*
X110883709Y-89621158D01*
X110870684Y-89637244D01*
X110015489Y-90492440D01*
X110015488Y-90492439D01*
X109959539Y-90548389D01*
X109919980Y-90616907D01*
X109919978Y-90616911D01*
X109899500Y-90693335D01*
X109899500Y-91800500D01*
X109880593Y-91858691D01*
X109831093Y-91894655D01*
X109800500Y-91899500D01*
X109150326Y-91899500D01*
X109150325Y-91899500D01*
X109150315Y-91899501D01*
X109077263Y-91914033D01*
X109077257Y-91914035D01*
X108994400Y-91969397D01*
X108994397Y-91969400D01*
X108939035Y-92052257D01*
X108939033Y-92052263D01*
X108924501Y-92125315D01*
X108924500Y-92125327D01*
X108924500Y-92274672D01*
X108924501Y-92274684D01*
X108937770Y-92341387D01*
X108939034Y-92347740D01*
X108939035Y-92347742D01*
X108942766Y-92356749D01*
X108940751Y-92357583D01*
X108953811Y-92403888D01*
X108941227Y-92442613D01*
X108942766Y-92443251D01*
X108939033Y-92452263D01*
X108924501Y-92525315D01*
X108924500Y-92525327D01*
X108924500Y-92674672D01*
X108924501Y-92674684D01*
X108939033Y-92747736D01*
X108939034Y-92747740D01*
X108939035Y-92747742D01*
X108942766Y-92756749D01*
X108940751Y-92757583D01*
X108953811Y-92803888D01*
X108941227Y-92842613D01*
X108942766Y-92843251D01*
X108939033Y-92852263D01*
X108924501Y-92925315D01*
X108924500Y-92925327D01*
X108924500Y-93074672D01*
X108924501Y-93074684D01*
X108939033Y-93147736D01*
X108939035Y-93147742D01*
X108994397Y-93230599D01*
X108994400Y-93230602D01*
X109026819Y-93252263D01*
X109077260Y-93285966D01*
X109132808Y-93297015D01*
X109150315Y-93300498D01*
X109150320Y-93300498D01*
X109150326Y-93300500D01*
X109150327Y-93300500D01*
X109949673Y-93300500D01*
X109949674Y-93300500D01*
X110022740Y-93285966D01*
X110105601Y-93230601D01*
X110160966Y-93147740D01*
X110175500Y-93074674D01*
X110175500Y-92925326D01*
X110160966Y-92852260D01*
X110160962Y-92852255D01*
X110157233Y-92843248D01*
X110159248Y-92842413D01*
X110146189Y-92796120D01*
X110158773Y-92757389D01*
X110157233Y-92756752D01*
X110160961Y-92747746D01*
X110160966Y-92747740D01*
X110175500Y-92674674D01*
X110175500Y-92525326D01*
X110160966Y-92452260D01*
X110160962Y-92452255D01*
X110157233Y-92443248D01*
X110159248Y-92442413D01*
X110146189Y-92396120D01*
X110148720Y-92377429D01*
X110152815Y-92359937D01*
X110160966Y-92347740D01*
X110175500Y-92274674D01*
X110175500Y-92263062D01*
X110178107Y-92251929D01*
X110188314Y-92235060D01*
X110194407Y-92216309D01*
X110203784Y-92209496D01*
X110209784Y-92199581D01*
X110227955Y-92191934D01*
X110243907Y-92180345D01*
X110262492Y-92177401D01*
X110266180Y-92175850D01*
X110268645Y-92176427D01*
X110269863Y-92176234D01*
X110269838Y-92175976D01*
X110274215Y-92175544D01*
X110274500Y-92175500D01*
X110274673Y-92175500D01*
X110274674Y-92175500D01*
X110347740Y-92160966D01*
X110347746Y-92160961D01*
X110356752Y-92157233D01*
X110357586Y-92159248D01*
X110403880Y-92146189D01*
X110442610Y-92158773D01*
X110443248Y-92157233D01*
X110452255Y-92160962D01*
X110452260Y-92160966D01*
X110507808Y-92172015D01*
X110525315Y-92175498D01*
X110525320Y-92175498D01*
X110525326Y-92175500D01*
X110525327Y-92175500D01*
X110674673Y-92175500D01*
X110674674Y-92175500D01*
X110747740Y-92160966D01*
X110747746Y-92160961D01*
X110756752Y-92157233D01*
X110757586Y-92159248D01*
X110803880Y-92146189D01*
X110842610Y-92158773D01*
X110843248Y-92157233D01*
X110852255Y-92160962D01*
X110852260Y-92160966D01*
X110907808Y-92172015D01*
X110925315Y-92175498D01*
X110925320Y-92175498D01*
X110925326Y-92175500D01*
X110925327Y-92175500D01*
X111074673Y-92175500D01*
X111074674Y-92175500D01*
X111147740Y-92160966D01*
X111147746Y-92160961D01*
X111156752Y-92157233D01*
X111157586Y-92159248D01*
X111203880Y-92146189D01*
X111242610Y-92158773D01*
X111243248Y-92157233D01*
X111252255Y-92160962D01*
X111252260Y-92160966D01*
X111307808Y-92172015D01*
X111325315Y-92175498D01*
X111325320Y-92175498D01*
X111325326Y-92175500D01*
X111325327Y-92175500D01*
X111474673Y-92175500D01*
X111474674Y-92175500D01*
X111547740Y-92160966D01*
X111547746Y-92160961D01*
X111556752Y-92157233D01*
X111557586Y-92159248D01*
X111603880Y-92146189D01*
X111622571Y-92148720D01*
X111640062Y-92152815D01*
X111652260Y-92160966D01*
X111725326Y-92175500D01*
X111736938Y-92175500D01*
X111748071Y-92178107D01*
X111764939Y-92188314D01*
X111783691Y-92194407D01*
X111790503Y-92203784D01*
X111800419Y-92209784D01*
X111808065Y-92227955D01*
X111819655Y-92243907D01*
X111822598Y-92262492D01*
X111824150Y-92266180D01*
X111823572Y-92268645D01*
X111823765Y-92269863D01*
X111824024Y-92269838D01*
X111824455Y-92274215D01*
X111824500Y-92274500D01*
X111824500Y-92274672D01*
X111824501Y-92274684D01*
X111837770Y-92341387D01*
X111839034Y-92347740D01*
X111839035Y-92347742D01*
X111842766Y-92356749D01*
X111840751Y-92357583D01*
X111853811Y-92403888D01*
X111841227Y-92442613D01*
X111842766Y-92443251D01*
X111839033Y-92452263D01*
X111824501Y-92525315D01*
X111824500Y-92525327D01*
X111824500Y-92674672D01*
X111824501Y-92674684D01*
X111839033Y-92747736D01*
X111839034Y-92747740D01*
X111839035Y-92747742D01*
X111842766Y-92756749D01*
X111840751Y-92757583D01*
X111853811Y-92803888D01*
X111841227Y-92842613D01*
X111842766Y-92843251D01*
X111839033Y-92852263D01*
X111824501Y-92925315D01*
X111824500Y-92925327D01*
X111824500Y-93074672D01*
X111824501Y-93074684D01*
X111833870Y-93121780D01*
X111839034Y-93147740D01*
X111839035Y-93147742D01*
X111842766Y-93156749D01*
X111840751Y-93157583D01*
X111853811Y-93203888D01*
X111841227Y-93242613D01*
X111842766Y-93243251D01*
X111839033Y-93252263D01*
X111824501Y-93325315D01*
X111824500Y-93325327D01*
X111824500Y-93474672D01*
X111824501Y-93474684D01*
X111834756Y-93526234D01*
X111839034Y-93547740D01*
X111839035Y-93547742D01*
X111842766Y-93556749D01*
X111840751Y-93557583D01*
X111853811Y-93603888D01*
X111851280Y-93622571D01*
X111847184Y-93640061D01*
X111839034Y-93652260D01*
X111824500Y-93725326D01*
X111824500Y-93736937D01*
X111821893Y-93748071D01*
X111811685Y-93764939D01*
X111805593Y-93783691D01*
X111796215Y-93790503D01*
X111790216Y-93800419D01*
X111772044Y-93808065D01*
X111756093Y-93819655D01*
X111737507Y-93822598D01*
X111733820Y-93824150D01*
X111731354Y-93823572D01*
X111730136Y-93823765D01*
X111730162Y-93824024D01*
X111725784Y-93824455D01*
X111725500Y-93824500D01*
X111725326Y-93824500D01*
X111725325Y-93824500D01*
X111725315Y-93824501D01*
X111652263Y-93839033D01*
X111652261Y-93839033D01*
X111652260Y-93839034D01*
X111652259Y-93839034D01*
X111643251Y-93842766D01*
X111642416Y-93840751D01*
X111596112Y-93853811D01*
X111557386Y-93841227D01*
X111556749Y-93842766D01*
X111547742Y-93839035D01*
X111547740Y-93839034D01*
X111547736Y-93839033D01*
X111474684Y-93824501D01*
X111474674Y-93824500D01*
X111325326Y-93824500D01*
X111325325Y-93824500D01*
X111325315Y-93824501D01*
X111252263Y-93839033D01*
X111252261Y-93839033D01*
X111252260Y-93839034D01*
X111252259Y-93839034D01*
X111243251Y-93842766D01*
X111242416Y-93840751D01*
X111196112Y-93853811D01*
X111157386Y-93841227D01*
X111156749Y-93842766D01*
X111147742Y-93839035D01*
X111147740Y-93839034D01*
X111147736Y-93839033D01*
X111074684Y-93824501D01*
X111074674Y-93824500D01*
X110925326Y-93824500D01*
X110925325Y-93824500D01*
X110925315Y-93824501D01*
X110852263Y-93839033D01*
X110852261Y-93839033D01*
X110852260Y-93839034D01*
X110852259Y-93839034D01*
X110843251Y-93842766D01*
X110842416Y-93840751D01*
X110796112Y-93853811D01*
X110757386Y-93841227D01*
X110756749Y-93842766D01*
X110747742Y-93839035D01*
X110747740Y-93839034D01*
X110747736Y-93839033D01*
X110674684Y-93824501D01*
X110674674Y-93824500D01*
X110525326Y-93824500D01*
X110525325Y-93824500D01*
X110525315Y-93824501D01*
X110452263Y-93839033D01*
X110452261Y-93839033D01*
X110452260Y-93839034D01*
X110452259Y-93839034D01*
X110443251Y-93842766D01*
X110442416Y-93840751D01*
X110396112Y-93853811D01*
X110377429Y-93851280D01*
X110359938Y-93847184D01*
X110347740Y-93839034D01*
X110274674Y-93824500D01*
X110263062Y-93824500D01*
X110251929Y-93821893D01*
X110235060Y-93811685D01*
X110216309Y-93805593D01*
X110209496Y-93796215D01*
X110199581Y-93790216D01*
X110191934Y-93772044D01*
X110180345Y-93756093D01*
X110177401Y-93737507D01*
X110175850Y-93733820D01*
X110176427Y-93731354D01*
X110176234Y-93730136D01*
X110175976Y-93730162D01*
X110175544Y-93725784D01*
X110175500Y-93725500D01*
X110175500Y-93725327D01*
X110175498Y-93725315D01*
X110168250Y-93688879D01*
X110160966Y-93652260D01*
X110130949Y-93607336D01*
X110105602Y-93569400D01*
X110105599Y-93569397D01*
X110022742Y-93514035D01*
X110022740Y-93514034D01*
X110022737Y-93514033D01*
X110022736Y-93514033D01*
X109949684Y-93499501D01*
X109949674Y-93499500D01*
X109150326Y-93499500D01*
X109150325Y-93499500D01*
X109150315Y-93499501D01*
X109077263Y-93514033D01*
X109077257Y-93514035D01*
X108994400Y-93569397D01*
X108994397Y-93569400D01*
X108939035Y-93652257D01*
X108939033Y-93652263D01*
X108924501Y-93725315D01*
X108924500Y-93725327D01*
X108924500Y-93874672D01*
X108924501Y-93874684D01*
X108939033Y-93947736D01*
X108939035Y-93947742D01*
X108970945Y-93995499D01*
X108987553Y-94054387D01*
X108966375Y-94111791D01*
X108915501Y-94145783D01*
X108888629Y-94149500D01*
X108785435Y-94149500D01*
X108709011Y-94169978D01*
X108709007Y-94169980D01*
X108640489Y-94209539D01*
X108254524Y-94595504D01*
X108247407Y-94599129D01*
X108242712Y-94605593D01*
X108220662Y-94612757D01*
X108200008Y-94623281D01*
X108184521Y-94624500D01*
X108052611Y-94624500D01*
X107994420Y-94605593D01*
X107982607Y-94595504D01*
X106508883Y-93121780D01*
X106481106Y-93067263D01*
X106490677Y-93006831D01*
X106508877Y-92981779D01*
X109441887Y-90048768D01*
X109444427Y-90046468D01*
X109446656Y-90044238D01*
X109446663Y-90044234D01*
X109544234Y-89946663D01*
X109620895Y-89831931D01*
X109673700Y-89704449D01*
X109700620Y-89569114D01*
X109700620Y-89431126D01*
X109673700Y-89295792D01*
X109630992Y-89192686D01*
X109620896Y-89168311D01*
X109607712Y-89148580D01*
X109544234Y-89053577D01*
X109485158Y-88994501D01*
X109457383Y-88939987D01*
X109466954Y-88879555D01*
X109510219Y-88836290D01*
X109555164Y-88825500D01*
X110324166Y-88825500D01*
X110382357Y-88844407D01*
G37*
G04 #@! TD.AperFunction*
G04 #@! TA.AperFunction,Conductor*
G36*
X97165962Y-83201498D02*
G01*
X97221477Y-83215590D01*
X97238662Y-83229319D01*
X97270504Y-83261161D01*
X97298281Y-83315678D01*
X97299500Y-83331165D01*
X97299500Y-84670142D01*
X97280593Y-84728333D01*
X97233198Y-84763586D01*
X97137117Y-84797207D01*
X97137116Y-84797207D01*
X97027855Y-84877845D01*
X97027845Y-84877855D01*
X96947207Y-84987116D01*
X96902355Y-85115296D01*
X96902353Y-85115305D01*
X96899500Y-85145725D01*
X96899500Y-85904274D01*
X96902353Y-85934694D01*
X96902355Y-85934703D01*
X96947207Y-86062883D01*
X97027845Y-86172144D01*
X97027847Y-86172146D01*
X97027850Y-86172150D01*
X97027853Y-86172152D01*
X97027855Y-86172154D01*
X97137116Y-86252792D01*
X97137117Y-86252792D01*
X97137118Y-86252793D01*
X97265301Y-86297646D01*
X97295725Y-86300499D01*
X97295727Y-86300500D01*
X97295734Y-86300500D01*
X97575500Y-86300500D01*
X97633691Y-86319407D01*
X97669655Y-86368907D01*
X97674500Y-86399500D01*
X97674500Y-86857147D01*
X97674500Y-86942853D01*
X97689677Y-86999496D01*
X97696683Y-87025643D01*
X97739531Y-87099857D01*
X97739535Y-87099862D01*
X97862678Y-87223005D01*
X97970503Y-87330829D01*
X97998281Y-87385346D01*
X97999500Y-87400833D01*
X97999500Y-87465892D01*
X98028702Y-87574879D01*
X98025500Y-87635978D01*
X97986995Y-87683528D01*
X97933076Y-87699500D01*
X97295725Y-87699500D01*
X97265305Y-87702353D01*
X97265296Y-87702355D01*
X97137116Y-87747207D01*
X97027855Y-87827845D01*
X97027845Y-87827855D01*
X96947207Y-87937116D01*
X96902355Y-88065296D01*
X96902353Y-88065305D01*
X96899500Y-88095725D01*
X96899500Y-88854274D01*
X96902353Y-88884694D01*
X96902355Y-88884703D01*
X96947207Y-89012883D01*
X96950033Y-89016712D01*
X96969375Y-89074759D01*
X96950904Y-89133090D01*
X96901674Y-89169423D01*
X96870378Y-89174500D01*
X95129622Y-89174500D01*
X95071431Y-89155593D01*
X95035467Y-89106093D01*
X95035467Y-89044907D01*
X95049967Y-89016712D01*
X95052792Y-89012883D01*
X95052791Y-89012883D01*
X95052793Y-89012882D01*
X95097646Y-88884699D01*
X95100499Y-88854273D01*
X95100500Y-88854273D01*
X95100500Y-88095727D01*
X95100499Y-88095725D01*
X95099354Y-88083513D01*
X95097646Y-88065301D01*
X95052793Y-87937118D01*
X95043430Y-87924432D01*
X94972154Y-87827855D01*
X94972152Y-87827853D01*
X94972150Y-87827850D01*
X94972146Y-87827847D01*
X94972144Y-87827845D01*
X94862883Y-87747207D01*
X94734703Y-87702355D01*
X94734694Y-87702353D01*
X94704274Y-87699500D01*
X94704266Y-87699500D01*
X93295734Y-87699500D01*
X93295725Y-87699500D01*
X93265305Y-87702353D01*
X93265296Y-87702355D01*
X93137116Y-87747207D01*
X93126348Y-87755155D01*
X93125980Y-87755277D01*
X93125751Y-87755593D01*
X93096946Y-87764951D01*
X93068301Y-87774497D01*
X93067560Y-87774500D01*
X92980164Y-87774500D01*
X92921973Y-87755593D01*
X92886009Y-87706093D01*
X92886009Y-87644907D01*
X92910158Y-87605498D01*
X94186161Y-86329496D01*
X94240678Y-86301719D01*
X94256165Y-86300500D01*
X94704273Y-86300500D01*
X94704273Y-86300499D01*
X94734699Y-86297646D01*
X94862882Y-86252793D01*
X94972150Y-86172150D01*
X95052793Y-86062882D01*
X95097646Y-85934699D01*
X95100499Y-85904273D01*
X95100500Y-85904273D01*
X95100500Y-85145727D01*
X95100499Y-85145725D01*
X95097646Y-85115305D01*
X95097646Y-85115301D01*
X95052793Y-84987118D01*
X95020585Y-84943478D01*
X94972154Y-84877855D01*
X94972152Y-84877853D01*
X94972150Y-84877850D01*
X94972146Y-84877847D01*
X94972144Y-84877845D01*
X94862883Y-84797207D01*
X94766802Y-84763586D01*
X94718121Y-84726520D01*
X94700500Y-84670142D01*
X94700500Y-83331163D01*
X94702968Y-83323565D01*
X94701719Y-83315676D01*
X94712243Y-83295020D01*
X94719407Y-83272972D01*
X94729486Y-83261170D01*
X94761338Y-83229317D01*
X94815853Y-83201542D01*
X94834039Y-83200708D01*
X94834039Y-83200500D01*
X97165962Y-83200500D01*
X97165962Y-83201498D01*
G37*
G04 #@! TD.AperFunction*
G04 #@! TA.AperFunction,Conductor*
G36*
X83152830Y-85394407D02*
G01*
X83188794Y-85443907D01*
X83188794Y-85505093D01*
X83152830Y-85554593D01*
X83148918Y-85556945D01*
X83143519Y-85560800D01*
X83060801Y-85643518D01*
X83009427Y-85748604D01*
X83007423Y-85762362D01*
X82999500Y-85816740D01*
X82999500Y-86183260D01*
X83000947Y-86193190D01*
X83009427Y-86251395D01*
X83053384Y-86341309D01*
X83060802Y-86356483D01*
X83143517Y-86439198D01*
X83197285Y-86465483D01*
X83248604Y-86490572D01*
X83248605Y-86490572D01*
X83248607Y-86490573D01*
X83316740Y-86500500D01*
X83316743Y-86500500D01*
X84558257Y-86500500D01*
X84558260Y-86500500D01*
X84626393Y-86490573D01*
X84731483Y-86439198D01*
X84814198Y-86356483D01*
X84814198Y-86356480D01*
X84816184Y-86354496D01*
X84870701Y-86326719D01*
X84886188Y-86325500D01*
X85217852Y-86325500D01*
X85217853Y-86325500D01*
X85246575Y-86317804D01*
X85307675Y-86321005D01*
X85355226Y-86359510D01*
X85371062Y-86418610D01*
X85360408Y-86458375D01*
X85339354Y-86499696D01*
X85324500Y-86593477D01*
X85324500Y-87056520D01*
X85324501Y-87056523D01*
X85339352Y-87150299D01*
X85339354Y-87150304D01*
X85396950Y-87263342D01*
X85486658Y-87353050D01*
X85599696Y-87410646D01*
X85693481Y-87425500D01*
X86306518Y-87425499D01*
X86306520Y-87425499D01*
X86306521Y-87425498D01*
X86353411Y-87418072D01*
X86400299Y-87410647D01*
X86400299Y-87410646D01*
X86400304Y-87410646D01*
X86513342Y-87353050D01*
X86543767Y-87322625D01*
X86561897Y-87304496D01*
X86616414Y-87276719D01*
X86631900Y-87275500D01*
X87113812Y-87275500D01*
X87172003Y-87294407D01*
X87183816Y-87304496D01*
X87185801Y-87306481D01*
X87185802Y-87306483D01*
X87268517Y-87389198D01*
X87312388Y-87410645D01*
X87373604Y-87440572D01*
X87373605Y-87440572D01*
X87373607Y-87440573D01*
X87441740Y-87450500D01*
X87531335Y-87450500D01*
X87538932Y-87452968D01*
X87546822Y-87451719D01*
X87567476Y-87462242D01*
X87589526Y-87469407D01*
X87601338Y-87479496D01*
X87727339Y-87605496D01*
X87755117Y-87660013D01*
X87745546Y-87720445D01*
X87702281Y-87763709D01*
X87657336Y-87774500D01*
X81973513Y-87774500D01*
X81915322Y-87755593D01*
X81903509Y-87745504D01*
X81353496Y-87195491D01*
X81325719Y-87140974D01*
X81324500Y-87125487D01*
X81324500Y-85647887D01*
X81343407Y-85589696D01*
X81392907Y-85553732D01*
X81437780Y-85549923D01*
X81441740Y-85550500D01*
X81441741Y-85550500D01*
X82683257Y-85550500D01*
X82683260Y-85550500D01*
X82751393Y-85540573D01*
X82856483Y-85489198D01*
X82939198Y-85406483D01*
X82939198Y-85406480D01*
X82941184Y-85404496D01*
X82995701Y-85376719D01*
X83011188Y-85375500D01*
X83094639Y-85375500D01*
X83152830Y-85394407D01*
G37*
G04 #@! TD.AperFunction*
M02*
