G04 #@! TF.GenerationSoftware,KiCad,Pcbnew,9.0.1*
G04 #@! TF.CreationDate,2025-05-07T20:37:22+02:00*
G04 #@! TF.ProjectId,resistive-BMS-4s,72657369-7374-4697-9665-2d424d532d34,rev?*
G04 #@! TF.SameCoordinates,Original*
G04 #@! TF.FileFunction,Paste,Top*
G04 #@! TF.FilePolarity,Positive*
%FSLAX46Y46*%
G04 Gerber Fmt 4.6, Leading zero omitted, Abs format (unit mm)*
G04 Created by KiCad (PCBNEW 9.0.1) date 2025-05-07 20:37:22*
%MOMM*%
%LPD*%
G01*
G04 APERTURE LIST*
G04 Aperture macros list*
%AMRoundRect*
0 Rectangle with rounded corners*
0 $1 Rounding radius*
0 $2 $3 $4 $5 $6 $7 $8 $9 X,Y pos of 4 corners*
0 Add a 4 corners polygon primitive as box body*
4,1,4,$2,$3,$4,$5,$6,$7,$8,$9,$2,$3,0*
0 Add four circle primitives for the rounded corners*
1,1,$1+$1,$2,$3*
1,1,$1+$1,$4,$5*
1,1,$1+$1,$6,$7*
1,1,$1+$1,$8,$9*
0 Add four rect primitives between the rounded corners*
20,1,$1+$1,$2,$3,$4,$5,0*
20,1,$1+$1,$4,$5,$6,$7,0*
20,1,$1+$1,$6,$7,$8,$9,0*
20,1,$1+$1,$8,$9,$2,$3,0*%
G04 Aperture macros list end*
%ADD10RoundRect,0.200000X0.200000X0.275000X-0.200000X0.275000X-0.200000X-0.275000X0.200000X-0.275000X0*%
%ADD11RoundRect,0.200000X-0.200000X-0.275000X0.200000X-0.275000X0.200000X0.275000X-0.200000X0.275000X0*%
%ADD12R,0.900000X0.600000*%
%ADD13R,0.600000X0.900000*%
%ADD14RoundRect,0.150000X0.150000X0.375000X-0.150000X0.375000X-0.150000X-0.375000X0.150000X-0.375000X0*%
%ADD15RoundRect,0.150000X-0.150000X-0.375000X0.150000X-0.375000X0.150000X0.375000X-0.150000X0.375000X0*%
%ADD16R,1.100000X0.250000*%
%ADD17RoundRect,0.200000X0.275000X-0.200000X0.275000X0.200000X-0.275000X0.200000X-0.275000X-0.200000X0*%
%ADD18RoundRect,0.150000X0.587500X0.150000X-0.587500X0.150000X-0.587500X-0.150000X0.587500X-0.150000X0*%
%ADD19RoundRect,0.250000X0.362500X1.425000X-0.362500X1.425000X-0.362500X-1.425000X0.362500X-1.425000X0*%
%ADD20RoundRect,0.150000X-0.587500X-0.150000X0.587500X-0.150000X0.587500X0.150000X-0.587500X0.150000X0*%
%ADD21RoundRect,0.225000X0.250000X-0.225000X0.250000X0.225000X-0.250000X0.225000X-0.250000X-0.225000X0*%
%ADD22RoundRect,0.250000X-1.425000X0.362500X-1.425000X-0.362500X1.425000X-0.362500X1.425000X0.362500X0*%
%ADD23RoundRect,0.250000X-0.362500X-1.425000X0.362500X-1.425000X0.362500X1.425000X-0.362500X1.425000X0*%
%ADD24RoundRect,0.225000X0.225000X0.250000X-0.225000X0.250000X-0.225000X-0.250000X0.225000X-0.250000X0*%
%ADD25RoundRect,0.250000X-0.650000X0.325000X-0.650000X-0.325000X0.650000X-0.325000X0.650000X0.325000X0*%
%ADD26RoundRect,0.200000X-0.275000X0.200000X-0.275000X-0.200000X0.275000X-0.200000X0.275000X0.200000X0*%
%ADD27RoundRect,0.225000X-0.225000X-0.250000X0.225000X-0.250000X0.225000X0.250000X-0.225000X0.250000X0*%
%ADD28RoundRect,0.150000X0.150000X-0.512500X0.150000X0.512500X-0.150000X0.512500X-0.150000X-0.512500X0*%
%ADD29RoundRect,0.250000X0.650000X-0.325000X0.650000X0.325000X-0.650000X0.325000X-0.650000X-0.325000X0*%
%ADD30RoundRect,0.250000X-0.325000X-0.650000X0.325000X-0.650000X0.325000X0.650000X-0.325000X0.650000X0*%
%ADD31RoundRect,0.167500X-0.167500X-0.167500X0.167500X-0.167500X0.167500X0.167500X-0.167500X0.167500X0*%
%ADD32RoundRect,0.050000X-0.375000X-0.050000X0.375000X-0.050000X0.375000X0.050000X-0.375000X0.050000X0*%
%ADD33RoundRect,0.050000X-0.050000X-0.375000X0.050000X-0.375000X0.050000X0.375000X-0.050000X0.375000X0*%
%ADD34RoundRect,0.150000X0.150000X-0.587500X0.150000X0.587500X-0.150000X0.587500X-0.150000X-0.587500X0*%
%ADD35RoundRect,0.375000X-0.625000X-0.375000X0.625000X-0.375000X0.625000X0.375000X-0.625000X0.375000X0*%
%ADD36RoundRect,0.500000X-0.500000X-1.400000X0.500000X-1.400000X0.500000X1.400000X-0.500000X1.400000X0*%
G04 APERTURE END LIST*
D10*
X110325000Y-97000000D03*
X108675000Y-97000000D03*
D11*
X107175000Y-106000000D03*
X108825000Y-106000000D03*
D12*
X72850000Y-96550000D03*
X74000000Y-96550000D03*
X75150000Y-96550000D03*
X72850000Y-95700000D03*
X74000000Y-95700000D03*
X75150000Y-95700000D03*
X72850000Y-94850000D03*
X74000000Y-94850000D03*
X75150000Y-94850000D03*
X72850000Y-94000000D03*
X74000000Y-94000000D03*
X75150000Y-94000000D03*
D13*
X72095000Y-93000000D03*
X73365000Y-93000000D03*
X74635000Y-93000000D03*
X75905000Y-93000000D03*
D14*
X72095000Y-98725000D03*
X73365000Y-98725000D03*
X74635000Y-98725000D03*
X75905000Y-98725000D03*
D12*
X75150000Y-103450000D03*
X74000000Y-103450000D03*
X72850000Y-103450000D03*
X75150000Y-104300000D03*
X74000000Y-104300000D03*
X72850000Y-104300000D03*
X75150000Y-105150000D03*
X74000000Y-105150000D03*
X72850000Y-105150000D03*
X75150000Y-106000000D03*
X74000000Y-106000000D03*
X72850000Y-106000000D03*
D13*
X75905000Y-107000000D03*
X74635000Y-107000000D03*
X73365000Y-107000000D03*
X72095000Y-107000000D03*
D15*
X75905000Y-101275000D03*
X74635000Y-101275000D03*
X73365000Y-101275000D03*
X72095000Y-101275000D03*
D16*
X110850000Y-104000000D03*
X110850000Y-104500000D03*
X110850000Y-105000000D03*
X110850000Y-105500000D03*
X110850000Y-106000000D03*
X115150000Y-106000000D03*
X115150000Y-105500000D03*
X115150000Y-105000000D03*
X115150000Y-104500000D03*
X115150000Y-104000000D03*
D17*
X90000000Y-109325000D03*
X90000000Y-107675000D03*
D10*
X114575000Y-96750000D03*
X112925000Y-96750000D03*
X118825000Y-106000000D03*
X117175000Y-106000000D03*
D11*
X107175000Y-104500000D03*
X108825000Y-104500000D03*
D18*
X110937500Y-114950000D03*
X110937500Y-113050000D03*
X109062500Y-114000000D03*
D19*
X110962500Y-119000000D03*
X105037500Y-119000000D03*
D20*
X108062500Y-85050000D03*
X108062500Y-86950000D03*
X109937500Y-86000000D03*
D21*
X89250000Y-98275000D03*
X89250000Y-96725000D03*
D17*
X90000000Y-103825000D03*
X90000000Y-102175000D03*
D21*
X89250000Y-95275000D03*
X89250000Y-93725000D03*
D22*
X122090000Y-97037500D03*
X122090000Y-102962500D03*
D23*
X89037500Y-119000000D03*
X94962500Y-119000000D03*
D24*
X113775000Y-102000000D03*
X112225000Y-102000000D03*
D25*
X114000000Y-111525000D03*
X114000000Y-114475000D03*
D12*
X78850000Y-96550000D03*
X80000000Y-96550000D03*
X81150000Y-96550000D03*
X78850000Y-95700000D03*
X80000000Y-95700000D03*
X81150000Y-95700000D03*
X78850000Y-94850000D03*
X80000000Y-94850000D03*
X81150000Y-94850000D03*
X78850000Y-94000000D03*
X80000000Y-94000000D03*
X81150000Y-94000000D03*
D13*
X78095000Y-93000000D03*
X79365000Y-93000000D03*
X80635000Y-93000000D03*
X81905000Y-93000000D03*
D14*
X78095000Y-98725000D03*
X79365000Y-98725000D03*
X80635000Y-98725000D03*
X81905000Y-98725000D03*
D23*
X102037500Y-81000000D03*
X107962500Y-81000000D03*
D18*
X104937500Y-114950000D03*
X104937500Y-113050000D03*
X103062500Y-114000000D03*
D26*
X107000000Y-113175000D03*
X107000000Y-114825000D03*
D20*
X82062500Y-85050000D03*
X82062500Y-86950000D03*
X83937500Y-86000000D03*
D27*
X115975000Y-97000000D03*
X117525000Y-97000000D03*
D17*
X100000000Y-103825000D03*
X100000000Y-102175000D03*
D20*
X92062500Y-102050000D03*
X92062500Y-103950000D03*
X93937500Y-103000000D03*
D21*
X108000000Y-95275000D03*
X108000000Y-93725000D03*
D28*
X116550000Y-101137500D03*
X117500000Y-101137500D03*
X118450000Y-101137500D03*
X118450000Y-98862500D03*
X117500000Y-98862500D03*
X116550000Y-98862500D03*
D23*
X84037500Y-81000000D03*
X89962500Y-81000000D03*
D17*
X106000000Y-86825000D03*
X106000000Y-85175000D03*
D18*
X97937500Y-103950000D03*
X97937500Y-102050000D03*
X96062500Y-103000000D03*
D29*
X98000000Y-88475000D03*
X98000000Y-85525000D03*
D17*
X100000000Y-109325000D03*
X100000000Y-107675000D03*
D20*
X102062500Y-85050000D03*
X102062500Y-86950000D03*
X103937500Y-86000000D03*
D12*
X81150000Y-103450000D03*
X80000000Y-103450000D03*
X78850000Y-103450000D03*
X81150000Y-104300000D03*
X80000000Y-104300000D03*
X78850000Y-104300000D03*
X81150000Y-105150000D03*
X80000000Y-105150000D03*
X78850000Y-105150000D03*
X81150000Y-106000000D03*
X80000000Y-106000000D03*
X78850000Y-106000000D03*
D13*
X81905000Y-107000000D03*
X80635000Y-107000000D03*
X79365000Y-107000000D03*
X78095000Y-107000000D03*
D15*
X81905000Y-101275000D03*
X80635000Y-101275000D03*
X79365000Y-101275000D03*
X78095000Y-101275000D03*
D22*
X127000000Y-97037500D03*
X127000000Y-102962500D03*
D18*
X94937500Y-114950000D03*
X94937500Y-113050000D03*
X93062500Y-114000000D03*
D17*
X86000000Y-86825000D03*
X86000000Y-85175000D03*
D30*
X87525000Y-114000000D03*
X90475000Y-114000000D03*
D26*
X84000000Y-98175000D03*
X84000000Y-99825000D03*
D31*
X110590000Y-92590000D03*
X110590000Y-93410000D03*
X111410000Y-92590000D03*
X111410000Y-93410000D03*
D32*
X109550000Y-92200000D03*
X109550000Y-92600000D03*
X109550000Y-93000000D03*
X109550000Y-93400000D03*
X109550000Y-93800000D03*
D33*
X110200000Y-94450000D03*
X110600000Y-94450000D03*
X111000000Y-94450000D03*
X111400000Y-94450000D03*
X111800000Y-94450000D03*
D32*
X112450000Y-93800000D03*
X112450000Y-93400000D03*
X112450000Y-93000000D03*
X112450000Y-92600000D03*
X112450000Y-92200000D03*
D33*
X111800000Y-91550000D03*
X111400000Y-91550000D03*
X111000000Y-91550000D03*
X110600000Y-91550000D03*
X110200000Y-91550000D03*
D34*
X116550000Y-94937500D03*
X118450000Y-94937500D03*
X117500000Y-93062500D03*
D20*
X88062500Y-85050000D03*
X88062500Y-86950000D03*
X89937500Y-86000000D03*
D35*
X91600000Y-93700000D03*
X91600000Y-96000000D03*
D36*
X97900000Y-96000000D03*
D35*
X91600000Y-98300000D03*
D20*
X92062500Y-107550000D03*
X92062500Y-109450000D03*
X93937500Y-108500000D03*
D10*
X118825000Y-104500000D03*
X117175000Y-104500000D03*
X114575000Y-98250000D03*
X112925000Y-98250000D03*
D25*
X94000000Y-85525000D03*
X94000000Y-88475000D03*
D18*
X97937500Y-109450000D03*
X97937500Y-107550000D03*
X96062500Y-108500000D03*
M02*
